<svg width="149" height="37" viewBox="0 0 149 37" fill="none" xmlns="http://www.w3.org/2000/svg">
<path style=" stroke:none;fill-rule:nonzero;fill:rgb(100%,100%,100%);fill-opacity:1;" d="M 331.800781 600.601562 C 221.199219 600.601562 110.898438 600.601562 0.601562 600.601562 C 0.601562 400.601562 0.601562 200.601562 0.601562 0.601562 C 200.601562 0.601562 400.601562 0.601562 600.601562 0.601562 C 600.601562 200.601562 600.601562 400.601562 600.601562 600.601562 C 511.101562 600.601562 421.601562 600.601562 331.800781 600.601562 M 361.945312 329.230469 C 362.273438 330.15625 362.605469 331.082031 363.25 332.097656 C 363.488281 331.183594 363.730469 330.265625 363.976562 329.332031 C 364.6875 329.175781 365.441406 329.011719 366.066406 328.871094 C 365.699219 327.667969 365.410156 326.726562 365.332031 325.40625 C 365.304688 325.121094 365.273438 324.839844 365.382812 324.359375 C 365.339844 324.054688 365.292969 323.753906 365.355469 322.953125 C 364.917969 322.332031 364.523438 321.214844 364.039062 321.175781 C 361.710938 320.988281 359.359375 321.089844 356.453125 321.089844 C 356.878906 323.230469 357.1875 324.808594 357.351562 326.804688 C 357.183594 327.046875 357.011719 327.292969 356.515625 327.582031 C 356.675781 329.113281 356.832031 330.648438 357.035156 332.617188 C 358.0625 331.640625 358.722656 331.015625 359.609375 330.074219 C 359.992188 328.855469 360.371094 327.640625 361.117188 326.554688 C 361.476562 326.695312 361.832031 326.835938 362.222656 327.429688 C 362.175781 327.875 362.132812 328.320312 361.945312 329.230469 M 316.144531 330.664062 C 316.144531 330.664062 316.015625 330.585938 316.03125 330.105469 C 316.214844 329.042969 316.480469 327.988281 316.535156 326.921875 C 316.546875 326.625 315.933594 326.296875 315.242188 325.609375 C 315.5625 324.242188 315.882812 322.878906 316.21875 321.449219 C 313.355469 321.242188 310.726562 320.890625 308.105469 320.960938 C 307.300781 320.980469 305.890625 322.125 305.851562 322.816406 C 305.664062 326.167969 304.363281 329.9375 308.21875 332.242188 C 308.894531 331.667969 309.558594 331.105469 310.507812 330.976562 C 312.136719 333.226562 314.347656 331.726562 316.476562 332.082031 C 316.40625 331.632812 316.339844 331.1875 316.144531 330.664062 M 343.855469 322.828125 C 343.855469 322.828125 343.835938 322.910156 343.3125 323.113281 C 341.058594 322.605469 338.804688 322.097656 336.0625 321.480469 C 336.109375 321.425781 335.640625 322.007812 335.042969 322.746094 C 334.460938 322.023438 333.992188 321.441406 333.542969 320.890625 C 328.992188 321.59375 331.0625 325.082031 330.734375 327.492188 C 330.679688 327.871094 331.558594 328.378906 332.023438 329.304688 C 332.511719 330.410156 332.855469 332.324219 333.523438 332.445312 C 334.820312 332.679688 336.296875 331.90625 338.148438 331.800781 C 340.367188 332.246094 341.226562 331.199219 341.308594 329.082031 C 341.378906 327.183594 341.617188 325.292969 341.832031 322.828125 C 345.988281 325.792969 342.589844 329.183594 343.527344 331.691406 C 345.164062 331.691406 346.617188 331.691406 348.292969 331.894531 C 350.023438 331.894531 351.753906 331.894531 353.609375 331.894531 C 353.398438 329.199219 353.195312 326.628906 353.472656 323.835938 C 353.214844 323.09375 352.957031 322.351562 352.589844 321.191406 C 350.488281 321.171875 348.355469 321.378906 346.300781 321.058594 C 344.597656 320.796875 344.320312 321.734375 343.855469 322.828125 M 386.273438 331.78125 C 387.328125 331.738281 388.378906 331.691406 389.871094 331.636719 C 390.339844 331.183594 391.128906 330.78125 391.214844 330.265625 C 391.382812 329.242188 391.367188 328.085938 391.042969 327.113281 C 390.75 326.222656 389.949219 325.5 389.550781 324.335938 C 389.742188 323.988281 389.933594 323.644531 390.445312 323.199219 C 390.328125 322.714844 390.210938 322.234375 389.589844 321.574219 C 387.15625 321.664062 384.722656 321.757812 382.289062 321.851562 C 380.925781 322.578125 381.03125 322.589844 380.292969 328.875 C 380.101562 330.492188 380.625 331.199219 382 332.105469 C 383.253906 331.957031 384.503906 331.808594 386.273438 331.78125 M 445.886719 327.847656 C 445.554688 325.808594 445.21875 323.769531 444.890625 321.730469 C 442.527344 322.980469 442.179688 329.554688 444.621094 332.101562 C 445.078125 330.792969 445.476562 329.640625 446.324219 328.757812 C 447.382812 331.136719 449.644531 332.191406 451.988281 331.324219 C 452.375 331.183594 452.640625 330.714844 452.960938 330.394531 C 452.5625 330.066406 452.214844 329.574219 451.757812 329.445312 C 450.707031 329.148438 449.605469 329.015625 448.519531 328.835938 C 447.644531 328.691406 446.765625 328.574219 445.886719 327.847656 M 427.3125 324.289062 C 426.953125 323.320312 426.703125 321.59375 426.207031 321.519531 C 424.285156 321.230469 422.179688 321.121094 420.359375 321.667969 C 419.558594 321.910156 419.28125 323.886719 418.699219 325.558594 C 420.730469 326.039062 422.765625 326.519531 425.71875 327.214844 C 423.640625 328.710938 422.203125 329.746094 420.769531 330.777344 C 420.828125 331.070312 420.890625 331.359375 420.949219 331.652344 C 422.03125 331.421875 423.410156 331.53125 424.140625 330.894531 C 425.929688 329.332031 428.785156 328.097656 427.3125 324.289062 M 372.296875 330.449219 C 372.550781 330.636719 372.808594 330.824219 373.421875 331.277344 C 373.867188 331.40625 374.355469 331.722656 374.753906 331.636719 C 377.433594 331.042969 379.035156 328.34375 378.324219 325.738281 C 377.566406 322.960938 374.867188 321.433594 372.0625 322.199219 C 369.292969 322.953125 367.324219 326.152344 368.15625 328.609375 C 368.902344 330.816406 370.109375 331.863281 372.296875 330.449219 M 394.253906 331.695312 C 396.832031 331.703125 399.414062 331.707031 402.378906 331.640625 C 402.226562 330.441406 402.058594 329.25 401.917969 328.050781 C 401.824219 327.226562 401.507812 325.753906 401.722656 325.671875 C 405.617188 324.140625 402.238281 322.558594 402.125 321.527344 C 399.398438 321.527344 396.980469 321.527344 394.34375 321.527344 C 392.3125 324.878906 392.335938 324.964844 395.808594 325.5625 C 395.273438 327.441406 394.742188 329.320312 394.253906 331.695312 M 248.101562 319.207031 C 233.816406 319.207031 219.535156 319.28125 205.253906 319.148438 C 202.292969 319.117188 201.539062 320.125 201.558594 322.945312 C 201.667969 340.027344 201.613281 357.105469 201.613281 374.183594 C 201.613281 379.625 201.613281 379.632812 206.855469 378.625 C 208.023438 378.398438 209.203125 378.164062 210.332031 377.800781 C 223.554688 373.527344 234.984375 366.554688 244.324219 356.085938 C 253.144531 346.199219 258.859375 334.882812 261.8125 322.027344 C 262.367188 319.605469 261.464844 319.1875 259.488281 319.203125 C 255.890625 319.226562 252.296875 319.210938 248.101562 319.207031 M 159.023438 238 C 151.617188 241.179688 144.949219 245.5 138.976562 250.898438 C 125.808594 262.792969 117.867188 277.566406 114.992188 295.015625 C 113.789062 302.292969 113.691406 309.644531 114.84375 316.15625 C 142.691406 288.339844 170.78125 260.277344 198.691406 232.398438 C 185.496094 230.710938 172.199219 232.21875 159.023438 238 M 242.699219 293.375 C 249.066406 293.375 255.4375 293.375 261.820312 293.375 C 260.976562 277.914062 247.238281 253.285156 227.007812 242.496094 C 210.328125 259.132812 193.582031 275.84375 176.835938 292.550781 C 177.027344 292.824219 177.214844 293.101562 177.40625 293.375 C 198.96875 293.375 220.535156 293.375 242.699219 293.375 M 174.402344 379.679688 C 174.875 378.886719 175.757812 378.097656 175.761719 377.304688 C 175.839844 358.816406 175.796875 340.328125 175.851562 321.839844 C 175.859375 319.921875 175.320312 319.199219 173.316406 319.226562 C 166.222656 319.320312 159.125 319.207031 152.03125 319.316406 C 150.945312 319.332031 149.582031 319.804688 148.828125 320.550781 C 141.160156 328.140625 133.566406 335.804688 126.046875 343.542969 C 125.539062 344.0625 125.40625 345.59375 125.792969 346.230469 C 129.984375 353.113281 135.421875 358.953125 141.578125 364.097656 C 151.023438 371.988281 161.90625 376.988281 174.402344 379.679688 M 459.4375 295.121094 C 458.007812 303.242188 452.617188 307.355469 444.957031 309.058594 C 447.167969 313.238281 447.609375 313.4375 451.390625 311.980469 C 452.132812 311.695312 452.835938 311.3125 453.539062 310.945312 C 460.464844 307.324219 463.300781 301.066406 464.746094 293.828125 C 465.410156 290.488281 464.441406 289.261719 461.027344 289.433594 C 458.769531 289.546875 456.503906 289.453125 453.984375 289.453125 C 453.984375 287.460938 453.984375 285.730469 453.984375 284.042969 C 452.191406 284.042969 450.65625 284.042969 449.046875 284.042969 C 449.046875 285.933594 449.046875 287.578125 449.046875 289.535156 C 445.542969 289.535156 442.207031 289.535156 438.867188 289.535156 C 438.867188 293.480469 438.867188 297.105469 438.867188 300.871094 C 440.253906 300.871094 442.347656 301.136719 442.4375 300.828125 C 443.070312 298.632812 443.292969 296.316406 443.703125 293.671875 C 448.613281 293.671875 453.671875 293.660156 458.734375 293.707031 C 458.984375 293.710938 459.222656 294.246094 459.4375 295.121094 M 397.21875 292.359375 C 397.96875 289.984375 396.46875 288.464844 393.550781 288.53125 C 390.929688 288.59375 388.308594 288.542969 385.402344 288.542969 C 386.011719 287.214844 386.449219 286.269531 387.023438 285.019531 C 385.328125 284.492188 383.871094 284.039062 382.296875 283.550781 C 379.929688 289.730469 375.828125 294.203125 370.570312 297.691406 C 373.976562 300.972656 373.984375 300.980469 377.042969 298.339844 C 377.949219 297.558594 379.007812 296.839844 379.621094 295.859375 C 382.636719 291.042969 387.109375 292.863281 391.757812 292.742188 C 388.851562 302.085938 382.425781 306.992188 374.027344 309.886719 C 377.308594 313.777344 377.328125 313.808594 381.332031 311.8125 C 389.390625 307.796875 394.359375 301.210938 397.21875 292.359375 M 280.023438 312.824219 C 283.894531 311.488281 286.179688 308.402344 287.753906 304.972656 C 289.226562 301.769531 289.988281 298.242188 291.175781 294.484375 C 293.449219 294.484375 295.984375 294.484375 298.46875 294.484375 C 298.46875 292.820312 298.46875 291.484375 298.46875 290.042969 C 292.675781 290.042969 287.125 290.042969 281.222656 290.042969 C 281.691406 288.234375 282.097656 286.675781 282.550781 284.917969 C 280.804688 284.628906 279.285156 284.371094 277.765625 284.117188 C 277.976562 284.367188 278.1875 284.613281 278.394531 284.863281 C 275.632812 289.691406 272.871094 294.519531 270.023438 299.5 C 270.910156 300.011719 272.164062 300.734375 273.550781 301.535156 C 276.871094 297.941406 278.820312 292.109375 285.554688 295.15625 C 285.269531 301.765625 281.957031 306.597656 275.933594 310.167969 C 277.375 311.140625 278.507812 311.910156 280.023438 312.824219 M 482.550781 292.414062 C 482.550781 290.136719 482.550781 287.859375 482.550781 285.371094 C 480.953125 285.371094 479.429688 285.371094 477.769531 285.371094 C 477.769531 294.652344 477.769531 303.789062 477.769531 313.066406 C 479.457031 313.066406 481 313.066406 482.773438 313.066406 C 482.773438 308.492188 482.773438 304.074219 482.773438 299.132812 C 486.972656 300.8125 490.789062 302.34375 494.78125 303.945312 C 495.378906 302.199219 495.871094 300.757812 496.425781 299.121094 C 492.328125 297.628906 488.558594 296.324219 484.859375 294.859375 C 483.980469 294.511719 483.320312 293.625 482.550781 292.414062 M 305.222656 301.058594 C 306.382812 301.070312 307.644531 301.382812 308.683594 301.035156 C 311.441406 300.117188 314.101562 298.914062 317.265625 297.636719 C 317.265625 303.046875 317.265625 307.863281 317.265625 312.625 C 319.050781 312.625 320.515625 312.625 322.070312 312.625 C 322.070312 307.488281 322.183594 302.515625 322.015625 297.550781 C 321.945312 295.386719 322.710938 294.089844 324.429688 292.882812 C 326.664062 291.3125 328.671875 289.417969 330.945312 287.519531 C 329.585938 286.261719 328.585938 285.332031 327.378906 284.210938 C 320.964844 291.480469 312.746094 295.460938 303.359375 297.832031 C 304.042969 299.050781 304.519531 299.898438 305.222656 301.058594 M 424.996094 307.09375 C 426.964844 303.90625 429.09375 300.800781 430.84375 297.496094 C 432.015625 295.285156 430.863281 293.660156 428.300781 293.636719 C 420.941406 293.574219 413.582031 293.617188 406.121094 293.617188 C 406.121094 295.25 406.121094 296.546875 406.121094 298.039062 C 412.632812 298.039062 418.875 298.039062 425.605469 298.039062 C 423.164062 305.203125 417.1875 307.363281 411.238281 309.507812 C 413.914062 313.519531 414.171875 313.71875 417.980469 311.78125 C 420.347656 310.574219 422.464844 308.863281 424.996094 307.09375 M 351.898438 293.792969 C 347.660156 293.792969 343.421875 293.792969 339.21875 293.792969 C 339.21875 295.378906 339.21875 296.527344 339.21875 298.078125 C 345.78125 298.078125 352.164062 298.078125 358.914062 298.078125 C 356.253906 305.167969 350.472656 307.464844 344.453125 309.433594 C 347.1875 313.5625 347.300781 313.625 351.398438 311.742188 C 357.597656 308.890625 361.867188 304.292969 364.027344 297.746094 C 364.945312 294.964844 364.140625 293.636719 361.175781 293.652344 C 358.28125 293.667969 355.390625 293.742188 351.898438 293.792969 M 342.570312 289.683594 C 349.078125 289.683594 355.585938 289.683594 362.296875 289.683594 C 362.226562 288.128906 362.167969 286.90625 362.113281 285.738281 C 355.261719 285.738281 348.820312 285.738281 342.09375 285.738281 C 342.152344 287.054688 342.203125 288.210938 342.570312 289.683594 M 414.359375 289.816406 C 419.1875 289.816406 424.019531 289.816406 428.832031 289.816406 C 428.832031 288.167969 428.832031 287.019531 428.832031 285.796875 C 422.128906 285.796875 415.617188 285.796875 409.144531 285.796875 C 408.417969 289.6875 408.550781 289.863281 411.988281 289.828125 C 412.585938 289.820312 413.183594 289.820312 414.359375 289.816406 M 327.796875 328.332031 C 327.921875 326.738281 328.046875 325.144531 328.210938 323.039062 C 325.992188 320.242188 321.558594 320.308594 319.351562 323.066406 C 319.488281 325.640625 319.886719 327.625 319.628906 329.523438 C 319.226562 332.53125 320.679688 331.695312 322.269531 331.144531 C 323.027344 330.878906 324.183594 330.441406 324.613281 330.777344 C 327.648438 333.15625 327.796875 331.179688 327.796875 328.332031 M 408.691406 331.449219 C 410.789062 332.269531 412.828125 332.597656 414.65625 331.261719 C 413.644531 330.03125 412.898438 329.117188 412.152344 328.207031 C 413.25 327.351562 414.347656 326.492188 415.34375 325.710938 C 414.507812 324.554688 413.78125 323.550781 412.601562 321.921875 C 410.820312 322.050781 408.410156 322.222656 405.171875 322.453125 C 406.4375 323.855469 406.917969 324.390625 407.425781 324.949219 C 406.773438 325.867188 406.214844 326.648438 405.164062 328.113281 C 408.863281 327.179688 407.257812 330.113281 408.691406 331.449219 M 439.4375 325.878906 C 439.808594 324.742188 440.988281 323.460938 438.851562 322.785156 C 437.554688 322.371094 436.269531 321.914062 434.65625 321.367188 C 433.445312 322.910156 431.988281 324.773438 430.527344 326.632812 C 430.671875 326.820312 430.816406 327.007812 430.960938 327.195312 C 432.957031 326.21875 434.953125 325.238281 436.953125 324.261719 C 437.25 324.714844 437.550781 325.171875 437.847656 325.625 C 435.90625 327.433594 433.960938 329.238281 431.433594 331.585938 C 432.734375 331.523438 433.90625 331.824219 434.414062 331.375 C 436.164062 329.816406 437.679688 328 439.4375 325.878906 M 497.632812 287.242188 C 496.679688 286.414062 495.824219 285.25 494.71875 284.917969 C 494.253906 284.78125 493.265625 286.40625 492.632812 287.097656 C 491.453125 287.097656 490.121094 287.097656 488.789062 287.097656 C 488.636719 287.390625 488.488281 287.683594 488.339844 287.976562 C 489.582031 289.46875 490.828125 290.960938 492.070312 292.449219 C 492.992188 291.648438 493.917969 290.847656 494.476562 290.363281 C 495.917969 290.175781 497.050781 290.105469 498.109375 289.789062 C 498.234375 289.75 497.945312 288.34375 497.632812 287.242188 Z M 497.632812 287.242188 "/>
<path style=" stroke:none;fill-rule:nonzero;fill:rgb(85.882354%,85.490197%,92.156863%);fill-opacity:1;" d="M 248.398438 319.207031 C 252.296875 319.210938 255.890625 319.226562 259.488281 319.203125 C 261.464844 319.1875 262.367188 319.605469 261.8125 322.027344 C 258.859375 334.882812 253.144531 346.199219 244.324219 356.085938 C 234.984375 366.554688 223.554688 373.527344 210.332031 377.800781 C 209.203125 378.164062 208.023438 378.398438 206.855469 378.625 C 201.613281 379.632812 201.613281 379.625 201.613281 374.183594 C 201.613281 357.105469 201.667969 340.027344 201.558594 322.945312 C 201.539062 320.125 202.292969 319.117188 205.253906 319.148438 C 219.535156 319.28125 233.816406 319.207031 248.398438 319.207031 Z M 248.398438 319.207031 "/>
<path style=" stroke:none;fill-rule:nonzero;fill:rgb(43.137255%,61.176473%,82.352942%);fill-opacity:1;" d="M 159.230469 237.90625 C 172.199219 232.21875 185.496094 230.710938 198.691406 232.398438 C 170.78125 260.277344 142.691406 288.339844 114.84375 316.15625 C 113.691406 309.644531 113.789062 302.292969 114.992188 295.015625 C 117.867188 277.566406 125.808594 262.792969 138.976562 250.898438 C 144.949219 245.5 151.617188 241.179688 159.230469 237.90625 Z M 159.230469 237.90625 "/>
<path style=" stroke:none;fill-rule:nonzero;fill:rgb(50.196081%,80.000001%,90.588236%);fill-opacity:1;" d="M 242.398438 293.375 C 220.535156 293.375 198.96875 293.375 177.40625 293.375 C 177.214844 293.101562 177.027344 292.824219 176.835938 292.550781 C 193.582031 275.84375 210.328125 259.132812 227.007812 242.496094 C 247.238281 253.285156 260.976562 277.914062 261.820312 293.375 C 255.4375 293.375 249.066406 293.375 242.398438 293.375 Z M 242.398438 293.375 "/>
<path style=" stroke:none;fill-rule:nonzero;fill:rgb(50.196081%,80.000001%,90.588236%);fill-opacity:1;" d="M 174.152344 379.644531 C 161.90625 376.988281 151.023438 371.988281 141.578125 364.097656 C 135.421875 358.953125 129.984375 353.113281 125.792969 346.230469 C 125.40625 345.59375 125.539062 344.0625 126.046875 343.542969 C 133.566406 335.804688 141.160156 328.140625 148.828125 320.550781 C 149.582031 319.804688 150.945312 319.332031 152.03125 319.316406 C 159.125 319.207031 166.222656 319.320312 173.316406 319.226562 C 175.320312 319.199219 175.859375 319.921875 175.851562 321.839844 C 175.796875 340.328125 175.839844 358.816406 175.761719 377.304688 C 175.757812 378.097656 174.875 378.886719 174.152344 379.644531 Z M 174.152344 379.644531 "/>
<path style=" stroke:none;fill-rule:nonzero;fill:rgb(7.450981%,7.450981%,7.450981%);fill-opacity:1;" d="M 459.453125 294.828125 C 459.222656 294.246094 458.984375 293.710938 458.734375 293.707031 C 453.671875 293.660156 448.613281 293.671875 443.703125 293.671875 C 443.292969 296.316406 443.070312 298.632812 442.4375 300.828125 C 442.347656 301.136719 440.253906 300.871094 438.867188 300.871094 C 438.867188 297.105469 438.867188 293.480469 438.867188 289.535156 C 442.207031 289.535156 445.542969 289.535156 449.046875 289.535156 C 449.046875 287.578125 449.046875 285.933594 449.046875 284.042969 C 450.65625 284.042969 452.191406 284.042969 453.984375 284.042969 C 453.984375 285.730469 453.984375 287.460938 453.984375 289.453125 C 456.503906 289.453125 458.769531 289.546875 461.027344 289.433594 C 464.441406 289.261719 465.410156 290.488281 464.746094 293.828125 C 463.300781 301.066406 460.464844 307.324219 453.539062 310.945312 C 452.835938 311.3125 452.132812 311.695312 451.390625 311.980469 C 447.609375 313.4375 447.167969 313.238281 444.957031 309.058594 C 452.617188 307.355469 458.007812 303.242188 459.453125 294.828125 Z M 459.453125 294.828125 "/>
<path style=" stroke:none;fill-rule:nonzero;fill:rgb(7.450981%,7.450981%,7.450981%);fill-opacity:1;" d="M 397.132812 292.558594 C 394.359375 301.210938 389.390625 307.796875 381.332031 311.8125 C 377.328125 313.808594 377.308594 313.777344 374.027344 309.886719 C 382.425781 306.992188 388.851562 302.085938 391.757812 292.742188 C 387.109375 292.863281 382.636719 291.042969 379.621094 295.859375 C 379.007812 296.839844 377.949219 297.558594 377.042969 298.339844 C 373.984375 300.980469 373.976562 300.972656 370.570312 297.691406 C 375.828125 294.203125 379.929688 289.730469 382.296875 283.550781 C 383.871094 284.039062 385.328125 284.492188 387.023438 285.019531 C 386.449219 286.269531 386.011719 287.214844 385.402344 288.542969 C 388.308594 288.542969 390.929688 288.59375 393.550781 288.53125 C 396.46875 288.464844 397.96875 289.984375 397.132812 292.558594 Z M 397.132812 292.558594 "/>
<path style=" stroke:none;fill-rule:nonzero;fill:rgb(7.450981%,7.450981%,7.450981%);fill-opacity:1;" d="M 279.835938 312.75 C 278.507812 311.910156 277.375 311.140625 275.933594 310.167969 C 281.957031 306.597656 285.269531 301.765625 285.554688 295.15625 C 278.820312 292.109375 276.871094 297.941406 273.550781 301.535156 C 272.164062 300.734375 270.910156 300.011719 270.023438 299.5 C 272.871094 294.519531 275.632812 289.691406 278.394531 284.863281 C 278.1875 284.613281 277.976562 284.367188 277.765625 284.117188 C 279.285156 284.371094 280.804688 284.628906 282.550781 284.917969 C 282.097656 286.675781 281.691406 288.234375 281.222656 290.042969 C 287.125 290.042969 292.675781 290.042969 298.46875 290.042969 C 298.46875 291.484375 298.46875 292.820312 298.46875 294.484375 C 295.984375 294.484375 293.449219 294.484375 291.175781 294.484375 C 289.988281 298.242188 289.226562 301.769531 287.753906 304.972656 C 286.179688 308.402344 283.894531 311.488281 279.835938 312.75 Z M 279.835938 312.75 "/>
<path style=" stroke:none;fill-rule:nonzero;fill:rgb(7.450981%,7.450981%,7.450981%);fill-opacity:1;" d="M 482.554688 292.699219 C 483.320312 293.625 483.980469 294.511719 484.859375 294.859375 C 488.558594 296.324219 492.328125 297.628906 496.425781 299.121094 C 495.871094 300.757812 495.378906 302.199219 494.78125 303.945312 C 490.789062 302.34375 486.972656 300.8125 482.773438 299.132812 C 482.773438 304.074219 482.773438 308.492188 482.773438 313.066406 C 481 313.066406 479.457031 313.066406 477.769531 313.066406 C 477.769531 303.789062 477.769531 294.652344 477.769531 285.371094 C 479.429688 285.371094 480.953125 285.371094 482.550781 285.371094 C 482.550781 287.859375 482.550781 290.136719 482.554688 292.699219 Z M 482.554688 292.699219 "/>
<path style=" stroke:none;fill-rule:nonzero;fill:rgb(7.450981%,7.450981%,7.450981%);fill-opacity:1;" d="M 305.109375 300.902344 C 304.519531 299.898438 304.042969 299.050781 303.359375 297.832031 C 312.746094 295.460938 320.964844 291.480469 327.378906 284.210938 C 328.585938 285.332031 329.585938 286.261719 330.945312 287.519531 C 328.671875 289.417969 326.664062 291.3125 324.429688 292.882812 C 322.710938 294.089844 321.945312 295.386719 322.015625 297.550781 C 322.183594 302.515625 322.070312 307.488281 322.070312 312.625 C 320.515625 312.625 319.050781 312.625 317.265625 312.625 C 317.265625 307.863281 317.265625 303.046875 317.265625 297.636719 C 314.101562 298.914062 311.441406 300.117188 308.683594 301.035156 C 307.644531 301.382812 306.382812 301.070312 305.109375 300.902344 Z M 305.109375 300.902344 "/>
<path style=" stroke:none;fill-rule:nonzero;fill:rgb(7.450981%,7.450981%,7.450981%);fill-opacity:1;" d="M 424.84375 307.238281 C 422.464844 308.863281 420.347656 310.574219 417.980469 311.78125 C 414.171875 313.71875 413.914062 313.519531 411.238281 309.507812 C 417.1875 307.363281 423.164062 305.203125 425.605469 298.039062 C 418.875 298.039062 412.632812 298.039062 406.121094 298.039062 C 406.121094 296.546875 406.121094 295.25 406.121094 293.617188 C 413.582031 293.617188 420.941406 293.574219 428.300781 293.636719 C 430.863281 293.660156 432.015625 295.285156 430.84375 297.496094 C 429.09375 300.800781 426.964844 303.90625 424.84375 307.238281 Z M 424.84375 307.238281 "/>
<path style=" stroke:none;fill-rule:nonzero;fill:rgb(7.450981%,7.450981%,7.450981%);fill-opacity:1;" d="M 352.199219 293.792969 C 355.390625 293.742188 358.28125 293.667969 361.175781 293.652344 C 364.140625 293.636719 364.945312 294.964844 364.027344 297.746094 C 361.867188 304.292969 357.597656 308.890625 351.398438 311.742188 C 347.300781 313.625 347.1875 313.5625 344.453125 309.433594 C 350.472656 307.464844 356.253906 305.167969 358.914062 298.078125 C 352.164062 298.078125 345.78125 298.078125 339.21875 298.078125 C 339.21875 296.527344 339.21875 295.378906 339.21875 293.792969 C 343.421875 293.792969 347.660156 293.792969 352.199219 293.792969 Z M 352.199219 293.792969 "/>
<path style=" stroke:none;fill-rule:nonzero;fill:rgb(24.313726%,24.313726%,24.313726%);fill-opacity:1;" d="M 348.070312 331.691406 C 346.617188 331.691406 345.164062 331.691406 343.527344 331.691406 C 342.589844 329.183594 345.988281 325.792969 341.832031 322.828125 C 341.617188 325.292969 341.378906 327.183594 341.308594 329.082031 C 341.226562 331.199219 340.367188 332.246094 337.800781 331.527344 C 336.988281 331.253906 336.523438 331.253906 335.769531 331.253906 C 336.304688 330.132812 336.691406 329.324219 337.113281 328.453125 C 335.90625 328.453125 334.988281 328.453125 334.023438 328.453125 C 333.855469 329.503906 333.691406 330.542969 333.484375 331.871094 C 332.859375 330.582031 332.433594 329.707031 332.007812 328.828125 C 331.558594 328.378906 330.679688 327.871094 330.734375 327.492188 C 331.0625 325.082031 328.992188 321.59375 333.542969 320.890625 C 333.992188 321.441406 334.460938 322.023438 335.042969 322.746094 C 335.640625 322.007812 336.109375 321.425781 336.0625 321.480469 C 338.804688 322.097656 341.058594 322.605469 343.683594 323.183594 C 345.359375 324.101562 346.664062 324.949219 347.976562 326.035156 C 347.570312 327.414062 347.160156 328.558594 346.640625 330.003906 C 346.933594 330.28125 347.5625 330.871094 348.160156 331.519531 C 348.128906 331.578125 348.070312 331.691406 348.070312 331.691406 M 337.316406 326.933594 C 337.363281 327.109375 337.410156 327.289062 337.457031 327.464844 C 337.476562 327.214844 337.496094 326.964844 337.316406 326.933594 M 338.164062 324.839844 C 338.117188 325.0625 338.074219 325.28125 338.027344 325.5 C 338.136719 325.363281 338.246094 325.222656 338.164062 324.839844 Z M 338.164062 324.839844 "/>
<path style=" stroke:none;fill-rule:nonzero;fill:rgb(7.450981%,7.450981%,7.450981%);fill-opacity:1;" d="M 342.414062 289.527344 C 342.203125 288.210938 342.152344 287.054688 342.09375 285.738281 C 348.820312 285.738281 355.261719 285.738281 362.113281 285.738281 C 362.167969 286.90625 362.226562 288.128906 362.296875 289.683594 C 355.585938 289.683594 349.078125 289.683594 342.414062 289.527344 Z M 342.414062 289.527344 "/>
<path style=" stroke:none;fill-rule:nonzero;fill:rgb(7.450981%,7.450981%,7.450981%);fill-opacity:1;" d="M 414.070312 289.816406 C 413.183594 289.820312 412.585938 289.820312 411.988281 289.828125 C 408.550781 289.863281 408.417969 289.6875 409.144531 285.796875 C 415.617188 285.796875 422.128906 285.796875 428.832031 285.796875 C 428.832031 287.019531 428.832031 288.167969 428.832031 289.816406 C 424.019531 289.816406 419.1875 289.816406 414.070312 289.816406 Z M 414.070312 289.816406 "/>
<path style=" stroke:none;fill-rule:nonzero;fill:rgb(24.313726%,24.313726%,24.313726%);fill-opacity:1;" d="M 327.792969 328.578125 C 327.796875 331.179688 327.648438 333.15625 324.613281 330.777344 C 324.183594 330.441406 323.027344 330.878906 322.269531 331.144531 C 320.679688 331.695312 319.226562 332.53125 319.628906 329.523438 C 319.886719 327.625 319.488281 325.640625 319.351562 323.066406 C 321.558594 320.308594 325.992188 320.242188 328.210938 323.039062 C 328.046875 325.144531 327.921875 326.738281 327.792969 328.578125 Z M 327.792969 328.578125 "/>
<path style=" stroke:none;fill-rule:nonzero;fill:rgb(20.392157%,20.392157%,20.392157%);fill-opacity:1;" d="M 408.515625 331.304688 C 407.257812 330.113281 408.863281 327.179688 405.164062 328.113281 C 406.214844 326.648438 406.773438 325.867188 407.425781 324.949219 C 406.917969 324.390625 406.4375 323.855469 405.171875 322.453125 C 408.410156 322.222656 410.820312 322.050781 412.601562 321.921875 C 413.78125 323.550781 414.507812 324.554688 415.34375 325.710938 C 414.347656 326.492188 413.25 327.351562 412.152344 328.207031 C 412.898438 329.117188 413.644531 330.03125 414.65625 331.261719 C 412.828125 332.597656 410.789062 332.269531 408.515625 331.304688 Z M 408.515625 331.304688 "/>
<path style=" stroke:none;fill-rule:nonzero;fill:rgb(24.313726%,24.313726%,24.313726%);fill-opacity:1;" d="M 310.21875 330.542969 C 309.558594 331.105469 308.894531 331.667969 308.21875 332.242188 C 304.363281 329.9375 305.664062 326.167969 305.851562 322.816406 C 305.890625 322.125 307.300781 320.980469 308.105469 320.960938 C 310.726562 320.890625 313.355469 321.242188 316.21875 321.449219 C 315.882812 322.878906 315.5625 324.242188 315.3125 325.882812 C 315.242188 326.269531 315.078125 326.359375 314.730469 326.417969 C 314.335938 326.421875 314.113281 326.421875 313.746094 326.292969 C 310.679688 326.28125 309.679688 327.851562 310.210938 330.589844 C 310.195312 330.578125 310.21875 330.542969 310.21875 330.542969 Z M 310.21875 330.542969 "/>
<path style=" stroke:none;fill-rule:nonzero;fill:rgb(24.313726%,24.313726%,24.313726%);fill-opacity:1;" d="M 394.207031 331.199219 C 394.742188 329.320312 395.273438 327.441406 395.804688 325.5625 C 392.335938 324.964844 392.3125 324.878906 394.34375 321.527344 C 396.980469 321.527344 399.398438 321.527344 402.125 321.527344 C 402.238281 322.558594 405.617188 324.140625 401.722656 325.671875 C 401.507812 325.753906 401.824219 327.226562 401.917969 328.050781 C 402.058594 329.25 402.226562 330.441406 402.1875 331.425781 C 401.652344 326.257812 397.394531 330.402344 396.273438 328.515625 C 395.453125 329.582031 394.828125 330.390625 394.207031 331.199219 M 398.140625 325.378906 C 397.910156 325.617188 397.675781 325.855469 397.441406 326.089844 C 397.800781 326.164062 398.164062 326.234375 398.523438 326.304688 C 398.523438 326.019531 398.519531 325.738281 398.140625 325.378906 Z M 398.140625 325.378906 "/>
<path style=" stroke:none;fill-rule:nonzero;fill:rgb(20.392157%,20.392157%,20.392157%);fill-opacity:1;" d="M 381.847656 331.804688 C 380.625 331.199219 380.101562 330.492188 380.292969 328.875 C 381.03125 322.589844 380.925781 322.578125 382.289062 321.851562 C 384.722656 321.757812 387.15625 321.664062 389.820312 321.855469 C 390.078125 322.523438 390.101562 322.910156 390.125 323.296875 C 389.933594 323.644531 389.742188 323.988281 389.289062 324.597656 C 389.851562 326.335938 388.886719 326.5 387.789062 326.511719 C 385.976562 326.535156 384.273438 326.363281 384.363281 329.183594 C 384.390625 330.03125 382.730469 330.929688 381.847656 331.804688 Z M 381.847656 331.804688 "/>
<path style=" stroke:none;fill-rule:nonzero;fill:rgb(20.392157%,20.392157%,20.392157%);fill-opacity:1;" d="M 372.289062 330.066406 C 370.109375 331.863281 368.902344 330.816406 368.15625 328.609375 C 367.324219 326.152344 369.292969 322.953125 372.0625 322.199219 C 374.867188 321.433594 377.566406 322.960938 378.324219 325.738281 C 379.035156 328.34375 377.433594 331.042969 374.753906 331.636719 C 374.355469 331.722656 373.867188 331.40625 373.410156 330.945312 C 377.367188 328.050781 377.742188 326.199219 374.585938 324.066406 C 373.8125 326.085938 373.050781 328.074219 372.289062 330.066406 M 370.648438 324.960938 C 370.328125 326.082031 370.011719 327.207031 369.691406 328.328125 C 370.140625 328.457031 370.585938 328.589844 371.035156 328.71875 C 371.460938 327.40625 371.886719 326.09375 372.316406 324.777344 C 371.859375 324.738281 371.402344 324.699219 370.648438 324.960938 Z M 370.648438 324.960938 "/>
<path style=" stroke:none;fill-rule:nonzero;fill:rgb(20.392157%,20.392157%,20.392157%);fill-opacity:1;" d="M 439.363281 326.078125 C 437.679688 328 436.164062 329.816406 434.414062 331.375 C 433.90625 331.824219 432.734375 331.523438 431.433594 331.585938 C 433.960938 329.238281 435.90625 327.433594 437.847656 325.625 C 437.550781 325.171875 437.25 324.714844 436.953125 324.261719 C 434.953125 325.238281 432.957031 326.21875 430.960938 327.195312 C 430.816406 327.007812 430.671875 326.820312 430.527344 326.632812 C 431.988281 324.773438 433.445312 322.910156 434.65625 321.367188 C 436.269531 321.914062 437.554688 322.371094 438.851562 322.785156 C 440.988281 323.460938 439.808594 324.742188 439.363281 326.078125 Z M 439.363281 326.078125 "/>
<path style=" stroke:none;fill-rule:nonzero;fill:rgb(20.392157%,20.392157%,20.392157%);fill-opacity:1;" d="M 362.1875 326.976562 C 361.832031 326.835938 361.476562 326.695312 360.703125 326.542969 C 359.984375 327.816406 359.683594 329.101562 359.382812 330.390625 C 358.722656 331.015625 358.0625 331.640625 357.035156 332.617188 C 356.832031 330.648438 356.675781 329.113281 356.851562 327.574219 C 357.289062 327.167969 357.394531 326.773438 357.5 326.382812 C 357.1875 324.808594 356.878906 323.230469 356.453125 321.089844 C 359.359375 321.089844 361.710938 320.988281 364.039062 321.175781 C 364.523438 321.214844 364.917969 322.332031 365.191406 323.285156 C 365.101562 323.929688 365.171875 324.242188 365.246094 324.554688 C 365.273438 324.839844 365.304688 325.121094 365.039062 325.652344 C 364.183594 326.683594 363.621094 327.46875 363.03125 328.230469 C 363.007812 328.210938 362.953125 328.164062 362.957031 328.007812 C 362.699219 327.558594 362.445312 327.265625 362.1875 326.976562 M 359.859375 325.226562 C 359.601562 324.320312 359.347656 323.414062 359.089844 322.507812 C 358.710938 322.675781 358.332031 322.84375 357.949219 323.007812 C 358.492188 323.851562 359.03125 324.691406 359.859375 325.226562 Z M 359.859375 325.226562 "/>
<path style=" stroke:none;fill-rule:nonzero;fill:rgb(20.392157%,20.392157%,20.392157%);fill-opacity:1;" d="M 497.742188 287.40625 C 497.945312 288.34375 498.234375 289.75 498.109375 289.789062 C 497.050781 290.105469 495.917969 290.175781 494.476562 290.363281 C 493.917969 290.847656 492.992188 291.648438 492.070312 292.449219 C 490.828125 290.960938 489.582031 289.46875 488.339844 287.976562 C 488.488281 287.683594 488.636719 287.390625 488.789062 287.097656 C 490.121094 287.097656 491.453125 287.097656 492.632812 287.097656 C 493.265625 286.40625 494.253906 284.78125 494.71875 284.917969 C 495.824219 285.25 496.679688 286.414062 497.742188 287.40625 M 493.558594 287.765625 C 493.390625 288.113281 493.222656 288.464844 493.050781 288.816406 C 493.34375 288.933594 493.632812 289.050781 493.921875 289.167969 C 494.003906 288.847656 494.089844 288.523438 493.558594 287.765625 Z M 493.558594 287.765625 "/>
<path style=" stroke:none;fill-rule:nonzero;fill:rgb(24.313726%,24.313726%,24.313726%);fill-opacity:1;" d="M 427.222656 324.777344 C 428.785156 328.097656 425.929688 329.332031 424.140625 330.894531 C 423.410156 331.53125 422.03125 331.421875 420.949219 331.652344 C 420.890625 331.359375 420.828125 331.070312 420.769531 330.777344 C 422.203125 329.746094 423.640625 328.710938 425.71875 327.214844 C 422.765625 326.519531 420.730469 326.039062 418.96875 325.265625 C 421.898438 324.90625 424.5625 324.84375 427.222656 324.777344 Z M 427.222656 324.777344 "/>
<path style=" stroke:none;fill-rule:nonzero;fill:rgb(24.313726%,24.313726%,24.313726%);fill-opacity:1;" d="M 445.878906 328.492188 C 445.476562 329.640625 445.078125 330.792969 444.621094 332.101562 C 442.179688 329.554688 442.527344 322.980469 444.890625 321.730469 C 445.21875 323.769531 445.554688 325.808594 445.90625 328.132812 C 445.925781 328.414062 445.878906 328.492188 445.878906 328.492188 Z M 445.878906 328.492188 "/>
<path style=" stroke:none;fill-rule:nonzero;fill:rgb(24.313726%,24.313726%,24.313726%);fill-opacity:1;" d="M 352.996094 324.054688 C 353.195312 326.628906 353.398438 329.199219 353.609375 331.894531 C 351.753906 331.894531 350.023438 331.894531 348.183594 331.792969 C 348.070312 331.691406 348.128906 331.578125 348.320312 331.457031 C 349.28125 330.757812 350.046875 330.175781 350.261719 330.015625 C 349.828125 328.289062 349.515625 327.042969 349.421875 325.796875 C 350.761719 325.210938 351.878906 324.632812 352.996094 324.054688 Z M 352.996094 324.054688 "/>
<path style=" stroke:none;fill-rule:nonzero;fill:rgb(43.137255%,61.176473%,82.352942%);fill-opacity:1;" d="M 381.921875 331.957031 C 382.730469 330.929688 384.390625 330.03125 384.363281 329.183594 C 384.273438 326.363281 385.976562 326.535156 387.789062 326.511719 C 388.886719 326.5 389.851562 326.335938 389.199219 324.78125 C 389.949219 325.5 390.75 326.222656 391.042969 327.113281 C 391.367188 328.085938 391.382812 329.242188 391.214844 330.265625 C 391.128906 330.78125 390.339844 331.183594 389.542969 331.46875 C 389.363281 330.292969 389.511719 329.289062 389.746094 327.695312 C 388.542969 327.75 387.058594 327.820312 385.570312 327.890625 C 385.40625 328.117188 385.238281 328.34375 385.074219 328.570312 C 388.214844 329.453125 386.570312 330.578125 385.757812 331.660156 C 384.503906 331.808594 383.253906 331.957031 381.921875 331.957031 Z M 381.921875 331.957031 "/>
<path style=" stroke:none;fill-rule:nonzero;fill:rgb(43.137255%,61.176473%,82.352942%);fill-opacity:1;" d="M 427.269531 324.53125 C 424.5625 324.84375 421.898438 324.90625 419.003906 325.023438 C 419.28125 323.886719 419.558594 321.910156 420.359375 321.667969 C 422.179688 321.121094 424.285156 321.230469 426.207031 321.519531 C 426.703125 321.59375 426.953125 323.320312 427.269531 324.53125 Z M 427.269531 324.53125 "/>
<path style=" stroke:none;fill-rule:nonzero;fill:rgb(20.392157%,20.392157%,20.392157%);fill-opacity:1;" d="M 353.234375 323.945312 C 351.878906 324.632812 350.761719 325.210938 349.21875 325.792969 C 348.519531 325.796875 348.246094 325.796875 347.972656 325.796875 C 346.664062 324.949219 345.359375 324.101562 343.941406 323.082031 C 343.835938 322.910156 343.855469 322.828125 344.074219 322.804688 C 344.914062 322.585938 345.523438 322.285156 346.15625 322.214844 C 348.332031 321.96875 350.515625 321.804688 352.699219 321.609375 C 352.957031 322.351562 353.214844 323.09375 353.234375 323.945312 Z M 353.234375 323.945312 "/>
<path style=" stroke:none;fill-rule:nonzero;fill:rgb(20.392157%,20.392157%,20.392157%);fill-opacity:1;" d="M 394.230469 331.445312 C 394.828125 330.390625 395.453125 329.582031 396.273438 328.515625 C 397.394531 330.402344 401.652344 326.257812 401.992188 331.460938 C 399.414062 331.707031 396.832031 331.703125 394.230469 331.445312 Z M 394.230469 331.445312 "/>
<path style=" stroke:none;fill-rule:nonzero;fill:rgb(20.392157%,20.392157%,20.392157%);fill-opacity:1;" d="M 446.101562 328.625 C 445.878906 328.492188 445.925781 328.414062 445.90625 328.429688 C 446.765625 328.574219 447.644531 328.691406 448.519531 328.835938 C 449.605469 329.015625 450.707031 329.148438 451.757812 329.445312 C 452.214844 329.574219 452.5625 330.066406 452.960938 330.394531 C 452.640625 330.714844 452.375 331.183594 451.988281 331.324219 C 449.644531 332.191406 447.382812 331.136719 446.101562 328.625 Z M 446.101562 328.625 "/>
<path style=" stroke:none;fill-rule:nonzero;fill:rgb(43.137255%,61.176473%,82.352942%);fill-opacity:1;" d="M 332.015625 329.066406 C 332.433594 329.707031 332.859375 330.582031 333.484375 331.871094 C 333.691406 330.542969 333.855469 329.503906 334.023438 328.453125 C 334.988281 328.453125 335.90625 328.453125 337.113281 328.453125 C 336.691406 329.324219 336.304688 330.132812 335.769531 331.253906 C 336.523438 331.253906 336.988281 331.253906 337.574219 331.402344 C 336.296875 331.90625 334.820312 332.679688 333.523438 332.445312 C 332.855469 332.324219 332.511719 330.410156 332.015625 329.066406 Z M 332.015625 329.066406 "/>
<path style=" stroke:none;fill-rule:nonzero;fill:rgb(85.882354%,85.490197%,92.156863%);fill-opacity:1;" d="M 372.292969 330.257812 C 373.050781 328.074219 373.8125 326.085938 374.585938 324.066406 C 377.742188 326.199219 377.367188 328.050781 373.230469 330.8125 C 372.808594 330.824219 372.550781 330.636719 372.292969 330.257812 Z M 372.292969 330.257812 "/>
<path style=" stroke:none;fill-rule:nonzero;fill:rgb(20.392157%,20.392157%,20.392157%);fill-opacity:1;" d="M 313.890625 326.417969 C 314.113281 326.421875 314.335938 326.421875 314.757812 326.640625 C 314.941406 327.589844 315.167969 328.441406 314.871094 329.03125 C 314.132812 330.503906 314.691406 330.761719 316.015625 330.585938 C 316.015625 330.585938 316.144531 330.664062 316.179688 330.890625 C 316.246094 331.367188 316.273438 331.621094 316.304688 331.871094 C 314.347656 331.726562 312.136719 333.226562 310.363281 330.757812 C 310.21875 330.542969 310.195312 330.578125 310.4375 330.683594 C 312.859375 330.769531 313.273438 329.976562 311.714844 328.464844 C 312.488281 327.734375 313.1875 327.078125 313.890625 326.417969 Z M 313.890625 326.417969 "/>
<path style=" stroke:none;fill-rule:nonzero;fill:rgb(24.313726%,24.313726%,24.313726%);fill-opacity:1;" d="M 352.644531 321.398438 C 350.515625 321.804688 348.332031 321.96875 346.15625 322.214844 C 345.523438 322.285156 344.914062 322.585938 344.113281 322.816406 C 344.320312 321.734375 344.597656 320.796875 346.300781 321.058594 C 348.355469 321.378906 350.488281 321.171875 352.644531 321.398438 Z M 352.644531 321.398438 "/>
<path style=" stroke:none;fill-rule:nonzero;fill:rgb(20.392157%,20.392157%,20.392157%);fill-opacity:1;" d="M 386.015625 331.71875 C 386.570312 330.578125 388.214844 329.453125 385.074219 328.570312 C 385.238281 328.34375 385.40625 328.117188 385.570312 327.890625 C 387.058594 327.820312 388.542969 327.75 389.746094 327.695312 C 389.511719 329.289062 389.363281 330.292969 389.324219 331.472656 C 388.378906 331.691406 387.328125 331.738281 386.015625 331.71875 Z M 386.015625 331.71875 "/>
<path style=" stroke:none;fill-rule:nonzero;fill:rgb(24.313726%,24.313726%,24.313726%);fill-opacity:1;" d="M 363.058594 328.253906 C 363.621094 327.46875 364.183594 326.683594 364.933594 325.84375 C 365.410156 326.726562 365.699219 327.667969 366.066406 328.871094 C 365.441406 329.011719 364.6875 329.175781 363.976562 329.332031 C 363.730469 330.265625 363.488281 331.183594 363.117188 331.78125 C 363.007812 330.398438 363.035156 329.324219 363.058594 328.253906 Z M 363.058594 328.253906 "/>
<path style=" stroke:none;fill-rule:nonzero;fill:rgb(43.137255%,61.176473%,82.352942%);fill-opacity:1;" d="M 316.023438 330.347656 C 314.691406 330.761719 314.132812 330.503906 314.871094 329.03125 C 315.167969 328.441406 314.941406 327.589844 314.925781 326.636719 C 315.078125 326.359375 315.242188 326.269531 315.5 326.066406 C 315.933594 326.296875 316.546875 326.625 316.535156 326.921875 C 316.480469 327.988281 316.214844 329.042969 316.023438 330.347656 Z M 316.023438 330.347656 "/>
<path style=" stroke:none;fill-rule:nonzero;fill:rgb(24.313726%,24.313726%,24.313726%);fill-opacity:1;" d="M 359.496094 330.230469 C 359.683594 329.101562 359.984375 327.816406 360.519531 326.476562 C 360.371094 327.640625 359.992188 328.855469 359.496094 330.230469 Z M 359.496094 330.230469 "/>
<path style=" stroke:none;fill-rule:nonzero;fill:rgb(20.392157%,20.392157%,20.392157%);fill-opacity:1;" d="M 363.03125 328.230469 C 363.035156 329.324219 363.007812 330.398438 362.957031 331.738281 C 362.605469 331.082031 362.273438 330.15625 362.128906 328.921875 C 362.523438 328.464844 362.738281 328.316406 362.953125 328.164062 C 362.953125 328.164062 363.007812 328.210938 363.03125 328.230469 Z M 363.03125 328.230469 "/>
<path style=" stroke:none;fill-rule:nonzero;fill:rgb(43.137255%,61.176473%,82.352942%);fill-opacity:1;" d="M 390.285156 323.246094 C 390.101562 322.910156 390.078125 322.523438 390.074219 321.945312 C 390.210938 322.234375 390.328125 322.714844 390.285156 323.246094 Z M 390.285156 323.246094 "/>
<path style=" stroke:none;fill-rule:nonzero;fill:rgb(43.137255%,61.176473%,82.352942%);fill-opacity:1;" d="M 316.390625 331.976562 C 316.273438 331.621094 316.246094 331.367188 316.242188 330.929688 C 316.339844 331.1875 316.40625 331.632812 316.390625 331.976562 Z M 316.390625 331.976562 "/>
<path style=" stroke:none;fill-rule:nonzero;fill:rgb(24.313726%,24.313726%,24.313726%);fill-opacity:1;" d="M 362.957031 328.007812 C 362.738281 328.316406 362.523438 328.464844 362.199219 328.691406 C 362.132812 328.320312 362.175781 327.875 362.203125 327.203125 C 362.445312 327.265625 362.699219 327.558594 362.957031 328.007812 Z M 362.957031 328.007812 "/>
<path style=" stroke:none;fill-rule:nonzero;fill:rgb(24.313726%,24.313726%,24.313726%);fill-opacity:1;" d="M 357.425781 326.59375 C 357.394531 326.773438 357.289062 327.167969 357.011719 327.546875 C 357.011719 327.292969 357.183594 327.046875 357.425781 326.59375 Z M 357.425781 326.59375 "/>
<path style=" stroke:none;fill-rule:nonzero;fill:rgb(24.313726%,24.313726%,24.313726%);fill-opacity:1;" d="M 365.316406 324.457031 C 365.171875 324.242188 365.101562 323.929688 365.136719 323.53125 C 365.292969 323.753906 365.339844 324.054688 365.316406 324.457031 Z M 365.316406 324.457031 "/>
<path style=" stroke:none;fill-rule:nonzero;fill:rgb(7.450981%,7.450981%,7.450981%);fill-opacity:1;" d="M 347.976562 326.035156 C 348.246094 325.796875 348.519531 325.796875 348.996094 325.796875 C 349.515625 327.042969 349.828125 328.289062 350.261719 330.015625 C 350.046875 330.175781 349.28125 330.757812 348.351562 331.402344 C 347.5625 330.871094 346.933594 330.28125 346.640625 330.003906 C 347.160156 328.558594 347.570312 327.414062 347.976562 326.035156 Z M 347.976562 326.035156 "/>
<path style=" stroke:none;fill-rule:nonzero;fill:rgb(43.137255%,61.176473%,82.352942%);fill-opacity:1;" d="M 337.417969 326.824219 C 337.496094 326.964844 337.476562 327.214844 337.457031 327.464844 C 337.410156 327.289062 337.363281 327.109375 337.417969 326.824219 Z M 337.417969 326.824219 "/>
<path style=" stroke:none;fill-rule:nonzero;fill:rgb(43.137255%,61.176473%,82.352942%);fill-opacity:1;" d="M 338.257812 324.960938 C 338.246094 325.222656 338.136719 325.363281 338.027344 325.5 C 338.074219 325.28125 338.117188 325.0625 338.257812 324.960938 Z M 338.257812 324.960938 "/>
<path style=" stroke:none;fill-rule:nonzero;fill:rgb(43.137255%,61.176473%,82.352942%);fill-opacity:1;" d="M 313.746094 326.292969 C 313.1875 327.078125 312.488281 327.734375 311.714844 328.464844 C 313.273438 329.976562 312.859375 330.769531 310.453125 330.699219 C 309.679688 327.851562 310.679688 326.28125 313.746094 326.292969 Z M 313.746094 326.292969 "/>
<path style=" stroke:none;fill-rule:nonzero;fill:rgb(43.137255%,61.176473%,82.352942%);fill-opacity:1;" d="M 398.328125 325.417969 C 398.519531 325.738281 398.523438 326.019531 398.523438 326.304688 C 398.164062 326.234375 397.800781 326.164062 397.441406 326.089844 C 397.675781 325.855469 397.910156 325.617188 398.328125 325.417969 Z M 398.328125 325.417969 "/>
<path style=" stroke:none;fill-rule:nonzero;fill:rgb(85.882354%,85.490197%,92.156863%);fill-opacity:1;" d="M 370.796875 324.8125 C 371.402344 324.699219 371.859375 324.738281 372.316406 324.777344 C 371.886719 326.09375 371.460938 327.40625 371.035156 328.71875 C 370.585938 328.589844 370.140625 328.457031 369.691406 328.328125 C 370.011719 327.207031 370.328125 326.082031 370.796875 324.8125 Z M 370.796875 324.8125 "/>
<path style=" stroke:none;fill-rule:nonzero;fill:rgb(24.313726%,24.313726%,24.313726%);fill-opacity:1;" d="M 359.714844 325.378906 C 359.03125 324.691406 358.492188 323.851562 357.949219 323.007812 C 358.332031 322.84375 358.710938 322.675781 359.089844 322.507812 C 359.347656 323.414062 359.601562 324.320312 359.714844 325.378906 Z M 359.714844 325.378906 "/>
<path style=" stroke:none;fill-rule:nonzero;fill:rgb(100%,100%,100%);fill-opacity:1;" d="M 493.867188 287.980469 C 494.089844 288.523438 494.003906 288.847656 493.921875 289.167969 C 493.632812 289.050781 493.34375 288.933594 493.050781 288.816406 C 493.222656 288.464844 493.390625 288.113281 493.867188 287.980469 Z M 493.867188 287.980469 "/>
</g>
</svg>
