<svg version="1.1" id="Layer_1" xmlns="http://www.w3.org/2000/svg" xmlns:xlink="http://www.w3.org/1999/xlink" x="0px" y="0px"
	 width="149" height="37" viewBox="0 0 1000 1000" enable-background="new 0 0 1000 1000" xml:space="preserve">
<path fill="#FFFFFF" opacity="1.000000" stroke="none"
	d="
M553.000000,1001.000000
	C368.666656,1001.000000 184.833328,1001.000000 1.000000,1001.000000
	C1.000000,667.666687 1.000000,334.333344 1.000000,1.000000
	C334.333344,1.000000 667.666687,1.000000 1001.000000,1.000000
	C1001.000000,334.333344 1001.000000,667.666687 1001.000000,1001.000000
	C851.833313,1001.000000 702.666687,1001.000000 553.000000,1001.000000
M603.242920,548.716248
	C603.792053,550.259583 604.341187,551.802917 605.415344,553.495605
	C605.816467,551.969543 606.217590,550.443481 606.626648,548.887085
	C607.812317,548.626465 609.066528,548.350708 610.112549,548.120789
	C609.498474,546.111084 609.019165,544.542236 608.884460,542.343201
	C608.838196,541.871155 608.791931,541.399170 608.972290,540.597412
	C608.898132,540.091980 608.823975,539.586609 608.926453,538.257935
	C608.199524,537.222717 607.539429,535.358093 606.734253,535.293213
	C602.853821,534.980225 598.934387,535.152283 594.091431,535.152283
	C594.795227,538.720276 595.312866,541.344788 595.586914,544.672424
	C595.303162,545.078857 595.019409,545.485352 594.195007,545.970337
	C594.457458,548.524170 594.719971,551.077942 595.057678,554.364502
	C596.773010,552.736572 597.871826,551.693726 599.350403,550.122620
	C599.985229,548.094238 600.620117,546.065857 601.864563,544.256653
	C602.458435,544.491455 603.052246,544.726318 603.702209,545.716675
	C603.628845,546.457825 603.555420,547.198914 603.242920,548.716248
M526.904907,551.105713
	C526.904907,551.105713 526.689880,550.978088 526.715881,550.175232
	C527.024475,548.408081 527.466980,546.647522 527.555359,544.869446
	C527.579956,544.373413 526.557861,543.825439 525.400391,542.681824
	C525.935608,540.405212 526.470886,538.128601 527.030762,535.747131
	C522.261169,535.402710 517.876770,534.815613 513.511169,534.932800
	C512.171021,534.968750 509.815399,536.873718 509.751587,538.024231
	C509.441589,543.612122 507.273163,549.896667 513.694824,553.738403
	C514.824951,552.779114 515.928711,551.842224 517.511475,551.624939
	C520.227783,555.375244 523.911804,552.879211 527.460083,553.468689
	C527.346436,552.723999 527.232788,551.979248 526.904907,551.105713
M573.094238,538.049194
	C573.094238,538.049194 573.058594,538.181580 572.188782,538.523865
	C568.432129,537.677795 564.675537,536.831726 560.107178,535.802856
	C560.180298,535.712463 559.398682,536.678345 558.404236,537.907288
	C557.432922,536.704407 556.650818,535.735840 555.907532,534.815430
	C548.320740,535.987183 551.771423,541.805237 551.222107,545.820984
	C551.135559,546.453857 552.600586,547.299072 553.373291,548.842468
	C554.189453,550.682617 554.759216,553.871399 555.874390,554.075195
	C558.030640,554.469116 560.494385,553.180298 563.581360,553.001343
	C567.276855,553.741089 568.713745,552.000244 568.845398,548.467590
	C568.963196,545.307251 569.363647,542.157410 569.722778,538.049194
	C576.647949,542.986572 570.981750,548.638855 572.547852,552.820068
	C575.275024,552.820068 577.695740,552.820068 580.490234,553.159119
	C583.373901,553.159119 586.257568,553.159119 589.347900,553.159119
	C588.995972,548.667236 588.660034,544.380371 589.122559,539.726257
	C588.692261,538.488708 588.261963,537.251099 587.648865,535.316528
	C584.149963,535.283630 580.592346,535.629883 577.170349,535.100098
	C574.330078,534.660461 573.868103,536.222351 573.094238,538.049194
M643.791870,552.969055
	C645.543945,552.894592 647.295959,552.820129 649.782837,552.727661
	C650.567017,551.971680 651.880859,551.303101 652.023071,550.441162
	C652.304626,548.735291 652.277710,546.810425 651.740601,545.187073
	C651.249878,543.704224 649.916931,542.500122 649.253906,540.560974
	C649.571594,539.982849 649.889221,539.404724 650.742493,538.664490
	C650.548096,537.860291 650.353638,537.056030 649.317261,535.955566
	C645.261963,536.109558 641.206726,536.263550 637.151428,536.417542
	C634.878418,537.629089 635.052673,537.649597 633.820007,548.121948
	C633.502136,550.822693 634.377563,551.998901 636.666626,553.511169
	C638.754822,553.262573 640.843079,553.014038 643.791870,552.969055
M743.143250,546.411316
	C742.588501,543.014648 742.033691,539.617981 741.486511,536.219849
	C737.545959,538.298035 736.964844,549.260132 741.037292,553.501953
	C741.795654,551.320496 742.462280,549.402771 743.876343,547.929504
	C745.641113,551.896667 749.404541,553.651855 753.312561,552.209534
	C753.955872,551.972107 754.397949,551.189331 754.933044,550.658630
	C754.271423,550.112488 753.688171,549.289612 752.932495,549.075806
	C751.177124,548.579163 749.341431,548.359070 747.532837,548.059937
	C746.073975,547.818665 744.607117,547.625916 743.143250,546.411316
M712.188110,540.479309
	C711.585754,538.866943 711.173035,535.989380 710.347656,535.865784
	C707.141907,535.385376 703.631165,535.202393 700.596924,536.115295
	C699.263550,536.516541 698.801392,539.813354 697.829224,542.598816
	C701.218811,543.397461 704.608398,544.196106 709.532288,545.356323
	C706.066956,547.850891 703.673401,549.573914 701.279907,551.296936
	C701.380493,551.782776 701.481140,552.268555 701.581787,552.754333
	C703.387146,552.369995 705.684021,552.549683 706.900635,551.489624
	C709.885376,548.888794 714.642395,546.826721 712.188110,540.479309
M620.491577,550.746521
	C620.918152,551.061462 621.344727,551.376404 622.367065,552.126282
	C623.112732,552.342590 623.927185,552.871277 624.592896,552.724731
	C629.057556,551.741272 631.726196,547.238281 630.540955,542.898987
	C629.276794,538.270874 624.775452,535.725037 620.107361,536.998047
	C615.486023,538.258301 612.204895,543.585022 613.592529,547.684631
	C614.837646,551.363281 616.845825,553.104126 620.491577,550.746521
M657.086731,552.826172
	C661.387329,552.836670 665.687866,552.847168 670.633057,552.731689
	C670.375183,550.738525 670.099487,548.747375 669.865356,546.751404
	C669.704529,545.379883 669.178528,542.926147 669.535400,542.785889
	C676.030579,540.231628 670.397827,537.596863 670.206543,535.877808
	C665.662842,535.877808 661.634766,535.877808 657.238403,535.877808
	C653.855469,541.463196 653.896484,541.608337 659.679565,542.601624
	C658.790588,545.733154 657.901672,548.864624 657.086731,552.826172
M413.499939,532.014526
	C389.695557,532.014282 365.890015,532.138428 342.087799,531.911804
	C337.156189,531.864868 335.900269,533.540283 335.930420,538.245117
	C336.112610,566.709351 336.022003,595.175415 336.021637,623.640808
	C336.021515,632.705688 336.023163,632.721069 344.762177,631.040527
	C346.708740,630.666199 348.669159,630.274109 350.550903,629.666321
	C372.588684,622.547607 391.638763,610.923096 407.206268,593.474304
	C421.906036,576.998230 431.431427,558.135071 436.352814,536.711975
	C437.280273,532.674805 435.772736,531.982239 432.477875,532.004517
	C426.485443,532.044983 420.492523,532.015137 413.499939,532.014526
M265.038300,396.667816
	C252.697693,401.964386 241.583817,409.169769 231.625381,418.166443
	C209.683975,437.988800 196.445694,462.610046 191.650406,491.691803
	C189.649979,503.823792 189.483017,516.073120 191.405823,526.928955
	C237.818802,480.566711 284.638062,433.798615 331.153534,387.333954
	C309.159515,384.521423 286.998871,387.028137 265.038300,396.667816
M404.500000,488.959503
	C415.113892,488.959503 425.727814,488.959503 436.364075,488.959503
	C434.958740,463.190094 412.065735,422.140289 378.343903,404.157349
	C350.549347,431.888580 322.638000,459.736359 294.726624,487.584106
	C295.042908,488.042542 295.359192,488.500977 295.675476,488.959412
	C331.616974,488.959412 367.558502,488.959412 404.500000,488.959503
M290.668274,632.798096
	C291.458191,631.479004 292.932190,630.162720 292.937653,628.840393
	C293.065399,598.028198 292.996033,567.215210 293.088898,536.402771
	C293.098572,533.200073 292.199432,531.996887 288.860077,532.041809
	C277.036804,532.200989 265.208740,532.014771 253.386063,532.194275
	C251.573090,532.221802 249.306000,533.007812 248.049011,534.251526
	C235.266235,546.899292 222.608719,559.675232 210.077148,572.571716
	C209.234970,573.438477 209.009613,575.989319 209.656219,577.051208
	C216.641922,588.523438 225.700455,598.256958 235.960815,606.827881
	C251.708923,619.983032 269.843872,628.311340 290.668274,632.798096
M765.731140,491.867798
	C763.347412,505.402374 754.362671,512.256470 741.597778,515.096008
	C745.281128,522.066589 746.018677,522.395813 752.318176,519.970154
	C753.552063,519.495056 754.726135,518.854248 755.901672,518.239746
	C767.438721,512.208557 772.166565,501.775116 774.574646,489.712891
	C775.685486,484.148499 774.072083,482.105988 768.380310,482.388458
	C764.617371,482.575256 760.837708,482.423859 756.643677,482.423859
	C756.643677,479.099030 756.643677,476.219482 756.643677,473.404297
	C753.649170,473.404297 751.095764,473.404297 748.413696,473.404297
	C748.413696,476.557159 748.413696,479.299438 748.413696,482.559753
	C742.568542,482.559753 737.014282,482.559753 731.442200,482.559753
	C731.442200,489.133850 731.442200,495.178711 731.442200,501.449188
	C733.754761,501.449188 737.243835,501.895569 737.393433,501.377533
	C738.449890,497.719360 738.820374,493.863098 739.505981,489.450989
	C747.685669,489.450989 756.122986,489.430756 764.559265,489.512177
	C764.971069,489.516144 765.374207,490.410797 765.731140,491.867798
M662.028992,487.267792
	C663.281433,483.308594 660.778992,480.773102 655.918762,480.885498
	C651.551270,480.986511 647.179688,480.906799 642.335938,480.906799
	C643.355774,478.690826 644.080078,477.116882 645.038025,475.035309
	C642.211853,474.156616 639.783142,473.401520 637.158264,472.585419
	C633.218445,482.886322 626.379089,490.339111 617.614685,496.154968
	C623.291077,501.618073 623.305664,501.634949 628.406616,497.233978
	C629.914490,495.932983 631.678833,494.735260 632.702637,493.100098
	C637.728333,485.073944 645.180542,488.103943 652.927856,487.901306
	C648.087830,503.474396 637.376831,511.654785 623.376343,516.475403
	C628.850769,522.959961 628.878235,523.015076 635.554932,519.689148
	C648.987366,512.997986 657.263916,502.017212 662.028992,487.267792
M466.706696,521.375854
	C473.158325,519.146179 476.966003,514.006653 479.592529,508.290619
	C482.045715,502.951843 483.310913,497.067169 485.294464,490.805603
	C489.080994,490.805603 493.309998,490.805603 497.447540,490.805603
	C497.447540,488.032104 497.447540,485.806854 497.447540,483.406433
	C487.790802,483.406433 478.544220,483.406433 468.705231,483.406433
	C469.487823,480.388641 470.160126,477.796112 470.919891,474.866302
	C468.010315,474.378296 465.477631,473.953522 462.944946,473.528717
	C463.294617,473.942719 463.644287,474.356689 463.993927,474.770660
	C459.390411,482.818054 454.786896,490.865448 450.037781,499.167328
	C451.516144,500.019653 453.608032,501.225739 455.918213,502.557648
	C461.451050,496.568726 464.698547,486.851654 475.921600,491.924957
	C475.447327,502.945801 469.925995,510.998932 459.888153,516.943420
	C462.291229,518.568237 464.182800,519.847229 466.706696,521.375854
M804.251038,487.358032
	C804.251038,483.562164 804.251038,479.766327 804.251038,475.615997
	C801.588989,475.615997 799.049500,475.615997 796.279419,475.615997
	C796.279419,491.084229 796.279419,506.316284 796.279419,521.780151
	C799.096130,521.780151 801.664001,521.780151 804.625122,521.780151
	C804.625122,514.156677 804.625122,506.787292 804.625122,498.551666
	C811.620178,501.357117 817.981934,503.908600 824.638611,506.578369
	C825.629761,503.667023 826.448914,501.260864 827.375854,498.538177
	C820.543762,496.049713 814.267578,493.876343 808.097900,491.433838
	C806.635864,490.855042 805.531189,489.373505 804.251038,487.358032
M508.705719,501.767578
	C510.639313,501.785065 512.739197,502.301483 514.474304,501.723389
	C519.066040,500.193573 523.499939,498.189941 528.774780,496.060791
	C528.774780,505.077087 528.774780,513.104919 528.774780,521.040649
	C531.752869,521.040649 534.189941,521.040649 536.784302,521.040649
	C536.784302,512.482300 536.975830,504.193237 536.695618,495.920166
	C536.573425,492.310974 537.854187,490.152100 540.716797,488.138550
	C544.441162,485.518890 547.787048,482.361145 551.575195,479.201996
	C549.312378,477.102356 547.644043,475.554291 545.629028,473.684509
	C534.941284,485.800049 521.241699,492.434052 505.597839,496.386505
	C506.739777,498.417786 507.533234,499.829224 508.705719,501.767578
M708.326599,511.824036
	C711.606873,506.509003 715.154907,501.335907 718.073669,495.829193
	C720.029236,492.139648 718.105286,489.433685 713.833923,489.396576
	C701.570007,489.290009 689.304565,489.358978 676.865845,489.358978
	C676.865845,492.081390 676.865845,494.246826 676.865845,496.730896
	C687.723572,496.730896 698.127991,496.730896 709.343262,496.730896
	C705.275757,508.673676 695.310547,512.269653 685.398865,515.848816
	C689.858887,522.532898 690.289307,522.864685 696.633240,519.632874
	C700.582581,517.620850 704.106079,514.772705 708.326599,511.824036
M586.499878,489.656097
	C579.434448,489.656097 572.369080,489.656097 565.363037,489.656097
	C565.363037,492.300415 565.363037,494.215485 565.363037,496.794739
	C576.299011,496.794739 586.939026,496.794739 598.190735,496.794739
	C593.757080,508.613373 584.117859,512.440918 574.087952,515.725708
	C578.644470,522.602234 578.837524,522.710938 585.661865,519.571228
	C595.998718,514.815430 603.109192,507.155975 606.712524,496.242340
	C608.243408,491.605865 606.902649,489.392822 601.957397,489.418518
	C597.137756,489.443573 592.318665,489.572693 586.499878,489.656097
M570.948242,482.805817
	C581.794556,482.805817 592.640808,482.805817 603.831238,482.805817
	C603.709412,480.213440 603.613831,478.180206 603.522095,476.228546
	C592.101257,476.228546 581.366211,476.228546 570.156738,476.228546
	C570.254578,478.421906 570.340698,480.351074 570.948242,482.805817
M690.597412,483.030121
	C698.648499,483.030121 706.699646,483.030121 714.721924,483.030121
	C714.721924,480.278198 714.721924,478.364624 714.721924,476.326111
	C703.548157,476.326111 692.693054,476.326111 681.904907,476.326111
	C680.693604,482.809601 680.918945,483.108032 686.647827,483.047638
	C687.645020,483.037109 688.642273,483.036316 690.597412,483.030121
M546.326843,547.220093
	C546.535339,544.562561 546.743835,541.905029 547.019104,538.395935
	C543.322937,533.734009 535.928406,533.850525 532.251587,538.442139
	C532.481750,542.731750 533.144409,546.043091 532.717957,549.207764
	C532.042542,554.220764 534.463196,552.825562 537.118591,551.904968
	C538.380188,551.467529 540.307739,550.734314 541.023743,551.295654
	C546.079529,555.259094 546.325745,551.968506 546.326843,547.220093
M681.154602,552.412720
	C684.647827,553.782959 688.045410,554.326294 691.094788,552.105286
	C689.410278,550.049438 688.166626,548.531555 686.922974,547.013672
	C688.750305,545.583496 690.577698,544.153381 692.242126,542.850769
	C690.846619,540.924805 689.632385,539.249023 687.667419,536.537231
	C684.698181,536.750122 680.680664,537.038208 675.289307,537.424805
	C677.394226,539.756409 678.199646,540.648621 679.045166,541.585266
	C677.954834,543.109131 677.023132,544.411316 675.274475,546.855286
	C681.436584,545.296387 678.760803,550.189270 681.154602,552.412720
M732.395447,543.132080
	C733.011230,541.236816 734.983276,539.104248 731.421021,537.974060
	C729.255005,537.286926 727.113647,536.522156 724.428406,535.611511
	C722.408569,538.186707 719.977600,541.286072 717.546631,544.385498
	C717.786438,544.699524 718.026245,545.013550 718.265991,545.327576
	C721.595154,543.696899 724.924316,542.066284 728.253540,540.435608
	C728.751587,541.193909 729.249634,541.952209 729.747681,542.710449
	C726.509338,545.719727 723.270996,548.729004 719.058411,552.643555
	C721.222656,552.536926 723.179993,553.039978 724.023010,552.290161
	C726.939758,549.695862 729.468628,546.665527 732.395447,543.132080
M829.388489,478.737000
	C827.796814,477.357635 826.373291,475.415649 824.533752,474.866028
	C823.759460,474.634674 822.106628,477.343933 821.057251,478.492981
	C819.089966,478.492981 816.868530,478.492981 814.647095,478.492981
	C814.397705,478.982178 814.148376,479.471405 813.898987,479.960602
	C815.971619,482.446350 818.044250,484.932068 820.116821,487.417847
	C821.656494,486.083038 823.196106,484.748230 824.127747,483.940552
	C826.527954,483.628113 828.417480,483.511993 830.181458,482.979767
	C830.390076,482.916870 829.910950,480.574341 829.388489,478.737000
z"/>
<path fill="#DBDAEB" opacity="1.000000" stroke="none"
	d="
M413.999878,532.014526
	C420.492523,532.015137 426.485443,532.044983 432.477875,532.004517
	C435.772736,531.982239 437.280273,532.674805 436.352814,536.711975
	C431.431427,558.135071 421.906036,576.998230 407.206268,593.474304
	C391.638763,610.923096 372.588684,622.547607 350.550903,629.666321
	C348.669159,630.274109 346.708740,630.666199 344.762177,631.040527
	C336.023163,632.721069 336.021515,632.705688 336.021637,623.640808
	C336.022003,595.175415 336.112610,566.709351 335.930420,538.245117
	C335.900269,533.540283 337.156189,531.864868 342.087799,531.911804
	C365.890015,532.138428 389.695557,532.014282 413.999878,532.014526
z"/>
<path fill="#6E9CD2" opacity="1.000000" stroke="none"
	d="
M265.386383,396.510406
	C286.998871,387.028137 309.159515,384.521423 331.153534,387.333954
	C284.638062,433.798615 237.818802,480.566711 191.405823,526.928955
	C189.483017,516.073120 189.649979,503.823792 191.650406,491.691803
	C196.445694,462.610046 209.683975,437.988800 231.625381,418.166443
	C241.583817,409.169769 252.697693,401.964386 265.386383,396.510406
z"/>
<path fill="#80CCE7" opacity="1.000000" stroke="none"
	d="
M404.000000,488.959473
	C367.558502,488.959412 331.616974,488.959412 295.675476,488.959412
	C295.359192,488.500977 295.042908,488.042542 294.726624,487.584106
	C322.638000,459.736359 350.549347,431.888580 378.343903,404.157349
	C412.065735,422.140289 434.958740,463.190094 436.364075,488.959503
	C425.727814,488.959503 415.113892,488.959503 404.000000,488.959473
z"/>
<path fill="#80CCE7" opacity="1.000000" stroke="none"
	d="
M290.255310,632.740723
	C269.843872,628.311340 251.708923,619.983032 235.960815,606.827881
	C225.700455,598.256958 216.641922,588.523438 209.656219,577.051208
	C209.009613,575.989319 209.234970,573.438477 210.077148,572.571716
	C222.608719,559.675232 235.266235,546.899292 248.049011,534.251526
	C249.306000,533.007812 251.573090,532.221802 253.386063,532.194275
	C265.208740,532.014771 277.036804,532.200989 288.860077,532.041809
	C292.199432,531.996887 293.098572,533.200073 293.088898,536.402771
	C292.996033,567.215210 293.065399,598.028198 292.937653,628.840393
	C292.932190,630.162720 291.458191,631.479004 290.255310,632.740723
z"/>
<path fill="#131313" opacity="1.000000" stroke="none"
	d="
M765.756226,491.379242
	C765.374207,490.410797 764.971069,489.516144 764.559265,489.512177
	C756.122986,489.430756 747.685669,489.450989 739.505981,489.450989
	C738.820374,493.863098 738.449890,497.719360 737.393433,501.377533
	C737.243835,501.895569 733.754761,501.449188 731.442200,501.449188
	C731.442200,495.178711 731.442200,489.133850 731.442200,482.559753
	C737.014282,482.559753 742.568542,482.559753 748.413696,482.559753
	C748.413696,479.299438 748.413696,476.557159 748.413696,473.404297
	C751.095764,473.404297 753.649170,473.404297 756.643677,473.404297
	C756.643677,476.219482 756.643677,479.099030 756.643677,482.423859
	C760.837708,482.423859 764.617371,482.575256 768.380310,482.388458
	C774.072083,482.105988 775.685486,484.148499 774.574646,489.712891
	C772.166565,501.775116 767.438721,512.208557 755.901672,518.239746
	C754.726135,518.854248 753.552063,519.495056 752.318176,519.970154
	C746.018677,522.395813 745.281128,522.066589 741.597778,515.096008
	C754.362671,512.256470 763.347412,505.402374 765.756226,491.379242
z"/>
<path fill="#131313" opacity="1.000000" stroke="none"
	d="
M661.890930,487.598877
	C657.263916,502.017212 648.987366,512.997986 635.554932,519.689148
	C628.878235,523.015076 628.850769,522.959961 623.376343,516.475403
	C637.376831,511.654785 648.087830,503.474396 652.927856,487.901306
	C645.180542,488.103943 637.728333,485.073944 632.702637,493.100098
	C631.678833,494.735260 629.914490,495.932983 628.406616,497.233978
	C623.305664,501.634949 623.291077,501.618073 617.614685,496.154968
	C626.379089,490.339111 633.218445,482.886322 637.158264,472.585419
	C639.783142,473.401520 642.211853,474.156616 645.038025,475.035309
	C644.080078,477.116882 643.355774,478.690826 642.335938,480.906799
	C647.179688,480.906799 651.551270,480.986511 655.918762,480.885498
	C660.778992,480.773102 663.281433,483.308594 661.890930,487.598877
z"/>
<path fill="#131313" opacity="1.000000" stroke="none"
	d="
M466.390564,521.251038
	C464.182800,519.847229 462.291229,518.568237 459.888153,516.943420
	C469.925995,510.998932 475.447327,502.945801 475.921600,491.924957
	C464.698547,486.851654 461.451050,496.568726 455.918213,502.557648
	C453.608032,501.225739 451.516144,500.019653 450.037781,499.167328
	C454.786896,490.865448 459.390411,482.818054 463.993927,474.770660
	C463.644287,474.356689 463.294617,473.942719 462.944946,473.528717
	C465.477631,473.953522 468.010315,474.378296 470.919891,474.866302
	C470.160126,477.796112 469.487823,480.388641 468.705231,483.406433
	C478.544220,483.406433 487.790802,483.406433 497.447540,483.406433
	C497.447540,485.806854 497.447540,488.032104 497.447540,490.805603
	C493.309998,490.805603 489.080994,490.805603 485.294464,490.805603
	C483.310913,497.067169 482.045715,502.951843 479.592529,508.290619
	C476.966003,514.006653 473.158325,519.146179 466.390564,521.251038
z"/>
<path fill="#131313" opacity="1.000000" stroke="none"
	d="
M804.256592,487.832611
	C805.531189,489.373505 806.635864,490.855042 808.097900,491.433838
	C814.267578,493.876343 820.543762,496.049713 827.375854,498.538177
	C826.448914,501.260864 825.629761,503.667023 824.638611,506.578369
	C817.981934,503.908600 811.620178,501.357117 804.625122,498.551666
	C804.625122,506.787292 804.625122,514.156677 804.625122,521.780151
	C801.664001,521.780151 799.096130,521.780151 796.279419,521.780151
	C796.279419,506.316284 796.279419,491.084229 796.279419,475.615997
	C799.049500,475.615997 801.588989,475.615997 804.251038,475.615997
	C804.251038,479.766327 804.251038,483.562164 804.256592,487.832611
z"/>
<path fill="#131313" opacity="1.000000" stroke="none"
	d="
M508.516235,501.504089
	C507.533234,499.829224 506.739777,498.417786 505.597839,496.386505
	C521.241699,492.434052 534.941284,485.800049 545.629028,473.684509
	C547.644043,475.554291 549.312378,477.102356 551.575195,479.201996
	C547.787048,482.361145 544.441162,485.518890 540.716797,488.138550
	C537.854187,490.152100 536.573425,492.310974 536.695618,495.920166
	C536.975830,504.193237 536.784302,512.482300 536.784302,521.040649
	C534.189941,521.040649 531.752869,521.040649 528.774780,521.040649
	C528.774780,513.104919 528.774780,505.077087 528.774780,496.060791
	C523.499939,498.189941 519.066040,500.193573 514.474304,501.723389
	C512.739197,502.301483 510.639313,501.785065 508.516235,501.504089
z"/>
<path fill="#131313" opacity="1.000000" stroke="none"
	d="
M708.073608,512.061951
	C704.106079,514.772705 700.582581,517.620850 696.633240,519.632874
	C690.289307,522.864685 689.858887,522.532898 685.398865,515.848816
	C695.310547,512.269653 705.275757,508.673676 709.343262,496.730896
	C698.127991,496.730896 687.723572,496.730896 676.865845,496.730896
	C676.865845,494.246826 676.865845,492.081390 676.865845,489.358978
	C689.304565,489.358978 701.570007,489.290009 713.833923,489.396576
	C718.105286,489.433685 720.029236,492.139648 718.073669,495.829193
	C715.154907,501.335907 711.606873,506.509003 708.073608,512.061951
z"/>
<path fill="#131313" opacity="1.000000" stroke="none"
	d="
M586.999634,489.656128
	C592.318665,489.572693 597.137756,489.443573 601.957397,489.418518
	C606.902649,489.392822 608.243408,491.605865 606.712524,496.242340
	C603.109192,507.155975 595.998718,514.815430 585.661865,519.571228
	C578.837524,522.710938 578.644470,522.602234 574.087952,515.725708
	C584.117859,512.440918 593.757080,508.613373 598.190735,496.794739
	C586.939026,496.794739 576.299011,496.794739 565.363037,496.794739
	C565.363037,494.215485 565.363037,492.300415 565.363037,489.656097
	C572.369080,489.656097 579.434448,489.656097 586.999634,489.656128
z"/>
<path fill="#3E3E3E" opacity="1.000000" stroke="none"
	d="
M580.116455,552.820068
	C577.695740,552.820068 575.275024,552.820068 572.547852,552.820068
	C570.981750,548.638855 576.647949,542.986572 569.722778,538.049194
	C569.363647,542.157410 568.963196,545.307251 568.845398,548.467590
	C568.713745,552.000244 567.276855,553.741089 563.001465,552.544128
	C561.648499,552.086914 560.875366,552.086914 559.612854,552.086914
	C560.508240,550.222900 561.155396,548.875488 561.852661,547.423889
	C559.841187,547.423889 558.312622,547.423889 556.703186,547.423889
	C556.427185,549.173889 556.154053,550.905396 555.804504,553.121460
	C554.764221,550.972107 554.056213,549.509094 553.348145,548.046082
	C552.600586,547.299072 551.135559,546.453857 551.222107,545.820984
	C551.771423,541.805237 548.320740,535.987183 555.907532,534.815430
	C556.650818,535.735840 557.432922,536.704407 558.404236,537.907288
	C559.398682,536.678345 560.180298,535.712463 560.107178,535.802856
	C564.675537,536.831726 568.432129,537.677795 572.803345,538.641113
	C575.595764,540.170105 577.773621,541.581848 579.958252,543.392334
	C579.282898,545.692932 578.600647,547.594849 577.734497,550.009521
	C578.222839,550.468384 579.272583,551.454529 580.269897,552.535034
	C580.217590,552.629395 580.116455,552.820068 580.116455,552.820068
M562.193787,544.887634
	C562.271851,545.184387 562.349976,545.481201 562.428040,545.777954
	C562.462097,545.361328 562.496155,544.944641 562.193787,544.887634
M563.604126,541.400085
	C563.529419,541.767761 563.454712,542.135437 563.379944,542.503113
	C563.562683,542.271729 563.745361,542.040283 563.604126,541.400085
z"/>
<path fill="#131313" opacity="1.000000" stroke="none"
	d="
M570.687500,482.543030
	C570.340698,480.351074 570.254578,478.421906 570.156738,476.228546
	C581.366211,476.228546 592.101257,476.228546 603.522095,476.228546
	C603.613831,478.180206 603.709412,480.213440 603.831238,482.805817
	C592.640808,482.805817 581.794556,482.805817 570.687500,482.543030
z"/>
<path fill="#131313" opacity="1.000000" stroke="none"
	d="
M690.118469,483.030579
	C688.642273,483.036316 687.645020,483.037109 686.647827,483.047638
	C680.918945,483.108032 680.693604,482.809601 681.904907,476.326111
	C692.693054,476.326111 703.548157,476.326111 714.721924,476.326111
	C714.721924,478.364624 714.721924,480.278198 714.721924,483.030121
	C706.699646,483.030121 698.648499,483.030121 690.118469,483.030579
z"/>
<path fill="#3E3E3E" opacity="1.000000" stroke="none"
	d="
M546.321655,547.627441
	C546.325745,551.968506 546.079529,555.259094 541.023743,551.295654
	C540.307739,550.734314 538.380188,551.467529 537.118591,551.904968
	C534.463196,552.825562 532.042542,554.220764 532.717957,549.207764
	C533.144409,546.043091 532.481750,542.731750 532.251587,538.442139
	C535.928406,533.850525 543.322937,533.734009 547.019104,538.395935
	C546.743835,541.905029 546.535339,544.562561 546.321655,547.627441
z"/>
<path fill="#343434" opacity="1.000000" stroke="none"
	d="
M680.862061,552.174927
	C678.760803,550.189270 681.436584,545.296387 675.274475,546.855286
	C677.023132,544.411316 677.954834,543.109131 679.045166,541.585266
	C678.199646,540.648621 677.394226,539.756409 675.289307,537.424805
	C680.680664,537.038208 684.698181,536.750122 687.667419,536.537231
	C689.632385,539.249023 690.846619,540.924805 692.242126,542.850769
	C690.577698,544.153381 688.750305,545.583496 686.922974,547.013672
	C688.166626,548.531555 689.410278,550.049438 691.094788,552.105286
	C688.045410,554.326294 684.647827,553.782959 680.862061,552.174927
z"/>
<path fill="#3E3E3E" opacity="1.000000" stroke="none"
	d="
M517.032410,550.905334
	C515.928711,551.842224 514.824951,552.779114 513.694824,553.738403
	C507.273163,549.896667 509.441589,543.612122 509.751587,538.024231
	C509.815399,536.873718 512.171021,534.968750 513.511169,534.932800
	C517.876770,534.815613 522.261169,535.402710 527.030762,535.747131
	C526.470886,538.128601 525.935608,540.405212 525.524048,543.135986
	C525.401184,543.785583 525.128418,543.932129 524.549316,544.032104
	C523.895935,544.033875 523.522583,544.033264 522.908325,543.820923
	C517.798767,543.799744 516.130493,546.421570 517.021362,550.984985
	C516.995422,550.962769 517.032410,550.905334 517.032410,550.905334
z"/>
<path fill="#3E3E3E" opacity="1.000000" stroke="none"
	d="
M657.012756,551.996155
	C657.901672,548.864624 658.790588,545.733154 659.677673,542.601135
	C653.896484,541.608337 653.855469,541.463196 657.238403,535.877808
	C661.634766,535.877808 665.662842,535.877808 670.206543,535.877808
	C670.397827,537.596863 676.030579,540.231628 669.535400,542.785889
	C669.178528,542.926147 669.704529,545.379883 669.865356,546.751404
	C670.099487,548.747375 670.375183,550.738525 670.310486,552.374268
	C669.418152,543.765747 662.321716,550.667786 660.455505,547.528931
	C659.085815,549.306152 658.049316,550.651123 657.012756,551.996155
M663.570068,542.300781
	C663.180969,542.695923 662.791931,543.091125 662.402832,543.486267
	C663.004211,543.604553 663.605652,543.722778 664.207031,543.841064
	C664.202820,543.367615 664.198547,542.894165 663.570068,542.300781
z"/>
<path fill="#343434" opacity="1.000000" stroke="none"
	d="
M636.411865,553.009399
	C634.377563,551.998901 633.502136,550.822693 633.820007,548.121948
	C635.052673,537.649597 634.878418,537.629089 637.151428,536.417542
	C641.206726,536.263550 645.261963,536.109558 649.703369,536.424805
	C650.128601,537.538147 650.167725,538.182373 650.206909,538.826538
	C649.889221,539.404724 649.571594,539.982849 648.816650,540.996338
	C649.752197,543.892883 648.141479,544.166321 646.313843,544.188477
	C643.294312,544.225037 640.452942,543.936096 640.603210,548.639648
	C640.648315,550.050110 637.887268,551.550293 636.411865,553.009399
z"/>
<path fill="#343434" opacity="1.000000" stroke="none"
	d="
M620.479736,550.109985
	C616.845825,553.104126 614.837646,551.363281 613.592529,547.684631
	C612.204895,543.585022 615.486023,538.258301 620.107361,536.998047
	C624.775452,535.725037 629.276794,538.270874 630.540955,542.898987
	C631.726196,547.238281 629.057556,551.741272 624.592896,552.724731
	C623.927185,552.871277 623.112732,552.342590 622.350952,551.572876
	C628.944824,546.750427 629.572632,543.666260 624.312012,540.111938
	C623.022278,543.476624 621.750977,546.793335 620.479736,550.109985
M617.747131,541.603088
	C617.215820,543.472595 616.684570,545.342163 616.153259,547.211670
	C616.898926,547.430359 617.644531,547.649048 618.390137,547.867798
	C619.101624,545.677612 619.813110,543.487366 620.524597,541.297180
	C619.764587,541.232605 619.004639,541.168030 617.747131,541.603088
z"/>
<path fill="#343434" opacity="1.000000" stroke="none"
	d="
M732.270264,543.466614
	C729.468628,546.665527 726.939758,549.695862 724.023010,552.290161
	C723.179993,553.039978 721.222656,552.536926 719.058411,552.643555
	C723.270996,548.729004 726.509338,545.719727 729.747681,542.710449
	C729.249634,541.952209 728.751587,541.193909 728.253540,540.435608
	C724.924316,542.066284 721.595154,543.696899 718.265991,545.327576
	C718.026245,545.013550 717.786438,544.699524 717.546631,544.385498
	C719.977600,541.286072 722.408569,538.186707 724.428406,535.611511
	C727.113647,536.522156 729.255005,537.286926 731.421021,537.974060
	C734.983276,539.104248 733.011230,541.236816 732.270264,543.466614
z"/>
<path fill="#343434" opacity="1.000000" stroke="none"
	d="
M603.646118,544.961182
	C603.052246,544.726318 602.458435,544.491455 601.168823,544.236084
	C599.972290,546.360657 599.471436,548.505798 598.970581,550.650879
	C597.871826,551.693726 596.773010,552.736572 595.057678,554.364502
	C594.719971,551.077942 594.457458,548.524170 594.750610,545.953857
	C595.481079,545.281311 595.655823,544.625366 595.830566,543.969360
	C595.312866,541.344788 594.795227,538.720276 594.091431,535.152283
	C598.934387,535.152283 602.853821,534.980225 606.734253,535.293213
	C607.539429,535.358093 608.199524,537.222717 608.651978,538.808838
	C608.500183,539.882263 608.622864,540.404663 608.745605,540.927124
	C608.791931,541.399170 608.838196,541.871155 608.397156,542.755371
	C606.972168,544.475098 606.034485,545.782715 605.054138,547.052856
	C605.011414,547.015320 604.924500,546.942200 604.926514,546.676880
	C604.501038,545.928101 604.073608,545.444641 603.646118,544.961182
M599.763550,542.045166
	C599.337524,540.535278 598.911560,539.025391 598.485596,537.515503
	C597.851318,537.793518 597.217102,538.071472 596.582825,538.349487
	C597.484375,539.749939 598.385986,541.150330 599.763550,542.045166
z"/>
<path fill="#343434" opacity="1.000000" stroke="none"
	d="
M829.569580,479.012756
	C829.910950,480.574341 830.390076,482.916870 830.181458,482.979767
	C828.417480,483.511993 826.527954,483.628113 824.127747,483.940552
	C823.196106,484.748230 821.656494,486.083038 820.116821,487.417847
	C818.044250,484.932068 815.971619,482.446350 813.898987,479.960602
	C814.148376,479.471405 814.397705,478.982178 814.647095,478.492981
	C816.868530,478.492981 819.089966,478.492981 821.057251,478.492981
	C822.106628,477.343933 823.759460,474.634674 824.533752,474.866028
	C826.373291,475.415649 827.796814,477.357635 829.569580,479.012756
M822.597717,479.606384
	C822.316284,480.191559 822.034790,480.776733 821.753357,481.361908
	C822.237000,481.557190 822.720642,481.752472 823.204285,481.947754
	C823.342957,481.409790 823.481689,480.871826 822.597717,479.606384
z"/>
<path fill="#3E3E3E" opacity="1.000000" stroke="none"
	d="
M712.037781,541.296265
	C714.642395,546.826721 709.885376,548.888794 706.900635,551.489624
	C705.684021,552.549683 703.387146,552.369995 701.581787,552.754333
	C701.481140,552.268555 701.380493,551.782776 701.279907,551.296936
	C703.673401,549.573914 706.066956,547.850891 709.532288,545.356323
	C704.608398,544.196106 701.218811,543.397461 698.280029,542.109070
	C703.166443,541.511658 707.602112,541.403992 712.037781,541.296265
z"/>
<path fill="#3E3E3E" opacity="1.000000" stroke="none"
	d="
M743.128967,547.485046
	C742.462280,549.402771 741.795654,551.320496 741.037292,553.501953
	C736.964844,549.260132 737.545959,538.298035 741.482666,536.220581
	C742.033691,539.617981 742.588501,543.014648 743.176392,546.885010
	C743.209595,547.358643 743.128967,547.485046 743.128967,547.485046
z"/>
<path fill="#3E3E3E" opacity="1.000000" stroke="none"
	d="
M588.324158,540.093567
	C588.660034,544.380371 588.995972,548.667236 589.347900,553.159119
	C586.257568,553.159119 583.373901,553.159119 580.303345,552.989624
	C580.116455,552.820068 580.217590,552.629395 580.535156,552.429199
	C582.132690,551.261719 583.412659,550.294373 583.768555,550.025452
	C583.046021,547.148621 582.525024,545.074341 582.372620,542.992249
	C584.602173,542.020813 586.463135,541.057190 588.324158,540.093567
z"/>
<path fill="#6E9CD2" opacity="1.000000" stroke="none"
	d="
M636.539246,553.260254
	C637.887268,551.550293 640.648315,550.050110 640.603210,548.639648
	C640.452942,543.936096 643.294312,544.225037 646.313843,544.188477
	C648.141479,544.166321 649.752197,543.892883 648.667297,541.302368
	C649.916931,542.500122 651.249878,543.704224 651.740601,545.187073
	C652.277710,546.810425 652.304626,548.735291 652.023071,550.441162
	C651.880859,551.303101 650.567017,551.971680 649.237854,552.445801
	C648.938660,550.488953 649.184387,548.813965 649.574341,546.156067
	C647.572021,546.250610 645.094604,546.367554 642.617188,546.484558
	C642.341003,546.861938 642.064819,547.239319 641.788635,547.616699
	C647.023621,549.087097 644.285034,550.961365 642.931274,552.765442
	C640.843079,553.014038 638.754822,553.262573 636.539246,553.260254
z"/>
<path fill="#6E9CD2" opacity="1.000000" stroke="none"
	d="
M712.112915,540.887817
	C707.602112,541.403992 703.166443,541.511658 698.337219,541.707397
	C698.801392,539.813354 699.263550,536.516541 700.596924,536.115295
	C703.631165,535.202393 707.141907,535.385376 710.347656,535.865784
	C711.173035,535.989380 711.585754,538.866943 712.112915,540.887817
z"/>
<path fill="#343434" opacity="1.000000" stroke="none"
	d="
M588.723389,539.909912
	C586.463135,541.057190 584.602173,542.020813 582.030762,542.989685
	C580.864014,542.994446 580.407715,542.994080 579.951416,542.993652
	C577.773621,541.581848 575.595764,540.170105 573.238281,538.469971
	C573.058594,538.181580 573.094238,538.049194 573.458252,538.008057
	C574.855530,537.642090 575.869141,537.142822 576.925598,537.023865
	C580.552856,536.615173 584.195129,536.339722 587.831665,536.013550
	C588.261963,537.251099 588.692261,538.488708 588.723389,539.909912
z"/>
<path fill="#343434" opacity="1.000000" stroke="none"
	d="
M657.049744,552.411133
	C658.049316,550.651123 659.085815,549.306152 660.455505,547.528931
	C662.321716,550.667786 669.418152,543.765747 669.988159,552.437256
	C665.687866,552.847168 661.387329,552.836670 657.049744,552.411133
z"/>
<path fill="#343434" opacity="1.000000" stroke="none"
	d="
M743.502686,547.707275
	C743.128967,547.485046 743.209595,547.358643 743.176697,547.385132
	C744.607117,547.625916 746.073975,547.818665 747.532837,548.059937
	C749.341431,548.359070 751.177124,548.579163 752.932495,549.075806
	C753.688171,549.289612 754.271423,550.112488 754.933044,550.658630
	C754.397949,551.189331 753.955872,551.972107 753.312561,552.209534
	C749.404541,553.651855 745.641113,551.896667 743.502686,547.707275
z"/>
<path fill="#6E9CD2" opacity="1.000000" stroke="none"
	d="
M553.360718,548.444275
	C554.056213,549.509094 554.764221,550.972107 555.804504,553.121460
	C556.154053,550.905396 556.427185,549.173889 556.703186,547.423889
	C558.312622,547.423889 559.841187,547.423889 561.852661,547.423889
	C561.155396,548.875488 560.508240,550.222900 559.612854,552.086914
	C560.875366,552.086914 561.648499,552.086914 562.626099,552.337952
	C560.494385,553.180298 558.030640,554.469116 555.874390,554.075195
	C554.759216,553.871399 554.189453,550.682617 553.360718,548.444275
z"/>
<path fill="#DBDAEB" opacity="1.000000" stroke="none"
	d="
M620.485657,550.428223
	C621.750977,546.793335 623.022278,543.476624 624.312012,540.111938
	C629.572632,543.666260 628.944824,546.750427 622.053040,551.355408
	C621.344727,551.376404 620.918152,551.061462 620.485657,550.428223
z"/>
<path fill="#343434" opacity="1.000000" stroke="none"
	d="
M523.149231,544.032654
	C523.522583,544.033264 523.895935,544.033875 524.596191,544.399048
	C524.903870,545.984680 525.280457,547.404358 524.787170,548.387756
	C523.556335,550.841553 524.486816,551.268372 526.689880,550.978088
	C526.689880,550.978088 526.904907,551.105713 526.965576,551.482910
	C527.074646,552.280579 527.123108,552.700989 527.171570,553.121460
	C523.911804,552.879211 520.227783,555.375244 517.271973,551.265137
	C517.032410,550.905334 516.995422,550.962769 517.394409,551.140869
	C521.433838,551.282898 522.119995,549.964050 519.525208,547.439026
	C520.814758,546.226929 521.981995,545.129822 523.149231,544.032654
z"/>
<path fill="#3E3E3E" opacity="1.000000" stroke="none"
	d="
M587.740234,535.665039
	C584.195129,536.339722 580.552856,536.615173 576.925598,537.023865
	C575.869141,537.142822 574.855530,537.642090 573.523621,538.028687
	C573.868103,536.222351 574.330078,534.660461 577.170349,535.100098
	C580.592346,535.629883 584.149963,535.283630 587.740234,535.665039
z"/>
<path fill="#343434" opacity="1.000000" stroke="none"
	d="
M643.361572,552.867249
	C644.285034,550.961365 647.023621,549.087097 641.788635,547.616699
	C642.064819,547.239319 642.341003,546.861938 642.617188,546.484558
	C645.094604,546.367554 647.572021,546.250610 649.574341,546.156067
	C649.184387,548.813965 648.938660,550.488953 648.870483,552.454834
	C647.295959,552.820129 645.543945,552.894592 643.361572,552.867249
z"/>
<path fill="#3E3E3E" opacity="1.000000" stroke="none"
	d="
M605.096863,547.090332
	C606.034485,545.782715 606.972168,544.475098 608.224854,543.070435
	C609.019165,544.542236 609.498474,546.111084 610.112549,548.120789
	C609.066528,548.350708 607.812317,548.626465 606.626648,548.887085
	C606.217590,550.443481 605.816467,551.969543 605.193848,552.971924
	C605.013855,550.662292 605.055359,548.876343 605.096863,547.090332
z"/>
<path fill="#6E9CD2" opacity="1.000000" stroke="none"
	d="
M526.702881,550.576660
	C524.486816,551.268372 523.556335,550.841553 524.787170,548.387756
	C525.280457,547.404358 524.903870,545.984680 524.876221,544.396606
	C525.128418,543.932129 525.401184,543.785583 525.831787,543.445740
	C526.557861,543.825439 527.579956,544.373413 527.555359,544.869446
	C527.466980,546.647522 527.024475,548.408081 526.702881,550.576660
z"/>
<path fill="#3E3E3E" opacity="1.000000" stroke="none"
	d="
M599.160522,550.386719
	C599.471436,548.505798 599.972290,546.360657 600.864075,544.126526
	C600.620117,546.065857 599.985229,548.094238 599.160522,550.386719
z"/>
<path fill="#343434" opacity="1.000000" stroke="none"
	d="
M605.054138,547.052856
	C605.055359,548.876343 605.013855,550.662292 604.931335,552.897278
	C604.341187,551.802917 603.792053,550.259583 603.546265,548.205688
	C604.207947,547.444214 604.566223,547.193176 604.924500,546.942139
	C604.924500,546.942200 605.011414,547.015320 605.054138,547.052856
z"/>
<path fill="#6E9CD2" opacity="1.000000" stroke="none"
	d="
M650.474670,538.745483
	C650.167725,538.182373 650.128601,537.538147 650.124329,536.572876
	C650.353638,537.056030 650.548096,537.860291 650.474670,538.745483
z"/>
<path fill="#6E9CD2" opacity="1.000000" stroke="none"
	d="
M527.315796,553.295044
	C527.123108,552.700989 527.074646,552.280579 527.072632,551.547363
	C527.232788,551.979248 527.346436,552.723999 527.315796,553.295044
z"/>
<path fill="#3E3E3E" opacity="1.000000" stroke="none"
	d="
M604.926514,546.676880
	C604.566223,547.193176 604.207947,547.444214 603.665833,547.817627
	C603.555420,547.198914 603.628845,546.457825 603.674194,545.338928
	C604.073608,545.444641 604.501038,545.928101 604.926514,546.676880
z"/>
<path fill="#3E3E3E" opacity="1.000000" stroke="none"
	d="
M595.708740,544.320923
	C595.655823,544.625366 595.481079,545.281311 595.020996,545.914551
	C595.019409,545.485352 595.303162,545.078857 595.708740,544.320923
z"/>
<path fill="#3E3E3E" opacity="1.000000" stroke="none"
	d="
M608.858948,540.762268
	C608.622864,540.404663 608.500183,539.882263 608.563660,539.220459
	C608.823975,539.586609 608.898132,540.091980 608.858948,540.762268
z"/>
<path fill="#131313" opacity="1.000000" stroke="none"
	d="
M579.958252,543.392334
	C580.407715,542.994080 580.864014,542.994446 581.662170,542.997437
	C582.525024,545.074341 583.046021,547.148621 583.768555,550.025452
	C583.412659,550.294373 582.132690,551.261719 580.587524,552.334900
	C579.272583,551.454529 578.222839,550.468384 577.734497,550.009521
	C578.600647,547.594849 579.282898,545.692932 579.958252,543.392334
z"/>
<path fill="#6E9CD2" opacity="1.000000" stroke="none"
	d="
M562.361938,544.707825
	C562.496155,544.944641 562.462097,545.361328 562.428040,545.777954
	C562.349976,545.481201 562.271851,545.184387 562.361938,544.707825
z"/>
<path fill="#6E9CD2" opacity="1.000000" stroke="none"
	d="
M563.766113,541.604492
	C563.745361,542.040283 563.562683,542.271729 563.379944,542.503113
	C563.454712,542.135437 563.529419,541.767761 563.766113,541.604492
z"/>
<path fill="#6E9CD2" opacity="1.000000" stroke="none"
	d="
M522.908325,543.820923
	C521.981995,545.129822 520.814758,546.226929 519.525208,547.439026
	C522.119995,549.964050 521.433838,551.282898 517.420288,551.163086
	C516.130493,546.421570 517.798767,543.799744 522.908325,543.820923
z"/>
<path fill="#6E9CD2" opacity="1.000000" stroke="none"
	d="
M663.882202,542.360718
	C664.198547,542.894165 664.202820,543.367615 664.207031,543.841064
	C663.605652,543.722778 663.004211,543.604553 662.402832,543.486267
	C662.791931,543.091125 663.180969,542.695923 663.882202,542.360718
z"/>
<path fill="#DBDAEB" opacity="1.000000" stroke="none"
	d="
M617.995850,541.353271
	C619.004639,541.168030 619.764587,541.232605 620.524597,541.297180
	C619.813110,543.487366 619.101624,545.677612 618.390137,547.867798
	C617.644531,547.649048 616.898926,547.430359 616.153259,547.211670
	C616.684570,545.342163 617.215820,543.472595 617.995850,541.353271
z"/>
<path fill="#3E3E3E" opacity="1.000000" stroke="none"
	d="
M599.525513,542.297974
	C598.385986,541.150330 597.484375,539.749939 596.582825,538.349487
	C597.217102,538.071472 597.851318,537.793518 598.485596,537.515503
	C598.911560,539.025391 599.337524,540.535278 599.525513,542.297974
z"/>
<path fill="#FFFFFF" opacity="1.000000" stroke="none"
	d="
M823.109009,479.970123
	C823.481689,480.871826 823.342957,481.409790 823.204285,481.947754
	C822.720642,481.752472 822.237000,481.557190 821.753296,481.361877
	C822.034790,480.776733 822.316284,480.191559 823.109009,479.970123
z"/>
</svg>
