<svg version="1.1" id="Layer_1" xmlns="http://www.w3.org/2000/svg" xmlns:xlink="http://www.w3.org/1999/xlink" x="0px" y="0px"
	 width="100%" viewBox="0 0 505 494" enable-background="new 0 0 505 494" xml:space="preserve">
<path fill="#000000" opacity="1.000000" stroke="none" 
	d="
M1.000000,190.000000 
	C1.000000,126.682373 1.000000,63.864738 1.000000,1.023555 
	C169.275558,1.023555 337.551117,1.023555 505.913330,1.023555 
	C505.913330,165.567703 505.913330,330.135468 505.913330,494.851624 
	C337.666779,494.851624 169.333405,494.851624 1.000000,494.851624 
	C1.000000,393.448761 1.000000,291.974365 1.000000,190.000000 
M142.627441,157.916794 
	C142.905991,157.601639 143.184555,157.286484 143.566116,157.053696 
	C143.566116,157.053696 143.656143,156.957306 144.405014,156.990479 
	C144.647415,156.342178 144.889801,155.693878 145.622177,154.926071 
	C145.774673,154.639847 145.927155,154.353607 146.017792,154.010803 
	C146.017792,154.010803 146.039703,154.091705 146.567429,153.952316 
	C146.742157,153.647369 146.916870,153.342407 147.013962,153.012772 
	C147.013962,153.012772 147.063538,153.077423 147.710068,152.853500 
	C148.822296,151.610260 149.934540,150.367004 151.773331,149.023193 
	C152.167313,148.570053 152.561295,148.116913 153.059647,147.567490 
	C153.059647,147.567490 152.971893,147.455841 153.449890,147.046173 
	C153.664841,146.705261 153.879791,146.364349 154.022476,146.049377 
	C154.022476,146.049377 154.090759,146.084473 154.795532,146.016861 
	C155.515121,145.233490 156.234695,144.450119 157.058655,143.569321 
	C157.058655,143.569321 156.969589,143.457733 157.532791,143.062134 
	C158.048447,142.736664 158.564117,142.411194 159.003052,141.999008 
	C159.003052,141.999008 159.075562,142.087341 159.680878,141.883270 
	C159.772064,141.482376 159.863251,141.081482 160.067566,140.575333 
	C160.067566,140.575333 159.971954,140.453918 160.452164,140.046631 
	C160.666855,139.705521 160.881561,139.364410 161.022354,139.024185 
	C161.022354,139.024185 161.061157,139.087082 161.800797,139.022354 
	C163.239563,137.371979 164.678329,135.721603 166.058792,134.026321 
	C166.058792,134.026321 166.021896,134.089981 166.525681,133.921509 
	C166.633835,133.616333 166.741974,133.311172 167.140961,132.435547 
	C168.260712,131.002823 169.380478,129.570099 171.342041,128.067108 
	C172.257462,127.396561 173.172882,126.726021 174.022003,126.017609 
	C174.022003,126.017609 174.036896,126.092476 174.567993,125.954567 
	C174.742661,125.648232 174.917343,125.341896 175.017792,125.021042 
	C175.017792,125.021042 175.054276,125.087303 175.784531,125.017632 
	C179.218323,121.364563 182.652130,117.711502 186.008194,114.008934 
	C186.008194,114.008934 186.062042,114.083717 186.765808,114.015854 
	C187.873611,112.688995 188.981415,111.362137 190.793854,110.016701 
	C191.557449,109.030045 192.321060,108.043388 193.010788,107.011009 
	C193.010788,107.011009 193.055115,107.085724 193.760345,107.025269 
	C197.203888,103.367790 200.647415,99.710304 204.019882,96.012856 
	C204.019882,96.012856 204.051300,96.088097 204.754883,96.012543 
	C205.867050,94.694084 206.979202,93.375626 208.004028,92.057449 
	C208.004028,92.057449 208.080261,92.100052 208.710114,92.015900 
	C209.184021,91.694115 209.657913,91.372330 210.750351,90.803970 
	C211.862213,89.220238 212.974060,87.636505 214.013138,86.013161 
	C214.013138,86.013161 214.052109,86.086273 214.755508,86.015366 
	C216.199188,84.361275 217.642868,82.707191 219.013077,81.013138 
	C219.013077,81.013138 219.053421,81.086395 219.756149,81.015930 
	C221.865829,78.695679 223.975525,76.375435 226.007675,74.013191 
	C226.007675,74.013191 226.058990,74.084885 226.762482,74.018661 
	C230.203918,70.362473 233.645355,66.706284 237.014282,63.014347 
	C237.014282,63.014347 237.050995,63.086372 237.756256,63.021317 
	C241.654739,59.379303 245.657440,55.840637 249.410889,52.054825 
	C251.515961,49.931568 253.208511,47.399303 255.013000,45.014610 
	C255.013000,45.014610 255.053238,45.086658 255.755905,45.021854 
	C256.850616,43.716343 257.945312,42.410831 259.744965,41.020756 
	C263.316681,37.336330 266.888428,33.651905 270.571167,30.058765 
	C270.571167,30.058765 270.670593,29.954990 271.418060,29.991714 
	C271.987579,29.009418 272.557098,28.027121 273.831512,27.036335 
	C276.961945,24.395760 281.167328,22.549545 281.139587,17.479492 
	C279.080414,16.935322 277.237732,16.071993 275.370361,16.014772 
	C261.166382,15.579521 246.936050,14.678269 232.756927,15.167931 
	C220.933075,15.576256 209.099731,17.259617 197.401581,19.177309 
	C190.406250,20.324062 183.663025,23.008751 176.135757,24.953768 
	C175.377487,25.372465 174.619202,25.791162 173.071609,26.108892 
	C167.570374,27.764965 161.904709,29.021057 156.616287,31.194849 
	C151.779556,33.182972 147.350769,36.163513 142.936905,38.772274 
	C142.936905,38.772274 142.964157,38.568653 142.685760,37.993286 
	C142.007919,38.319530 141.330063,38.645771 140.445953,38.885098 
	C140.445953,38.885098 140.289566,39.045235 139.647156,38.992455 
	C139.402527,39.307716 139.157913,39.622978 138.995102,39.981472 
	C138.995102,39.981472 138.938278,39.908424 138.194305,39.980591 
	C133.978699,42.256813 129.557617,44.224979 125.589432,46.872108 
	C116.786995,52.744114 108.211754,58.956703 99.422493,64.931671 
	C99.422493,64.931671 99.314255,65.044701 98.668686,64.994171 
	C98.416275,65.304970 98.163864,65.615768 97.997559,65.996338 
	C97.997559,65.996338 97.909653,65.923981 97.197189,66.206169 
	C96.359444,67.625946 95.521698,69.045723 94.257347,70.310791 
	C93.726341,70.765884 93.195335,71.220978 92.527351,70.930809 
	C91.987183,71.266876 91.447014,71.602936 91.005074,71.966728 
	C91.005074,71.966728 90.912376,71.920166 90.298340,72.115463 
	C89.172203,73.388947 88.046066,74.662430 86.985329,75.986458 
	C86.985329,75.986458 86.959801,75.907845 86.427483,76.041267 
	C86.254509,76.348137 86.081535,76.654999 85.985466,76.983673 
	C85.985466,76.983673 85.939026,76.918594 85.447189,77.037621 
	C85.283493,77.317268 85.119797,77.596924 84.253998,77.971664 
	C83.155334,79.277733 82.056671,80.583794 80.250061,81.971985 
	C73.829567,88.906960 67.286064,95.734108 61.058632,102.838303 
	C59.016499,105.167953 57.794617,108.216629 55.867409,111.563812 
	C51.658466,118.088898 47.449520,124.613983 42.890732,131.794937 
	C41.253880,133.807953 39.257969,135.625381 38.037907,137.865417 
	C29.516809,153.510010 23.085714,170.045059 18.442806,187.201309 
	C16.354984,194.916122 15.577141,202.985428 13.995751,211.664429 
	C13.650831,215.093613 13.305911,218.522781 12.263877,222.391983 
	C11.832891,225.440826 11.072129,228.485138 11.030183,231.539322 
	C10.879262,242.527954 10.936396,253.520126 11.010944,264.510315 
	C11.021235,266.027435 11.571733,267.540894 11.985437,269.705841 
	C12.043242,270.139740 12.101048,270.573608 12.007344,271.865417 
	C12.322670,274.286957 12.637996,276.708496 12.986341,279.928925 
	C13.570901,281.370331 14.155460,282.811737 14.740018,284.253143 
	C15.968901,283.532715 17.418606,283.033630 18.394655,282.059814 
	C50.625290,249.903656 82.814804,217.706268 114.995636,185.500229 
	C118.063698,182.429764 121.035698,179.263275 124.758835,176.033813 
	C125.534920,175.043823 126.311005,174.053833 127.022659,173.014511 
	C127.022659,173.014511 127.040840,173.093582 127.572037,172.958984 
	C127.745758,172.652710 127.919487,172.346436 128.021194,172.026611 
	C128.021194,172.026611 128.040146,172.097397 128.787155,172.021423 
	C129.343597,171.336578 129.900055,170.651733 130.909409,169.841324 
	C131.001877,169.711929 131.149170,169.592377 131.174622,169.450928 
	C131.218674,169.205948 131.187225,168.947403 131.885574,168.652084 
	C132.940659,167.478973 133.995758,166.305847 135.558792,164.967682 
	C135.730011,164.671188 135.901245,164.374695 135.998932,164.018845 
	C135.998932,164.018845 136.071823,164.086563 136.783173,164.023987 
	C137.232376,163.364456 137.681580,162.704910 138.598907,161.939194 
	C138.902283,161.755905 139.051895,161.487045 139.673859,161.034790 
	C140.137161,160.725510 140.600449,160.416245 141.041702,160.052597 
	C141.041702,160.052597 141.096909,160.072495 141.701492,159.865204 
	C141.834549,159.252441 141.967590,158.639664 142.024872,158.020432 
	C142.024872,158.020432 142.023911,158.096466 142.627441,157.916794 
M78.488998,412.407593 
	C78.488998,412.407593 78.635254,412.522888 78.686691,413.181030 
	C80.730286,415.015076 82.773880,416.849121 84.974243,419.405945 
	C85.634048,419.645721 86.293854,419.885498 87.158043,420.714691 
	C88.085724,421.524078 89.013405,422.333466 90.196129,423.771698 
	C92.749626,425.868988 95.303123,427.966278 98.128693,430.713348 
	C102.003296,433.572937 105.690765,436.740295 109.788971,439.232147 
	C120.411789,445.691101 131.215485,451.852600 142.261459,458.809540 
	C143.058167,458.946350 143.898697,458.963776 144.645111,459.237701 
	C158.766129,464.420685 172.876053,469.633972 187.803940,474.997589 
	C189.802826,475.464264 191.778641,476.124084 193.804382,476.365784 
	C205.638977,477.777832 206.396317,482.327515 205.965286,466.936768 
	C205.956177,466.611176 205.869843,466.287720 205.983307,465.043304 
	C205.987473,407.518402 205.998657,349.993500 205.957138,292.468628 
	C205.956039,290.963745 205.380402,289.459229 204.978989,287.082184 
	C203.868484,286.721436 202.758743,286.048523 201.647369,286.045837 
	C176.892883,285.985931 152.138199,285.986755 127.383682,286.040985 
	C126.208275,286.043549 125.034180,286.644226 123.160896,286.969666 
	C122.029022,287.874329 120.798775,288.680481 119.779701,289.698120 
	C95.759476,313.683960 71.761734,337.692352 47.760601,361.697327 
	C42.731056,366.727722 42.693356,367.500671 47.154957,373.653870 
	C48.500420,375.454956 49.845886,377.256042 51.293720,379.731720 
	C58.586651,388.821564 65.879585,397.911407 73.115234,407.619537 
	C73.745079,408.145294 74.374916,408.671051 75.653038,410.027893 
	C76.232872,409.894653 76.812698,409.761414 77.083084,409.605865 
	C76.824188,409.668152 76.731636,409.827026 76.413574,410.706268 
	C77.226845,410.983154 78.040123,411.260040 78.390045,411.755615 
	C78.448219,411.916168 78.506401,412.076752 78.488998,412.407593 
M437.004822,117.005379 
	C437.004822,117.005379 437.115143,116.978714 436.960022,116.310860 
	C436.300842,115.446350 435.641663,114.581848 435.049316,113.441048 
	C435.049316,113.441048 434.887268,113.207527 434.998352,112.447639 
	C429.023712,105.253838 423.049072,98.060043 417.074158,90.948151 
	C417.074158,90.948151 417.154724,90.933311 417.027100,90.236824 
	C412.698395,85.882988 408.456604,81.438438 404.023865,77.193253 
	C393.108185,66.739395 381.467163,57.218540 367.845459,49.295929 
	C365.612854,47.183788 363.330200,46.059330 360.357025,49.076569 
	C360.190674,49.360954 360.024353,49.645336 359.241150,50.178574 
	C340.139282,69.404175 321.037415,88.629768 301.311310,108.117142 
	C287.192871,122.370361 273.074432,136.623581 258.328125,151.131805 
	C240.205353,169.374283 222.082581,187.616745 203.322540,206.155518 
	C203.527863,207.139465 203.733200,208.123413 203.956451,209.034164 
	C203.956451,209.034164 203.890182,209.070435 204.339355,209.831253 
	C204.834290,209.886139 205.329224,209.989044 205.824158,209.989090 
	C294.090820,209.997528 382.357483,210.002426 470.624115,209.959625 
	C471.804108,209.959045 472.983795,209.351151 474.877777,208.647018 
	C473.588959,202.211655 472.515839,195.723953 470.969360,189.351089 
	C466.954712,172.807358 461.032013,156.966187 452.958588,141.467987 
	C452.669739,141.266617 452.380920,141.065262 452.081635,140.943512 
	C452.081635,140.943512 452.161102,140.931961 452.020203,140.197708 
	C449.028564,135.433472 446.036926,130.669220 442.805206,125.253784 
	C441.142487,122.821266 439.479767,120.388748 437.853302,117.433182 
	C437.561462,117.253830 437.269653,117.074486 437.004822,117.005379 
M424.570312,396.956085 
	C424.768860,396.653870 424.967407,396.351654 425.071655,396.046997 
	C425.071655,396.046997 425.083862,396.140533 425.708069,395.853027 
	C427.853119,392.928284 429.998169,390.003510 432.053314,387.067017 
	C432.053314,387.067017 432.056427,387.157562 432.570801,386.955963 
	C432.769531,386.654388 432.968292,386.352783 433.072906,386.048096 
	C433.072906,386.048096 433.084839,386.141479 433.715424,385.846191 
	C434.857269,383.922882 435.999146,381.999573 437.061401,380.054474 
	C437.061401,380.054474 437.079071,380.135101 437.713440,379.847046 
	C438.855499,377.923004 439.997559,375.998962 441.060211,374.053650 
	C441.060211,374.053650 441.077881,374.133942 441.712860,373.847443 
	C442.857697,371.925629 444.002533,370.003815 445.066193,368.061127 
	C445.066193,368.061127 445.086182,368.142578 445.720856,367.821686 
	C446.862793,365.574249 448.004700,363.326813 449.066040,361.060089 
	C449.066040,361.060089 449.084442,361.140869 449.724335,360.818115 
	C450.530365,358.903778 451.336426,356.989441 452.062927,355.056305 
	C452.062927,355.056305 452.079498,355.136322 452.740112,354.823669 
	C455.208496,349.241638 457.676910,343.659607 460.065308,338.058228 
	C460.065308,338.058228 460.082397,338.138763 460.742828,337.795288 
	C464.449188,325.868744 468.155579,313.942200 472.029907,301.605011 
	C472.029907,301.605011 472.046967,301.161652 472.691986,300.839600 
	C472.752319,299.902313 472.812653,298.965057 473.037476,297.388916 
	C473.072174,296.951019 473.106873,296.513092 473.836884,295.672241 
	C474.964600,285.992493 474.964600,285.992554 464.888672,285.992554 
	C413.283356,285.992584 361.678040,285.992554 310.072723,285.992523 
	C303.081024,285.992523 296.080444,285.802307 289.104065,286.129272 
	C287.408752,286.208740 285.793182,287.990265 283.970001,289.857758 
	C283.934113,292.213287 283.898254,294.568848 283.122040,297.391998 
	C283.078796,356.025787 283.021576,414.659607 283.069885,473.293335 
	C283.071136,474.821838 284.224518,476.349426 285.360260,478.019958 
	C286.021790,477.799561 286.683319,477.579163 287.653076,477.948456 
	C288.157349,477.646576 288.661652,477.344696 289.786133,477.041931 
	C290.192841,476.985168 290.599548,476.928406 291.824890,477.003479 
	C295.567810,476.169006 299.434784,475.690582 303.031799,474.437286 
	C317.173615,469.510040 331.362335,464.668640 345.259247,459.109344 
	C351.548584,456.593323 357.195343,452.470886 363.053467,449.059784 
	C363.053467,449.059784 363.074463,449.139038 363.768097,449.012695 
	C365.223328,448.034363 366.678589,447.056030 368.053192,446.059418 
	C368.053192,446.059418 368.075958,446.138947 368.794312,446.010010 
	C372.574432,443.366180 376.354553,440.722351 380.053864,438.060211 
	C380.053864,438.060211 380.076813,438.139862 380.739624,438.010437 
	C381.871826,437.033295 383.004028,436.056152 384.055634,435.060425 
	C384.055634,435.060425 384.077057,435.140320 384.782990,435.014099 
	C387.898499,432.367401 391.014008,429.720703 394.049255,427.056549 
	C394.049255,427.056549 394.072876,427.135193 394.755463,427.007874 
	C396.550873,425.366699 398.346283,423.725525 400.052704,422.072327 
	C400.052704,422.072327 400.056152,422.162048 400.569763,421.957275 
	C400.767029,421.654999 400.964325,421.352692 401.067078,421.048248 
	C401.067078,421.048248 401.079071,421.142059 401.772949,421.016602 
	C407.239868,415.360870 412.706757,409.705109 418.712494,403.901703 
	C419.159393,403.329102 419.606293,402.756500 420.666992,401.887390 
	C421.824493,400.283295 422.981995,398.679230 424.051178,397.062988 
	C424.051178,397.062988 424.053131,397.152130 424.570312,396.956085 
z"/>
<path fill="#DBDAEB" opacity="1.000000" stroke="none" 
	d="
M420.053162,402.183868 
	C419.606293,402.756500 419.159393,403.329102 418.088074,403.992310 
	C413.959564,407.244568 410.308990,410.261871 407.002625,413.618317 
	C404.776367,415.878265 403.036499,418.617310 401.079071,421.142059 
	C401.079071,421.142059 401.067078,421.048248 400.876221,421.175903 
	C400.475616,421.589722 400.265869,421.875885 400.056152,422.162048 
	C400.056152,422.162048 400.052704,422.072327 399.723114,422.049072 
	C397.619965,423.728943 395.846436,425.432068 394.072876,427.135193 
	C394.072876,427.135193 394.049255,427.056549 393.717407,427.043213 
	C390.282715,429.733368 387.179871,432.436859 384.077057,435.140320 
	C384.077057,435.140320 384.055634,435.060425 383.719788,435.045502 
	C382.281586,436.067017 381.179199,437.103424 380.076782,438.139832 
	C380.076813,438.139862 380.053864,438.060211 379.714691,438.041443 
	C375.608978,440.728119 371.842468,443.433533 368.075958,446.138947 
	C368.075958,446.138947 368.053192,446.059418 367.715149,446.040192 
	C365.942902,447.060303 364.508667,448.099670 363.074463,449.139038 
	C363.074463,449.139038 363.053467,449.059784 362.699738,449.034912 
	C360.677460,449.609589 358.889984,449.994171 357.358612,450.841583 
	C340.171967,460.351959 322.133911,467.632812 303.016541,472.288330 
	C298.886017,473.294220 295.003174,475.317139 291.006256,476.871643 
	C290.599548,476.928406 290.192841,476.985168 289.015564,477.091675 
	C287.944946,477.213837 287.644897,477.286285 287.344849,477.358734 
	C286.683319,477.579163 286.021790,477.799561 285.183105,477.352539 
	C285.004761,418.645020 285.014313,360.604950 284.954498,302.564911 
	C284.952576,300.684357 284.242401,298.804535 283.862366,296.924377 
	C283.898254,294.568848 283.934113,292.213287 284.460266,289.362152 
	C287.238037,288.584137 289.525391,288.056885 291.813141,288.055084 
	C349.177490,288.009827 406.541870,288.019470 463.906250,288.020752 
	C472.186920,288.020935 472.185364,288.024261 472.790375,295.734344 
	C472.799957,295.856384 473.019836,295.961945 473.141602,296.075195 
	C473.106873,296.513092 473.072174,296.951019 472.711365,297.945374 
	C472.272461,299.388428 472.159698,300.275055 472.046967,301.161652 
	C472.046967,301.161652 472.029907,301.605011 471.598633,301.894958 
	C467.472351,314.169556 463.777374,326.154144 460.082397,338.138763 
	C460.082397,338.138763 460.065308,338.058228 459.750763,338.102356 
	C456.983978,343.809723 454.531738,349.473022 452.079468,355.136322 
	C452.079498,355.136322 452.062927,355.056305 451.734558,355.106018 
	C450.632263,357.150757 449.858337,359.145813 449.084412,361.140869 
	C449.084442,361.140869 449.066040,361.060089 448.746277,361.096100 
	C447.313049,363.468933 446.199615,365.805756 445.086182,368.142578 
	C445.086182,368.142578 445.066193,368.061127 444.740845,368.080933 
	C443.302948,370.111816 442.190399,372.122864 441.077881,374.133942 
	C441.077881,374.133942 441.060211,374.053650 440.735565,374.083740 
	C439.300293,376.120941 438.189667,378.128021 437.079071,380.135101 
	C437.079071,380.135101 437.061401,380.054474 436.736115,380.083588 
	C435.302155,382.122284 434.193481,384.131866 433.084839,386.141479 
	C433.084839,386.141479 433.072906,386.048096 432.881348,386.175537 
	C432.478668,386.587860 432.267548,386.872711 432.056458,387.157593 
	C432.056427,387.157562 432.053314,387.067017 431.741882,387.081360 
	C429.314911,390.110657 427.199402,393.125580 425.083862,396.140533 
	C425.083862,396.140533 425.071655,396.046997 424.880676,396.174377 
	C424.477539,396.585205 424.265320,396.868683 424.053131,397.152130 
	C424.053131,397.152130 424.051178,397.062988 423.728149,397.086548 
	C422.287781,398.801361 421.170471,400.492615 420.053162,402.183868 
z"/>
<path fill="#6E9CD3" opacity="1.000000" stroke="none" 
	d="
M140.289566,39.045235 
	C140.289566,39.045235 140.445953,38.885098 140.706512,39.226974 
	C141.632767,39.235451 142.298462,38.902050 142.964157,38.568649 
	C142.964157,38.568653 142.936905,38.772274 143.219147,38.846748 
	C153.378586,35.106567 163.259247,31.300810 173.118851,27.441166 
	C173.472656,27.302666 173.618286,26.632336 173.860931,26.209864 
	C174.619202,25.791162 175.377487,25.372465 176.816467,25.092491 
	C178.950256,25.150503 180.484329,25.346458 181.844376,24.948149 
	C208.013367,17.284285 234.794739,15.800864 261.828156,17.043875 
	C267.048859,17.283926 272.240906,18.146667 278.641022,18.854267 
	C275.828583,22.241505 273.868378,24.602325 271.635773,27.180408 
	C271.132446,28.250113 270.901520,29.102552 270.670593,29.954990 
	C270.670593,29.954990 270.571167,30.058765 270.131409,29.958290 
	C266.116699,33.211742 262.541718,36.565666 258.664673,40.076553 
	C257.259491,41.851231 256.156342,43.468941 255.053238,45.086655 
	C255.053238,45.086658 255.013000,45.014610 254.700226,44.944107 
	C249.735855,49.257252 245.009659,53.565845 240.476776,58.069016 
	C239.065857,59.470695 238.178192,61.399101 237.050995,63.086372 
	C237.050995,63.086372 237.014282,63.014347 236.696075,62.946434 
	C232.938248,66.613976 229.498627,70.349434 226.058990,74.084885 
	C226.058990,74.084885 226.007675,74.013191 225.698120,73.927780 
	C223.276840,76.257050 221.165131,78.671722 219.053421,81.086395 
	C219.053421,81.086395 219.013077,81.013138 218.696411,80.936447 
	C216.937195,82.601929 215.494644,84.344101 214.052109,86.086273 
	C214.052109,86.086273 214.013138,86.013161 213.700775,85.937004 
	C211.564957,87.574715 209.741516,89.288582 207.875275,91.289169 
	C207.915054,91.750618 207.997665,91.925339 208.080261,92.100052 
	C208.080261,92.100052 208.004028,92.057449 207.691071,91.957230 
	C206.269165,93.267372 205.160233,94.677734 204.051300,96.088089 
	C204.051300,96.088097 204.019882,96.012856 203.699890,95.945068 
	C199.938309,99.613426 196.496704,103.349571 193.055115,107.085724 
	C193.055115,107.085724 193.010788,107.011009 192.714584,106.927689 
	C191.267899,107.891365 190.117432,108.938354 188.650909,110.116432 
	C187.577255,111.526253 186.819641,112.804985 186.062042,114.083710 
	C186.062042,114.083717 186.008194,114.008934 185.699066,113.917549 
	C181.944733,117.579880 178.499496,121.333588 175.054276,125.087303 
	C175.054276,125.087303 175.017792,125.021042 174.737122,125.014969 
	C174.316589,125.370087 174.176743,125.731285 174.036896,126.092476 
	C174.036896,126.092476 174.022003,126.017609 173.691864,125.933701 
	C172.407913,126.612328 171.454086,127.374863 170.500244,128.137390 
	C169.380478,129.570099 168.260712,131.002823 166.763550,132.818497 
	C166.264740,133.497635 166.143326,133.793808 166.021896,134.089981 
	C166.021896,134.089981 166.058792,134.026321 165.723358,133.920319 
	C163.945679,135.571899 162.503418,137.329498 161.061157,139.087082 
	C161.061157,139.087082 161.022354,139.024185 160.702072,139.066528 
	C160.245178,139.557205 160.108566,140.005554 159.971954,140.453918 
	C159.971954,140.453918 160.067566,140.575333 159.651031,140.695953 
	C159.181503,141.240173 159.128525,141.663757 159.075562,142.087341 
	C159.075562,142.087341 159.003052,141.999008 158.667496,141.839035 
	C157.877823,142.271942 157.423706,142.864838 156.969589,143.457733 
	C156.969589,143.457733 157.058655,143.569321 156.689392,143.504791 
	C155.897247,143.579147 155.474350,143.718063 154.782288,143.981354 
	C154.289276,144.425125 154.065460,144.744537 153.803772,145.343536 
	C153.874207,145.776901 153.982483,145.930679 154.090759,146.084473 
	C154.090759,146.084473 154.022476,146.049377 153.699677,146.075256 
	C153.241882,146.552704 153.106888,147.004272 152.971893,147.455841 
	C152.971893,147.455841 153.059647,147.567490 152.679825,147.508362 
	C151.860352,147.576584 151.420715,147.703934 150.640900,147.933624 
	C149.221664,149.716446 148.142593,151.396927 147.063538,153.077423 
	C147.063538,153.077423 147.013962,153.012772 146.736206,153.013657 
	C146.318863,153.373596 146.179276,153.732651 146.039703,154.091705 
	C146.039703,154.091705 146.017792,154.010803 145.731308,153.903915 
	C144.922760,154.194931 144.400681,154.592819 143.714508,155.299255 
	C143.585648,156.057632 143.620895,156.507477 143.656128,156.957306 
	C143.656143,156.957306 143.566116,157.053696 143.153107,157.040527 
	C142.501358,157.383728 142.262634,157.740097 142.023911,158.096466 
	C142.023911,158.096466 142.024872,158.020432 141.671509,158.057892 
	C141.244415,158.754395 141.170654,159.413452 141.096909,160.072495 
	C141.096909,160.072495 141.041702,160.052597 140.771393,159.807358 
	C139.993774,159.640259 139.486496,159.718399 138.703918,159.936325 
	C137.893021,160.689484 137.357407,161.302841 136.558990,162.110916 
	C136.221405,162.899261 136.146606,163.492920 136.071823,164.086563 
	C136.071823,164.086563 135.998932,164.018845 135.784973,163.890717 
	C135.374207,163.778076 135.177399,163.793564 134.656891,163.967590 
	C133.284607,165.648926 132.236023,167.171738 131.187439,168.694550 
	C131.187225,168.947403 131.218674,169.205948 131.174622,169.450928 
	C131.149170,169.592377 131.001877,169.711929 130.297699,169.886139 
	C129.137390,170.653107 128.588776,171.375259 128.040161,172.097397 
	C128.040146,172.097397 128.021194,172.026611 127.735130,172.010101 
	C127.312988,172.360260 127.176918,172.726913 127.040848,173.093582 
	C127.040840,173.093582 127.022659,173.014511 126.772194,172.932770 
	C126.031990,173.181656 125.542259,173.512283 124.792801,173.950134 
	C124.321732,174.356583 124.110397,174.655807 123.913284,174.921555 
	C123.927513,174.888077 123.862053,174.856339 123.539337,174.951447 
	C121.615662,176.488480 119.946510,177.862106 118.423782,179.382401 
	C85.925522,211.828812 53.444370,244.292343 20.956682,276.749329 
	C19.267776,278.436646 17.550236,280.095306 15.420973,282.184326 
	C14.718411,279.870819 14.288290,278.454407 13.893390,276.603943 
	C13.714419,274.468323 13.500226,272.766754 13.412058,270.805481 
	C13.353237,270.031067 13.168391,269.516418 13.011388,268.575806 
	C12.912730,258.934204 12.718769,249.718781 12.683357,240.502762 
	C12.659600,234.319611 12.860571,228.135590 12.960991,221.951965 
	C13.305911,218.522781 13.650831,215.093613 14.426933,211.143921 
	C15.202637,209.911621 15.663572,209.232620 15.874494,208.483246 
	C20.090874,193.502869 23.623442,178.288681 28.685041,163.601028 
	C32.533215,152.434494 38.317654,141.935226 43.240582,131.139069 
	C47.449520,124.613983 51.658466,118.088898 56.348488,111.166786 
	C64.891533,101.526588 72.953499,92.283417 81.316628,82.938400 
	C82.744705,81.589180 83.871613,80.341805 85.291245,78.924622 
	C85.702316,78.142738 85.820671,77.530670 85.939026,76.918594 
	C85.939026,76.918594 85.985466,76.983673 86.264877,76.987732 
	C86.682785,76.630470 86.821289,76.269157 86.959793,75.907845 
	C86.959801,75.907845 86.985329,75.986458 87.323715,76.096870 
	C88.745522,74.778244 89.828941,73.349205 90.912369,71.920166 
	C90.912376,71.920166 91.005074,71.966728 91.418503,72.042068 
	C92.109398,71.970299 92.386864,71.823189 92.664337,71.676071 
	C93.195335,71.220978 93.726341,70.765884 94.844673,70.239304 
	C96.257881,68.753204 97.083771,67.338593 97.909653,65.923981 
	C97.909653,65.923981 97.997559,65.996338 98.291489,66.077942 
	C98.828369,65.787933 99.071312,65.416313 99.314255,65.044701 
	C99.314255,65.044701 99.422493,64.931671 99.879318,65.081062 
	C101.116577,64.995956 101.997200,64.921028 102.662544,64.503242 
	C114.249023,57.227852 125.824127,49.933849 137.341476,42.549965 
	C138.118774,42.051643 138.417160,40.806324 138.938278,39.908424 
	C138.938278,39.908424 138.995102,39.981472 139.286926,40.050922 
	C139.815689,39.761993 140.052628,39.403614 140.289566,39.045235 
z"/>
<path fill="#80CCE8" opacity="1.000000" stroke="none" 
	d="
M434.887268,113.207535 
	C434.887268,113.207527 435.049316,113.441048 434.993408,113.956009 
	C435.663391,115.306892 436.389252,116.142807 437.115143,116.978714 
	C437.115143,116.978714 437.004822,117.005379 437.133850,117.129425 
	C437.362976,117.554520 437.547699,117.788765 437.817047,117.956230 
	C439.479767,120.388748 441.142487,122.821266 442.735352,125.818817 
	C444.585999,129.942001 446.385498,133.573715 448.483337,137.024033 
	C449.392456,138.519302 450.916412,139.640732 452.161102,140.931961 
	C452.161102,140.931961 452.081635,140.943512 451.988464,141.177216 
	C451.876892,141.603714 451.858459,141.796494 451.857544,142.368805 
	C452.186554,143.689606 452.395111,144.680893 452.824646,145.564804 
	C461.493652,163.403580 467.964203,181.991379 471.913391,201.440231 
	C472.256012,203.127502 472.494934,204.835831 472.746979,206.326889 
	C470.402161,207.058395 468.715668,207.584503 466.625244,208.074219 
	C465.140594,208.051147 464.059937,208.064484 462.663574,207.814880 
	C456.906189,207.728226 451.464508,207.904526 445.642883,208.049713 
	C444.501648,208.039185 443.740295,208.059784 442.662903,207.816467 
	C432.303406,207.417923 422.260193,207.236282 412.216339,207.193634 
	C410.486389,207.186279 408.753906,207.769623 406.553772,208.047272 
	C399.716125,208.036652 393.347321,208.058853 386.662689,207.816879 
	C385.868591,207.431870 385.390442,207.206070 384.911957,207.205353 
	C365.025787,207.175018 345.139557,207.150391 325.253479,207.191895 
	C324.176056,207.194138 323.099792,207.771286 321.553925,208.047867 
	C311.049469,208.036713 301.014069,208.058548 290.662903,207.816132 
	C276.817871,207.443253 263.288666,207.323929 249.759186,207.262756 
	C249.181564,207.260162 248.601517,207.795471 247.603027,208.047852 
	C245.781876,208.037369 244.380295,208.059219 242.662903,207.816986 
	C235.233353,207.736557 228.119629,207.920181 220.605911,208.073853 
	C219.137314,208.065063 218.068695,208.086212 216.653229,207.999268 
	C214.544861,207.953979 212.783356,208.016769 210.685013,208.056274 
	C209.899124,208.058243 209.450073,208.083481 208.678101,207.988708 
	C208.530823,206.447205 208.180984,204.541687 208.969955,203.685181 
	C213.130585,199.168396 217.600967,194.938492 221.922333,190.567947 
	C234.292389,178.057053 246.642410,165.526337 259.295715,152.850586 
	C270.023743,142.430176 280.517792,132.223953 290.857697,121.863930 
	C294.821381,117.892532 298.433258,113.570015 302.527466,109.283562 
	C303.624298,108.538864 304.462250,107.982056 305.164398,107.287880 
	C319.001282,93.608269 332.886627,79.976608 346.613586,66.187370 
	C351.745941,61.031773 356.501740,55.501366 361.615845,50.013660 
	C362.039062,49.683826 362.241913,49.452557 362.734039,49.203056 
	C364.257355,49.525501 365.457611,49.836552 366.800537,50.461258 
	C384.061218,62.291542 399.969727,75.273094 414.513336,89.923065 
	C415.118744,90.532875 416.262024,90.608711 417.154724,90.933319 
	C417.154724,90.933311 417.074158,90.948151 416.998413,91.275558 
	C418.331757,93.760696 419.521881,96.107811 421.192322,98.039581 
	C425.646942,103.190987 430.308167,108.163757 434.887268,113.207535 
z"/>
<path fill="#80CCE8" opacity="1.000000" stroke="none" 
	d="
M84.817490,418.683136 
	C82.773880,416.849121 80.730286,415.015076 78.884377,412.696289 
	C79.038185,412.043182 78.994308,411.874817 78.950439,411.706451 
	C78.821831,411.883423 78.693207,412.060394 78.564575,412.237335 
	C78.506401,412.076752 78.448219,411.916168 78.451523,411.192780 
	C77.943810,410.447449 77.374619,410.264923 76.805420,410.082397 
	C76.731636,409.827026 76.824188,409.668152 77.117752,409.246063 
	C76.453697,408.242676 75.754967,407.599060 74.987808,406.620636 
	C68.001656,397.669495 61.112411,389.029846 54.117237,380.476837 
	C53.494431,379.715332 52.182987,379.516998 51.191360,379.057129 
	C49.845886,377.256042 48.500420,375.454956 47.456238,373.232788 
	C48.005161,372.434235 48.524830,371.780884 48.461643,371.718628 
	C44.144722,367.461670 47.508148,364.924896 50.411148,362.032806 
	C73.629379,338.901611 96.822014,315.744385 119.913124,292.486511 
	C122.465752,289.915466 125.048492,288.837982 128.671600,288.857819 
	C153.792313,288.995270 178.914093,288.935272 204.056091,289.375702 
	C204.301743,298.950409 204.707565,308.087860 204.721893,317.225891 
	C204.799652,366.825684 204.780746,416.425659 204.555405,466.337341 
	C204.200012,467.619446 204.008209,468.587677 203.981277,469.560486 
	C203.825455,475.189667 203.218521,475.753265 197.640778,474.879395 
	C194.087921,474.322754 190.560669,473.602539 186.741501,472.727844 
	C181.260910,470.859711 175.999146,469.390259 170.873871,467.542358 
	C161.234467,464.066956 151.673843,460.373138 141.972321,456.451843 
	C136.173126,452.854797 130.343872,449.791382 124.822762,446.247803 
	C116.111763,440.656830 107.607697,434.743439 98.852036,428.676636 
	C95.838600,426.153595 92.989166,423.920410 90.032692,421.405609 
	C88.952713,420.380646 87.979790,419.637360 86.646782,418.809753 
	C85.796959,418.711365 85.307228,418.697235 84.817490,418.683136 
z"/>
<path fill="#CEEEF8" opacity="1.000000" stroke="none" 
	d="
M204.035538,288.938690 
	C178.914093,288.935272 153.792313,288.995270 128.671600,288.857819 
	C125.048492,288.837982 122.465752,289.915466 119.913124,292.486511 
	C96.822014,315.744385 73.629379,338.901611 50.411148,362.032806 
	C47.508148,364.924896 44.144722,367.461670 48.461643,371.718628 
	C48.524830,371.780884 48.005161,372.434235 47.474068,372.891846 
	C42.693356,367.500671 42.731056,366.727722 47.760601,361.697327 
	C71.761734,337.692352 95.759476,313.683960 119.779701,289.698120 
	C120.798775,288.680481 122.029022,287.874329 123.987915,286.983948 
	C149.342148,287.007111 173.869415,286.995392 198.396469,287.064941 
	C200.313049,287.070374 202.228027,287.643433 204.122223,288.199799 
	C204.100708,288.446899 204.035538,288.938690 204.035538,288.938690 
z"/>
<path fill="#FAFAFD" opacity="1.000000" stroke="none" 
	d="
M473.489258,295.873718 
	C473.019836,295.961945 472.799957,295.856384 472.790375,295.734344 
	C472.185364,288.024261 472.186920,288.020935 463.906250,288.020752 
	C406.541870,288.019470 349.177490,288.009827 291.813141,288.055084 
	C289.525391,288.056885 287.238037,288.584137 284.545715,288.927856 
	C285.793182,287.990265 287.408752,286.208740 289.104065,286.129272 
	C296.080444,285.802307 303.081024,285.992523 310.072723,285.992523 
	C361.678040,285.992554 413.283356,285.992584 464.888672,285.992554 
	C474.964600,285.992554 474.964600,285.992493 473.489258,295.873718 
z"/>
<path fill="#FAFAFD" opacity="1.000000" stroke="none" 
	d="
M283.492188,297.158203 
	C284.242401,298.804535 284.952576,300.684357 284.954498,302.564911 
	C285.014313,360.604950 285.004761,418.645020 284.923279,477.281281 
	C284.224518,476.349426 283.071136,474.821838 283.069885,473.293335 
	C283.021576,414.659607 283.078796,356.025787 283.492188,297.158203 
z"/>
<path fill="#D9EAFA" opacity="1.000000" stroke="none" 
	d="
M13.858170,277.038025 
	C14.288290,278.454407 14.718411,279.870819 15.420973,282.184326 
	C17.550236,280.095306 19.267776,278.436646 20.956682,276.749329 
	C53.444370,244.292343 85.925522,211.828812 118.423782,179.382401 
	C119.946510,177.862106 121.615662,176.488480 123.593834,175.272156 
	C123.998131,175.712296 124.025215,175.926834 124.052292,176.141373 
	C121.035698,179.263275 118.063698,182.429764 114.995636,185.500229 
	C82.814804,217.706268 50.625290,249.903656 18.394655,282.059814 
	C17.418606,283.033630 15.968901,283.532715 14.740019,284.253143 
	C14.155460,282.811737 13.570901,281.370331 13.005024,279.235168 
	C13.301861,278.040253 13.580016,277.539154 13.858170,277.038025 
z"/>
<path fill="#FFFFFF" opacity="1.000000" stroke="none" 
	d="
M209.001007,208.108734 
	C209.450073,208.083481 209.899124,208.058243 210.950577,208.295807 
	C213.368668,208.408203 215.184372,208.257782 217.000076,208.107361 
	C218.068695,208.086212 219.137314,208.065063 220.930466,208.324493 
	C228.762909,208.430405 235.870804,208.255737 242.978714,208.081055 
	C244.380295,208.059219 245.781876,208.037369 247.922333,208.305969 
	C262.185181,208.704483 275.709076,208.823090 289.233246,208.884415 
	C289.813843,208.887054 290.396851,208.360458 290.978699,208.080383 
	C301.014069,208.058548 311.049469,208.036713 321.873169,208.305969 
	C323.139984,208.716614 323.618347,208.940048 324.097015,208.940781 
	C343.977478,208.970444 363.858002,208.994415 383.738373,208.953400 
	C384.819031,208.951172 385.898468,208.384827 386.978485,208.081055 
	C393.347321,208.058853 399.716125,208.036652 406.872986,208.305542 
	C417.369934,208.728867 427.078674,208.917496 436.787933,208.948044 
	C438.850677,208.954544 440.915222,208.384705 442.978943,208.080383 
	C443.740295,208.059784 444.501648,208.039185 445.961395,208.307404 
	C452.099609,208.423431 457.539459,208.250626 462.979279,208.077820 
	C464.059937,208.064484 465.140594,208.051147 466.927979,208.321518 
	C469.810974,208.745743 471.987305,208.886246 474.163605,209.026733 
	C472.983795,209.351151 471.804108,209.959045 470.624115,209.959625 
	C382.357483,210.002426 294.090820,209.997528 205.824158,209.989090 
	C205.329224,209.989044 204.834290,209.886139 204.504669,209.428802 
	C206.113647,208.720474 207.557327,208.414612 209.001007,208.108734 
z"/>
<path fill="#D1E3F6" opacity="1.000000" stroke="none" 
	d="
M271.908173,26.963150 
	C273.868378,24.602325 275.828583,22.241505 278.641022,18.854267 
	C272.240906,18.146667 267.048859,17.283926 261.828156,17.043875 
	C234.794739,15.800864 208.013367,17.284285 181.844376,24.948149 
	C180.484329,25.346458 178.950256,25.150503 177.151840,25.116680 
	C183.663025,23.008751 190.406250,20.324062 197.401581,19.177309 
	C209.099731,17.259617 220.933075,15.576256 232.756927,15.167931 
	C246.936050,14.678269 261.166382,15.579521 275.370361,16.014772 
	C277.237732,16.071993 279.080414,16.935322 281.139587,17.479492 
	C281.167328,22.549545 276.961945,24.395760 273.174133,27.025053 
	C272.313843,26.996897 272.110992,26.980024 271.908173,26.963150 
z"/>
<path fill="#F0FFFF" opacity="1.000000" stroke="none" 
	d="
M204.056091,289.375702 
	C204.035538,288.938690 204.100708,288.446899 204.353668,288.200562 
	C204.606628,287.954254 205.072708,287.954559 205.072693,287.954559 
	C205.380402,289.459229 205.956039,290.963745 205.957138,292.468628 
	C205.998657,349.993500 205.987473,407.518402 205.644791,465.510437 
	C205.135895,465.993561 204.965515,466.009552 204.795135,466.025574 
	C204.780746,416.425659 204.799652,366.825684 204.721893,317.225891 
	C204.707565,308.087860 204.301743,298.950409 204.056091,289.375702 
z"/>
<path fill="#E2F5FC" opacity="1.000000" stroke="none" 
	d="
M361.429230,50.141842 
	C356.501740,55.501366 351.745941,61.031773 346.613586,66.187370 
	C332.886627,79.976608 319.001282,93.608269 305.164398,107.287880 
	C304.462250,107.982056 303.624298,108.538864 302.451233,108.895599 
	C302.013794,108.372833 301.974670,108.114105 301.935547,107.855370 
	C321.037415,88.629768 340.139282,69.404175 359.942780,50.103848 
	C360.906006,50.066692 361.167603,50.104267 361.429230,50.141842 
z"/>
<path fill="#DBE9F8" opacity="1.000000" stroke="none" 
	d="
M43.065659,131.467010 
	C38.317654,141.935226 32.533215,152.434494 28.685041,163.601028 
	C23.623442,178.288681 20.090874,193.502869 15.874494,208.483246 
	C15.663572,209.232620 15.202637,209.911621 14.531506,210.758636 
	C15.577141,202.985428 16.354984,194.916122 18.442806,187.201309 
	C23.085714,170.045059 29.516809,153.510010 38.037907,137.865417 
	C39.257969,135.625381 41.253880,133.807953 43.065659,131.467010 
z"/>
<path fill="#D8F3FC" opacity="1.000000" stroke="none" 
	d="
M208.678101,207.988724 
	C207.557327,208.414612 206.113647,208.720474 204.280075,209.048386 
	C203.890182,209.070435 203.956451,209.034164 203.974548,208.663788 
	C203.981705,207.482010 203.970764,206.670624 203.959808,205.859222 
	C222.082581,187.616745 240.205353,169.374283 258.653564,151.358643 
	C258.986115,152.058121 258.993225,152.530777 259.000305,153.003418 
	C246.642410,165.526337 234.292389,178.057053 221.922333,190.567947 
	C217.600967,194.938492 213.130585,199.168396 208.969955,203.685181 
	C208.180984,204.541687 208.530823,206.447205 208.678101,207.988724 
z"/>
<path fill="#D8F3FC" opacity="1.000000" stroke="none" 
	d="
M474.520691,208.836884 
	C471.987305,208.886246 469.810974,208.745743 467.331940,208.357941 
	C468.715668,207.584503 470.402161,207.058395 472.746979,206.326889 
	C472.494934,204.835831 472.256012,203.127502 471.913391,201.440231 
	C467.964203,181.991379 461.493652,163.403580 452.824646,145.564804 
	C452.395111,144.680893 452.186554,143.689606 452.111877,142.372849 
	C452.516937,141.998886 452.685242,142.000412 452.853577,142.001938 
	C461.032013,156.966187 466.954712,172.807358 470.969360,189.351089 
	C472.515839,195.723953 473.588959,202.211655 474.520691,208.836884 
z"/>
<path fill="#F6F6FB" opacity="1.000000" stroke="none" 
	d="
M291.415588,476.937561 
	C295.003174,475.317139 298.886017,473.294220 303.016541,472.288330 
	C322.133911,467.632812 340.171967,460.351959 357.358612,450.841583 
	C358.889984,449.994171 360.677460,449.609589 362.739807,449.043640 
	C357.195343,452.470886 351.548584,456.593323 345.259247,459.109344 
	C331.362335,464.668640 317.173615,469.510040 303.031799,474.437286 
	C299.434784,475.690582 295.567810,476.169006 291.415588,476.937561 
z"/>
<path fill="#DDF4FB" opacity="1.000000" stroke="none" 
	d="
M417.090912,90.585068 
	C416.262024,90.608711 415.118744,90.532875 414.513336,89.923065 
	C399.969727,75.273094 384.061218,62.291542 367.167175,50.404518 
	C367.635132,50.007610 367.879089,49.981106 368.123047,49.954597 
	C381.467163,57.218540 393.108185,66.739395 404.023865,77.193253 
	C408.456604,81.438438 412.698395,85.882988 417.090912,90.585068 
z"/>
<path fill="#E2F4FB" opacity="1.000000" stroke="none" 
	d="
M259.295746,152.850586 
	C258.993225,152.530777 258.986115,152.058121 258.967499,151.231140 
	C273.074432,136.623581 287.192871,122.370361 301.623413,107.986252 
	C301.974670,108.114105 302.013794,108.372833 302.129150,109.019531 
	C298.433258,113.570015 294.821381,117.892532 290.857697,121.863930 
	C280.517792,132.223953 270.023743,142.430176 259.295746,152.850586 
z"/>
<path fill="#D7F2FA" opacity="1.000000" stroke="none" 
	d="
M99.016037,428.966522 
	C107.607697,434.743439 116.111763,440.656830 124.822762,446.247803 
	C130.343872,449.791382 136.173126,452.854797 141.935852,456.793274 
	C141.987335,457.679596 141.967163,457.906219 141.946991,458.132843 
	C131.215485,451.852600 120.411789,445.691101 109.788971,439.232147 
	C105.690765,436.740295 102.003296,433.572937 98.228767,430.254822 
	C98.557899,429.519714 98.786964,429.243103 99.016037,428.966522 
z"/>
<path fill="#DDF5FB" opacity="1.000000" stroke="none" 
	d="
M142.104218,458.471191 
	C141.967163,457.906219 141.987335,457.679596 142.043976,457.111542 
	C151.673843,460.373138 161.234467,464.066956 170.873871,467.542358 
	C175.999146,469.390259 181.260910,470.859711 186.734192,473.042358 
	C187.000992,474.003448 186.994644,474.422180 186.988297,474.840942 
	C172.876053,469.633972 158.766129,464.420685 144.645111,459.237701 
	C143.898697,458.963776 143.058167,458.946350 142.104218,458.471191 
z"/>
<path fill="#DAE9F8" opacity="1.000000" stroke="none" 
	d="
M138.566284,39.944508 
	C138.417160,40.806324 138.118774,42.051643 137.341476,42.549965 
	C125.824127,49.933849 114.249023,57.227852 102.662544,64.503242 
	C101.997200,64.921028 101.116577,64.995956 99.940018,65.130447 
	C108.211754,58.956703 116.786995,52.744114 125.589432,46.872108 
	C129.557617,44.224979 133.978699,42.256813 138.566284,39.944508 
z"/>
<path fill="#FFFFFF" opacity="1.000000" stroke="none" 
	d="
M205.025848,287.518372 
	C205.072708,287.954559 204.606628,287.954254 204.375183,287.953491 
	C202.228027,287.643433 200.313049,287.070374 198.396469,287.064941 
	C173.869415,286.995392 149.342148,287.007111 124.337196,286.982300 
	C125.034180,286.644226 126.208275,286.043549 127.383682,286.040985 
	C152.138199,285.986755 176.892883,285.985931 201.647369,286.045837 
	C202.758743,286.048523 203.868484,286.721436 205.025848,287.518372 
z"/>
<path fill="#DCEBF9" opacity="1.000000" stroke="none" 
	d="
M81.015465,83.040245 
	C72.953499,92.283417 64.891533,101.526588 56.513603,110.853127 
	C57.794617,108.216629 59.016499,105.167953 61.058632,102.838303 
	C67.286064,95.734108 73.829567,88.906960 80.618027,82.218536 
	C80.995819,82.656799 81.005646,82.848526 81.015465,83.040245 
z"/>
<path fill="#D6F1FA" opacity="1.000000" stroke="none" 
	d="
M51.242542,379.394409 
	C52.182987,379.516998 53.494431,379.715332 54.117237,380.476837 
	C61.112411,389.029846 68.001656,397.669495 74.967033,406.637634 
	C75.014694,406.989471 74.974709,407.025238 74.674690,407.015503 
	C73.973953,407.004272 73.573227,407.002777 73.172508,407.001282 
	C65.879585,397.911407 58.586651,388.821564 51.242542,379.394409 
z"/>
<path fill="#E5F1FA" opacity="1.000000" stroke="none" 
	d="
M12.612434,222.171967 
	C12.860571,228.135590 12.659600,234.319611 12.683357,240.502762 
	C12.718769,249.718781 12.912730,258.934204 12.733305,268.584167 
	C12.242298,269.030975 12.057219,269.043488 11.872139,269.056030 
	C11.571733,267.540894 11.021235,266.027435 11.010944,264.510315 
	C10.936396,253.520126 10.879262,242.527954 11.030183,231.539322 
	C11.072129,228.485138 11.832891,225.440826 12.612434,222.171967 
z"/>
<path fill="#D9E7F7" opacity="1.000000" stroke="none" 
	d="
M173.466278,26.159380 
	C173.618286,26.632336 173.472656,27.302666 173.118851,27.441166 
	C163.259247,31.300810 153.378586,35.106567 143.121796,38.813969 
	C147.350769,36.163513 151.779556,33.182972 156.616287,31.194849 
	C161.904709,29.021057 167.570374,27.764965 173.466278,26.159380 
z"/>
<path fill="#F6F6FB" opacity="1.000000" stroke="none" 
	d="
M460.412598,337.967041 
	C463.777374,326.154144 467.472351,314.169556 471.514648,302.100281 
	C468.155579,313.942200 464.449188,325.868744 460.412598,337.967041 
z"/>
<path fill="#CEEEF8" opacity="1.000000" stroke="none" 
	d="
M187.396118,474.919250 
	C186.994644,474.422180 187.000992,474.003448 187.014648,473.270203 
	C190.560669,473.602539 194.087921,474.322754 197.640778,474.879395 
	C203.218521,475.753265 203.825455,475.189667 203.981277,469.560486 
	C204.008209,468.587677 204.200012,467.619446 204.555405,466.337341 
	C204.965515,466.009552 205.135895,465.993561 205.562897,465.970428 
	C205.869843,466.287720 205.956177,466.611176 205.965286,466.936768 
	C206.396317,482.327515 205.638977,477.777832 193.804382,476.365784 
	C191.778641,476.124084 189.802826,475.464264 187.396118,474.919250 
z"/>
<path fill="#DBF3FA" opacity="1.000000" stroke="none" 
	d="
M434.942810,112.827591 
	C430.308167,108.163757 425.646942,103.190987 421.192322,98.039581 
	C419.521881,96.107811 418.331757,93.760696 416.998535,91.234604 
	C423.049072,98.060043 429.023712,105.253838 434.942810,112.827591 
z"/>
<path fill="#E0ECFA" opacity="1.000000" stroke="none" 
	d="
M237.403625,63.053844 
	C238.178192,61.399101 239.065857,59.470695 240.476776,58.069016 
	C245.009659,53.565845 249.735855,49.257252 254.737183,44.962456 
	C253.208511,47.399303 251.515961,49.931568 249.410889,52.054825 
	C245.657440,55.840637 241.654739,59.379303 237.403625,63.053844 
z"/>
<path fill="#F6F6FB" opacity="1.000000" stroke="none" 
	d="
M401.426025,421.079346 
	C403.036499,418.617310 404.776367,415.878265 407.002625,413.618317 
	C410.308990,410.261871 413.959564,407.244568 417.818665,404.066132 
	C412.706757,409.705109 407.239868,415.360870 401.426025,421.079346 
z"/>
<path fill="#D7F2FA" opacity="1.000000" stroke="none" 
	d="
M452.090637,140.564835 
	C450.916412,139.640732 449.392456,138.519302 448.483337,137.024033 
	C446.385498,133.573715 444.585999,129.942001 442.855377,126.144409 
	C446.036926,130.669220 449.028564,135.433472 452.090637,140.564835 
z"/>
<path fill="#F6F6FB" opacity="1.000000" stroke="none" 
	d="
M452.409790,354.979980 
	C454.531738,349.473022 456.983978,343.809723 459.790771,338.112030 
	C457.676910,343.659607 455.208496,349.241638 452.409790,354.979980 
z"/>
<path fill="#E0ECFA" opacity="1.000000" stroke="none" 
	d="
M226.410736,74.051773 
	C229.498627,70.349434 232.938248,66.613976 236.732330,62.964302 
	C233.645355,66.706284 230.203918,70.362473 226.410736,74.051773 
z"/>
<path fill="#E0ECFB" opacity="1.000000" stroke="none" 
	d="
M175.419403,125.052467 
	C178.499496,121.333588 181.944733,117.579880 185.737946,113.942299 
	C182.652130,117.711502 179.218323,121.364563 175.419403,125.052467 
z"/>
<path fill="#DDEBFB" opacity="1.000000" stroke="none" 
	d="
M193.407730,107.055496 
	C196.496704,103.349571 199.938309,99.613426 203.735428,95.965042 
	C200.647415,99.710304 197.203888,103.367790 193.407730,107.055496 
z"/>
<path fill="#E1EDFA" opacity="1.000000" stroke="none" 
	d="
M258.966766,39.919594 
	C262.541718,36.565666 266.116699,33.211742 270.075897,29.912647 
	C266.888428,33.651905 263.316681,37.336330 259.375366,40.766537 
	C258.992767,40.314739 258.979767,40.117165 258.966766,39.919594 
z"/>
<path fill="#F6F6FB" opacity="1.000000" stroke="none" 
	d="
M368.435120,446.074463 
	C371.842468,443.433533 375.608978,440.728119 379.755127,438.050598 
	C376.354553,440.722351 372.574432,443.366180 368.435120,446.074463 
z"/>
<path fill="#F6F6FB" opacity="1.000000" stroke="none" 
	d="
M384.430023,435.077209 
	C387.179871,432.436859 390.282715,429.733368 393.757507,427.051941 
	C391.014008,429.720703 387.898499,432.367401 384.430023,435.077209 
z"/>
<path fill="#D8F2FB" opacity="1.000000" stroke="none" 
	d="
M98.852036,428.676636 
	C98.786964,429.243103 98.557899,429.519714 98.092728,429.929962 
	C95.303123,427.966278 92.749626,425.868988 90.112068,423.092529 
	C90.065254,422.171356 90.102501,421.929291 90.139740,421.687256 
	C92.989166,423.920410 95.838600,426.153595 98.852036,428.676636 
z"/>
<path fill="#F6F6FB" opacity="1.000000" stroke="none" 
	d="
M425.395966,395.996765 
	C427.199402,393.125580 429.314911,390.110657 431.786804,387.087219 
	C429.998169,390.003510 427.853119,392.928284 425.395966,395.996765 
z"/>
<path fill="#E0ECFA" opacity="1.000000" stroke="none" 
	d="
M219.404785,81.051163 
	C221.165131,78.671722 223.276840,76.257050 225.736893,73.948776 
	C223.975525,76.375435 221.865829,78.695679 219.404785,81.051163 
z"/>
<path fill="#E0ECFA" opacity="1.000000" stroke="none" 
	d="
M207.918076,91.002449 
	C209.741516,89.288582 211.564957,87.574715 213.737152,85.956810 
	C212.974060,87.636505 211.862213,89.220238 210.072845,90.913071 
	C208.902908,91.015602 208.410492,91.009026 207.918076,91.002449 
z"/>
<path fill="#DFECFB" opacity="1.000000" stroke="none" 
	d="
M161.430969,139.054718 
	C162.503418,137.329498 163.945679,135.571899 165.752502,133.942764 
	C164.678329,135.721603 163.239563,137.371979 161.430969,139.054718 
z"/>
<path fill="#E5F1FA" opacity="1.000000" stroke="none" 
	d="
M13.893391,276.603943 
	C13.580016,277.539154 13.301861,278.040253 12.988514,278.835693 
	C12.637996,276.708496 12.322670,274.286957 12.272799,271.439819 
	C12.787973,271.024445 13.037233,271.041443 13.286033,271.065216 
	C13.500226,272.766754 13.714419,274.468323 13.893391,276.603943 
z"/>
<path fill="#F6F6FB" opacity="1.000000" stroke="none" 
	d="
M394.414185,427.071533 
	C395.846436,425.432068 397.619965,423.728943 399.767578,422.055054 
	C398.346283,423.725525 396.550873,425.366699 394.414185,427.071533 
z"/>
<path fill="#E0ECFA" opacity="1.000000" stroke="none" 
	d="
M214.403809,86.050819 
	C215.494644,84.344101 216.937195,82.601929 218.733139,80.956436 
	C217.642868,82.707191 216.199188,84.361275 214.403809,86.050819 
z"/>
<path fill="#F6F6FB" opacity="1.000000" stroke="none" 
	d="
M445.403503,367.982117 
	C446.199615,365.805756 447.313049,363.468933 448.786560,361.105743 
	C448.004700,363.326813 446.862793,365.574249 445.403503,367.982117 
z"/>
<path fill="#D9EAFA" opacity="1.000000" stroke="none" 
	d="
M147.386810,152.965454 
	C148.142593,151.396927 149.221664,149.716446 150.657913,148.257355 
	C151.025650,148.693756 151.036209,148.908752 151.046768,149.123764 
	C149.934540,150.367004 148.822296,151.610260 147.386810,152.965454 
z"/>
<path fill="#F6F6FB" opacity="1.000000" stroke="none" 
	d="
M433.400116,385.993835 
	C434.193481,384.131866 435.302155,382.122284 436.775940,380.094482 
	C435.999146,381.999573 434.857269,383.922882 433.400116,385.993835 
z"/>
<path fill="#F6F6FB" opacity="1.000000" stroke="none" 
	d="
M437.396240,379.991089 
	C438.189667,378.128021 439.300293,376.120941 440.775269,374.094391 
	C439.997559,375.998962 438.855499,377.923004 437.396240,379.991089 
z"/>
<path fill="#F6F6FB" opacity="1.000000" stroke="none" 
	d="
M441.395355,373.990692 
	C442.190399,372.122864 443.302948,370.111816 444.781433,368.091370 
	C444.002533,370.003815 442.857697,371.925629 441.395355,373.990692 
z"/>
<path fill="#E0ECFA" opacity="1.000000" stroke="none" 
	d="
M258.664673,40.076557 
	C258.979767,40.117165 258.992767,40.314739 259.022888,40.808819 
	C257.945312,42.410831 256.850616,43.716343 255.404572,45.054253 
	C256.156342,43.468941 257.259491,41.851231 258.664673,40.076557 
z"/>
<path fill="#F6F6FB" opacity="1.000000" stroke="none" 
	d="
M420.360046,402.035645 
	C421.170471,400.492615 422.287781,398.801361 423.772278,397.092651 
	C422.981995,398.679230 421.824493,400.283295 420.360046,402.035645 
z"/>
<path fill="#DBE9F8" opacity="1.000000" stroke="none" 
	d="
M81.316628,82.938400 
	C81.005646,82.848526 80.995819,82.656799 80.972000,82.177467 
	C82.056671,80.583794 83.155334,79.277733 84.618423,78.228485 
	C84.988083,78.688362 84.993301,78.891403 84.998528,79.094437 
	C83.871613,80.341805 82.744705,81.589180 81.316628,82.938400 
z"/>
<path fill="#E2F5FC" opacity="1.000000" stroke="none" 
	d="
M367.984253,49.625263 
	C367.879089,49.981106 367.635132,50.007610 367.024536,50.090858 
	C365.457611,49.836552 364.257355,49.525501 362.341980,49.134853 
	C361.366119,49.017284 361.105377,48.979313 360.844635,48.941341 
	C363.330200,46.059330 365.612854,47.183788 367.984253,49.625263 
z"/>
<path fill="#F6F6FB" opacity="1.000000" stroke="none" 
	d="
M449.404358,360.979492 
	C449.858337,359.145813 450.632263,357.150757 451.774323,355.115417 
	C451.336426,356.989441 450.530365,358.903778 449.404358,360.979492 
z"/>
<path fill="#DDEBFB" opacity="1.000000" stroke="none" 
	d="
M204.403091,96.050316 
	C205.160233,94.677734 206.269165,93.267372 207.734726,91.957092 
	C206.979202,93.375626 205.867050,94.694084 204.403091,96.050316 
z"/>
<path fill="#E0ECFB" opacity="1.000000" stroke="none" 
	d="
M186.413910,114.049782 
	C186.819641,112.804985 187.577255,111.526253 188.931519,110.130508 
	C189.715210,110.020760 189.902222,110.028023 190.089233,110.035278 
	C188.981415,111.362137 187.873611,112.688995 186.413910,114.049782 
z"/>
<path fill="#F6F6FB" opacity="1.000000" stroke="none" 
	d="
M363.421265,449.075867 
	C364.508667,448.099670 365.942902,447.060303 367.755493,446.049347 
	C366.678589,447.056030 365.223328,448.034363 363.421265,449.075867 
z"/>
<path fill="#DAE9F8" opacity="1.000000" stroke="none" 
	d="
M90.605354,72.017807 
	C89.828941,73.349205 88.745522,74.778244 87.291016,76.071594 
	C88.046066,74.662430 89.172203,73.388947 90.605354,72.017807 
z"/>
<path fill="#F6F6FB" opacity="1.000000" stroke="none" 
	d="
M380.408203,438.075134 
	C381.179199,437.103424 382.281586,436.067017 383.760101,435.054810 
	C383.004028,436.056152 381.871826,437.033295 380.408203,438.075134 
z"/>
<path fill="#DDEBFB" opacity="1.000000" stroke="none" 
	d="
M190.441544,110.025986 
	C189.902222,110.028023 189.715210,110.020760 189.247574,109.999420 
	C190.117432,108.938354 191.267899,107.891365 192.751526,106.950546 
	C192.321060,108.043388 191.557449,109.030045 190.441544,110.025986 
z"/>
<path fill="#DAE9F8" opacity="1.000000" stroke="none" 
	d="
M97.553421,66.065079 
	C97.083771,67.338593 96.257881,68.753204 95.057976,70.316650 
	C95.521698,69.045723 96.359444,67.625946 97.553421,66.065079 
z"/>
<path fill="#D9EAFA" opacity="1.000000" stroke="none" 
	d="
M131.536499,168.673309 
	C132.236023,167.171738 133.284607,165.648926 134.674316,164.299225 
	C135.027222,164.692474 135.039032,164.912598 135.050842,165.132736 
	C133.995758,166.305847 132.940659,167.478973 131.536499,168.673309 
z"/>
<path fill="#D6F1FA" opacity="1.000000" stroke="none" 
	d="
M90.032692,421.405609 
	C90.102501,421.929291 90.065254,422.171356 89.984543,422.778137 
	C89.013405,422.333466 88.085724,421.524078 87.069901,420.112213 
	C86.990120,419.304474 86.998497,419.099243 87.006866,418.894043 
	C87.979790,419.637360 88.952713,420.380646 90.032692,421.405609 
z"/>
<path fill="#E0ECFB" opacity="1.000000" stroke="none" 
	d="
M170.921143,128.102264 
	C171.454086,127.374863 172.407913,126.612328 173.725006,125.952629 
	C173.172882,126.726021 172.257462,127.396561 170.921143,128.102264 
z"/>
<path fill="#DBF3FA" opacity="1.000000" stroke="none" 
	d="
M437.037598,116.644791 
	C436.389252,116.142807 435.663391,115.306892 434.960022,114.094162 
	C435.641663,114.581848 436.300842,115.446350 437.037598,116.644791 
z"/>
<path fill="#DFECFB" opacity="1.000000" stroke="none" 
	d="
M124.405563,176.087585 
	C124.025215,175.926834 123.998131,175.712296 123.916550,175.177048 
	C123.862053,174.856339 123.927513,174.888077 124.158478,174.798065 
	C124.610466,174.419678 124.831497,174.131287 125.052521,173.842896 
	C125.542259,173.512283 126.031990,173.181656 126.804413,172.957428 
	C126.311005,174.053833 125.534920,175.043823 124.405563,176.087585 
z"/>
<path fill="#E1EDFA" opacity="1.000000" stroke="none" 
	d="
M271.635773,27.180412 
	C272.110992,26.980024 272.313843,26.996897 272.821655,27.029297 
	C272.557098,28.027121 271.987579,29.009418 271.044312,29.973354 
	C270.901520,29.102552 271.132446,28.250113 271.635773,27.180412 
z"/>
<path fill="#DFECFB" opacity="1.000000" stroke="none" 
	d="
M136.427490,164.055267 
	C136.146606,163.492920 136.221405,162.899261 136.886612,162.148956 
	C137.694946,162.009979 137.912872,162.027679 138.130783,162.045380 
	C137.681580,162.704910 137.232376,163.364456 136.427490,164.055267 
z"/>
<path fill="#D9EAFA" opacity="1.000000" stroke="none" 
	d="
M13.412058,270.805481 
	C13.037233,271.041443 12.787973,271.024445 12.348553,271.010864 
	C12.101048,270.573608 12.043242,270.139740 11.928787,269.380920 
	C12.057219,269.043488 12.242298,269.030975 12.705462,269.010132 
	C13.168391,269.516418 13.353237,270.031067 13.412058,270.805481 
z"/>
<path fill="#DFECFB" opacity="1.000000" stroke="none" 
	d="
M154.443146,146.050659 
	C153.982483,145.930679 153.874207,145.776901 154.056580,145.196472 
	C154.582001,144.465561 154.816727,144.161270 155.051468,143.856979 
	C155.474350,143.718063 155.897247,143.579147 156.637207,143.553497 
	C156.234695,144.450119 155.515121,145.233490 154.443146,146.050659 
z"/>
<path fill="#D6F1FA" opacity="1.000000" stroke="none" 
	d="
M75.035461,406.972473 
	C75.754967,407.599060 76.453697,408.242676 77.272476,409.257202 
	C76.812698,409.761414 76.232872,409.894653 75.327042,409.249451 
	C74.992271,407.989075 74.983490,407.507172 74.974709,407.025238 
	C74.974709,407.025238 75.014694,406.989471 75.035461,406.972473 
z"/>
<path fill="#D8F2FB" opacity="1.000000" stroke="none" 
	d="
M74.674690,407.015503 
	C74.983490,407.507172 74.992271,407.989075 75.002899,408.833923 
	C74.374916,408.671051 73.745079,408.145294 73.143875,407.310425 
	C73.573227,407.002777 73.973953,407.004272 74.674690,407.015503 
z"/>
<path fill="#FAFAFD" opacity="1.000000" stroke="none" 
	d="
M472.369476,301.000610 
	C472.159698,300.275055 472.272461,299.388428 472.629089,298.264801 
	C472.812653,298.965057 472.752319,299.902313 472.369476,301.000610 
z"/>
<path fill="#D9EAFA" opacity="1.000000" stroke="none" 
	d="
M138.364838,161.992279 
	C137.912872,162.027679 137.694946,162.009979 137.149414,161.954254 
	C137.357407,161.302841 137.893021,160.689484 138.721008,160.271072 
	C139.024841,160.688217 139.036285,160.910416 139.047729,161.132614 
	C139.051895,161.487045 138.902283,161.755905 138.364838,161.992279 
z"/>
<path fill="#D9E7F7" opacity="1.000000" stroke="none" 
	d="
M142.824951,38.280968 
	C142.298462,38.902050 141.632767,39.235451 140.809647,39.270432 
	C141.330063,38.645771 142.007919,38.319530 142.824951,38.280968 
z"/>
<path fill="#DFECFB" opacity="1.000000" stroke="none" 
	d="
M128.413666,172.059418 
	C128.588776,171.375259 129.137390,170.653107 130.071259,169.948914 
	C129.900055,170.651733 129.343597,171.336578 128.413666,172.059418 
z"/>
<path fill="#FFFFFF" opacity="1.000000" stroke="none" 
	d="
M203.641174,206.007370 
	C203.970764,206.670624 203.981705,207.482010 203.965607,208.700378 
	C203.733200,208.123413 203.527863,207.139465 203.641174,206.007370 
z"/>
<path fill="#DFECFB" opacity="1.000000" stroke="none" 
	d="
M144.030579,156.973892 
	C143.620895,156.507477 143.585648,156.057632 144.028564,155.312225 
	C144.715225,155.026291 144.923721,155.035934 145.132202,155.045593 
	C144.889801,155.693878 144.647415,156.342178 144.030579,156.973892 
z"/>
<path fill="#DFECFB" opacity="1.000000" stroke="none" 
	d="
M157.251190,143.259933 
	C157.423706,142.864838 157.877823,142.271942 158.705872,141.882401 
	C158.564117,142.411194 158.048447,142.736664 157.251190,143.259933 
z"/>
<path fill="#DDEBFB" opacity="1.000000" stroke="none" 
	d="
M207.875275,91.289169 
	C208.410492,91.009026 208.902908,91.015602 209.763580,91.036362 
	C209.657913,91.372330 209.184021,91.694115 208.395187,92.057976 
	C207.997665,91.925339 207.915054,91.750618 207.875275,91.289169 
z"/>
<path fill="#DAE9F8" opacity="1.000000" stroke="none" 
	d="
M85.291245,78.924622 
	C84.993301,78.891403 84.988083,78.688362 84.969482,78.180946 
	C85.119797,77.596924 85.283493,77.317268 85.693108,76.978104 
	C85.820671,77.530670 85.702316,78.142738 85.291245,78.924622 
z"/>
<path fill="#D8F2FB" opacity="1.000000" stroke="none" 
	d="
M76.609497,410.394348 
	C77.374619,410.264923 77.943810,410.447449 78.683205,411.083435 
	C78.040123,411.260040 77.226845,410.983154 76.609497,410.394348 
z"/>
<path fill="#DFECFB" opacity="1.000000" stroke="none" 
	d="
M151.410049,149.073486 
	C151.036209,148.908752 151.025650,148.693756 150.998077,148.155014 
	C151.420715,147.703934 151.860352,147.576584 152.627640,147.556503 
	C152.561295,148.116913 152.167313,148.570053 151.410049,149.073486 
z"/>
<path fill="#D9EAFA" opacity="1.000000" stroke="none" 
	d="
M145.377197,154.985840 
	C144.923721,155.035934 144.715225,155.026291 144.192657,155.003662 
	C144.400681,154.592819 144.922760,154.194931 145.762238,153.932205 
	C145.927155,154.353607 145.774673,154.639847 145.377197,154.985840 
z"/>
<path fill="#DDF4FB" opacity="1.000000" stroke="none" 
	d="
M360.600830,49.008957 
	C361.105377,48.979313 361.366119,49.017284 362.018921,49.123466 
	C362.241913,49.452557 362.039062,49.683826 361.615845,50.013660 
	C361.167603,50.104267 360.906006,50.066692 360.251221,49.979424 
	C360.024353,49.645336 360.190674,49.360954 360.600830,49.008957 
z"/>
<path fill="#DFECFB" opacity="1.000000" stroke="none" 
	d="
M141.399200,159.968842 
	C141.170654,159.413452 141.244415,158.754395 141.709396,158.061127 
	C141.967590,158.639664 141.834549,159.252441 141.399200,159.968842 
z"/>
<path fill="#DFECFB" opacity="1.000000" stroke="none" 
	d="
M139.360794,161.083710 
	C139.036285,160.910416 139.024841,160.688217 138.996307,160.131271 
	C139.486496,159.718399 139.993774,159.640259 140.782410,159.834549 
	C140.600449,160.416245 140.137161,160.725510 139.360794,161.083710 
z"/>
<path fill="#D8F2FB" opacity="1.000000" stroke="none" 
	d="
M86.646782,418.809753 
	C86.998497,419.099243 86.990120,419.304474 86.967712,419.817505 
	C86.293854,419.885498 85.634048,419.645721 84.895866,419.044556 
	C85.307228,418.697235 85.796959,418.711365 86.646782,418.809753 
z"/>
<path fill="#E0ECFB" opacity="1.000000" stroke="none" 
	d="
M174.302444,126.023521 
	C174.176743,125.731285 174.316589,125.370087 174.774231,125.022224 
	C174.917343,125.341896 174.742661,125.648232 174.302444,126.023521 
z"/>
<path fill="#DFECFB" opacity="1.000000" stroke="none" 
	d="
M166.273788,134.005737 
	C166.143326,133.793808 166.264740,133.497635 166.618134,133.103729 
	C166.741974,133.311172 166.633835,133.616333 166.273788,134.005737 
z"/>
<path fill="#DFECFB" opacity="1.000000" stroke="none" 
	d="
M159.378220,141.985306 
	C159.128525,141.663757 159.181503,141.240173 159.594452,140.748596 
	C159.863251,141.081482 159.772064,141.482376 159.378220,141.985306 
z"/>
<path fill="#DBF3FA" opacity="1.000000" stroke="none" 
	d="
M437.835175,117.694702 
	C437.547699,117.788765 437.362976,117.554520 437.120361,117.074310 
	C437.269653,117.074486 437.561462,117.253830 437.835175,117.694702 
z"/>
<path fill="#DAE9F8" opacity="1.000000" stroke="none" 
	d="
M86.693634,75.974556 
	C86.821289,76.269157 86.682785,76.630470 86.226418,76.976822 
	C86.081535,76.654999 86.254509,76.348137 86.693634,75.974556 
z"/>
<path fill="#DAE9F8" opacity="1.000000" stroke="none" 
	d="
M92.595840,71.303436 
	C92.386864,71.823189 92.109398,71.970299 91.369385,72.028206 
	C91.447014,71.602936 91.987183,71.266876 92.595840,71.303436 
z"/>
<path fill="#DAE9F8" opacity="1.000000" stroke="none" 
	d="
M98.991470,65.019440 
	C99.071312,65.416313 98.828369,65.787933 98.248436,66.043060 
	C98.163864,65.615768 98.416275,65.304970 98.991470,65.019440 
z"/>
<path fill="#D9E7F7" opacity="1.000000" stroke="none" 
	d="
M139.968353,39.018845 
	C140.052628,39.403614 139.815689,39.761993 139.246017,40.029305 
	C139.157913,39.622978 139.402527,39.307716 139.968353,39.018845 
z"/>
<path fill="#FAFAFD" opacity="1.000000" stroke="none" 
	d="
M287.498962,477.653595 
	C287.644897,477.286285 287.944946,477.213837 288.705444,477.092102 
	C288.661652,477.344696 288.157349,477.646576 287.498962,477.653595 
z"/>
<path fill="#F6F6FB" opacity="1.000000" stroke="none" 
	d="
M400.312927,422.059631 
	C400.265869,421.875885 400.475616,421.589722 400.923462,421.177002 
	C400.964325,421.352692 400.767029,421.654999 400.312927,422.059631 
z"/>
<path fill="#DFECFB" opacity="1.000000" stroke="none" 
	d="
M160.212051,140.250275 
	C160.108566,140.005554 160.245178,139.557205 160.739029,139.066071 
	C160.881561,139.364410 160.666855,139.705521 160.212051,140.250275 
z"/>
<path fill="#D6F1FA" opacity="1.000000" stroke="none" 
	d="
M78.526794,412.322449 
	C78.693207,412.060394 78.821831,411.883423 78.950439,411.706451 
	C78.994308,411.874817 79.038185,412.043182 78.858658,412.367218 
	C78.635254,412.522888 78.488998,412.407593 78.526794,412.322449 
z"/>
<path fill="#D7F2FA" opacity="1.000000" stroke="none" 
	d="
M452.906067,141.734955 
	C452.685242,142.000412 452.516937,141.998886 452.094360,141.993332 
	C451.858459,141.796494 451.876892,141.603714 451.993713,141.137421 
	C452.380920,141.065262 452.669739,141.266617 452.906067,141.734955 
z"/>
<path fill="#F6F6FB" opacity="1.000000" stroke="none" 
	d="
M424.311707,397.054108 
	C424.265320,396.868683 424.477539,396.585205 424.927856,396.175598 
	C424.967407,396.351654 424.768860,396.653870 424.311707,397.054108 
z"/>
<path fill="#DFECFB" opacity="1.000000" stroke="none" 
	d="
M153.210907,147.251007 
	C153.106888,147.004272 153.241882,146.552704 153.735809,146.062286 
	C153.879791,146.364349 153.664841,146.705261 153.210907,147.251007 
z"/>
<path fill="#F6F6FB" opacity="1.000000" stroke="none" 
	d="
M432.313629,387.056763 
	C432.267548,386.872711 432.478668,386.587860 432.928406,386.177094 
	C432.968292,386.352783 432.769531,386.654388 432.313629,387.056763 
z"/>
<path fill="#D9EAFA" opacity="1.000000" stroke="none" 
	d="
M146.303558,154.022003 
	C146.179276,153.732651 146.318863,153.373596 146.775024,153.026001 
	C146.916870,153.342407 146.742157,153.647369 146.303558,154.022003 
z"/>
<path fill="#DFECFB" opacity="1.000000" stroke="none" 
	d="
M142.325684,158.006622 
	C142.262634,157.740097 142.501358,157.383728 143.101593,156.999329 
	C143.184555,157.286484 142.905991,157.601639 142.325684,158.006622 
z"/>
<path fill="#DFECFB" opacity="1.000000" stroke="none" 
	d="
M135.304810,165.050201 
	C135.039032,164.912598 135.027222,164.692474 134.997986,164.140701 
	C135.177399,163.793564 135.374207,163.778076 135.821747,163.920410 
	C135.901245,164.374695 135.730011,164.671188 135.304810,165.050201 
z"/>
<path fill="#DFECFB" opacity="1.000000" stroke="none" 
	d="
M127.306442,173.026276 
	C127.176918,172.726913 127.312988,172.360260 127.771141,172.016876 
	C127.919487,172.346436 127.745758,172.652710 127.306442,173.026276 
z"/>
<path fill="#D9EAFA" opacity="1.000000" stroke="none" 
	d="
M154.782288,143.981354 
	C154.816727,144.161270 154.582001,144.465561 154.094452,144.916901 
	C154.065460,144.744537 154.289276,144.425125 154.782288,143.981354 
z"/>
<path fill="#D9EAFA" opacity="1.000000" stroke="none" 
	d="
M124.792801,173.950134 
	C124.831497,174.131287 124.610466,174.419678 124.144257,174.831543 
	C124.110397,174.655807 124.321732,174.356583 124.792801,173.950134 
z"/>
<path fill="#D8F3FC" opacity="1.000000" stroke="none" 
	d="
M386.662689,207.816895 
	C385.898468,208.384827 384.819031,208.951172 383.738373,208.953400 
	C363.858002,208.994415 343.977478,208.970444 324.097015,208.940781 
	C323.618347,208.940048 323.139984,208.716614 322.342255,208.338959 
	C323.099792,207.771286 324.176056,207.194138 325.253479,207.191895 
	C345.139557,207.150391 365.025787,207.175018 384.911957,207.205353 
	C385.390442,207.206070 385.868591,207.431870 386.662689,207.816895 
z"/>
<path fill="#D8F3FC" opacity="1.000000" stroke="none" 
	d="
M290.662903,207.816132 
	C290.396851,208.360458 289.813843,208.887054 289.233246,208.884415 
	C275.709076,208.823090 262.185181,208.704483 248.341904,208.338318 
	C248.601517,207.795471 249.181564,207.260162 249.759186,207.262756 
	C263.288666,207.323929 276.817871,207.443253 290.662903,207.816132 
z"/>
<path fill="#D8F3FC" opacity="1.000000" stroke="none" 
	d="
M442.662903,207.816467 
	C440.915222,208.384705 438.850677,208.954544 436.787933,208.948044 
	C427.078674,208.917496 417.369934,208.728867 407.341797,208.338379 
	C408.753906,207.769623 410.486389,207.186279 412.216339,207.193634 
	C422.260193,207.236282 432.303406,207.417923 442.662903,207.816467 
z"/>
<path fill="#D8F3FC" opacity="1.000000" stroke="none" 
	d="
M242.662903,207.817001 
	C235.870804,208.255737 228.762909,208.430405 221.330444,208.354431 
	C228.119629,207.920181 235.233353,207.736557 242.662903,207.817001 
z"/>
<path fill="#D8F3FC" opacity="1.000000" stroke="none" 
	d="
M462.663574,207.814880 
	C457.539459,208.250626 452.099609,208.423431 446.341309,208.338531 
	C451.464508,207.904526 456.906189,207.728226 462.663574,207.814880 
z"/>
<path fill="#D8F3FC" opacity="1.000000" stroke="none" 
	d="
M216.653229,207.999268 
	C215.184372,208.257782 213.368668,208.408203 211.287399,208.319092 
	C212.783356,208.016769 214.544861,207.953979 216.653229,207.999268 
z"/>
</svg>