<svg version="1.1" id="Layer_1" xmlns="http://www.w3.org/2000/svg" xmlns:xlink="http://www.w3.org/1999/xlink" x="0px" y="0px"
	 width="100%" viewBox="0 0 1080 1080" enable-background="new 0 0 1080 1080" xml:space="preserve">
<path fill="#FFFFFF" opacity="1.000000" stroke="none"
	d="
M608.000000,1081.000000
	C405.356659,1081.000000 203.213318,1081.000000 1.034993,1081.000000
	C1.034993,721.064880 1.034993,361.129730 1.034993,1.097306
	C360.893585,1.097306 720.787170,1.097306 1080.840332,1.097306
	C1080.840332,360.999939 1080.840332,720.999939 1080.840332,1081.000000
	C923.462646,1081.000000 765.981323,1081.000000 608.000000,1081.000000
M767.456909,592.673279
	C767.735962,592.005737 768.015015,591.338257 768.563904,590.226196
	C768.651611,590.076721 768.739380,589.927307 769.325500,589.777832
	C769.463989,589.189026 769.602478,588.600281 769.945007,587.358032
	C769.969238,586.906067 769.993408,586.454041 770.362366,585.456421
	C768.126038,578.171082 768.123291,578.441956 758.864990,578.348938
	C753.315857,578.293213 754.720093,582.510925 753.530029,585.752136
	C753.701721,586.154419 753.873352,586.556641 754.131165,587.497070
	C755.169800,587.450073 756.208496,587.403137 758.059021,587.366882
	C759.953125,587.365967 761.847290,587.364990 764.048889,588.048401
	C764.008484,589.011902 763.968140,589.975342 763.595581,591.207336
	C763.595581,591.207336 763.276245,591.490967 762.565613,591.426697
	C760.935669,592.198669 759.159058,592.764160 757.711609,593.792969
	C755.743286,595.192017 756.063049,595.875183 759.721619,597.108643
	C761.400940,596.272217 763.080200,595.435852 765.380310,594.646912
	C765.849548,594.047607 766.318787,593.448242 766.844849,592.842041
	C766.844849,592.842041 766.845459,592.784729 767.456909,592.673279
M568.749634,588.700378
	C568.749634,588.700378 568.775635,588.634888 569.350708,588.666748
	C569.204895,587.812195 569.059082,586.957703 568.247864,585.640503
	C568.170105,584.437195 568.092346,583.233948 568.537903,581.726318
	C570.186096,578.875977 569.087769,577.821472 566.089233,577.861023
	C562.215027,577.912231 558.339600,577.873474 554.464722,577.873474
	C549.147644,578.926392 550.185059,583.447815 549.730103,587.555420
	C549.198792,592.351868 551.101562,595.595886 555.370605,598.648254
	C555.795837,597.123535 556.115417,595.977356 557.314941,594.812500
	C557.899719,594.855042 558.484497,594.897583 558.841858,595.799072
	C561.487854,600.106262 565.519531,596.977722 569.498230,597.731445
	C569.287170,595.798096 569.076172,593.864685 569.040161,591.333984
	C568.921753,590.945190 568.803345,590.556335 568.654053,589.441833
	C568.663086,589.199890 568.672058,588.957947 568.749634,588.700378
M678.969116,594.988953
	C678.969116,594.988953 678.803711,594.817566 679.473145,594.884399
	C680.014587,593.600098 680.556030,592.315857 681.075745,590.357910
	C681.199646,589.927734 681.323486,589.497620 682.046082,588.868164
	C682.189087,588.713928 682.332153,588.559753 683.211853,588.607239
	C683.675232,589.483521 684.138672,590.359802 684.349976,591.973450
	C684.064026,594.053833 683.216431,596.484253 687.226746,596.717102
	C688.704468,600.980957 691.300598,596.814819 694.108582,597.608032
	C696.988342,597.590576 699.868042,597.573120 703.359314,597.775696
	C703.890320,597.436768 704.921082,597.007568 704.878601,596.772156
	C704.031738,592.081726 703.060913,587.413635 702.519165,582.190735
	C702.768188,581.810059 703.017273,581.429321 703.888123,580.916321
	C704.051025,579.977417 704.213928,579.038513 704.376892,578.099670
	C703.595398,578.028809 702.813965,577.957947 701.136963,577.930664
	C698.461975,577.977356 695.786987,578.024048 692.253296,577.993896
	C691.394897,578.064819 690.536438,578.135681 689.308533,578.021118
	C689.308533,578.021118 689.058044,577.692200 688.958008,577.130371
	C688.309448,577.422546 687.660950,577.714722 687.000000,578.000000
	C687.000000,578.000000 687.007141,578.012695 686.322876,578.087891
	C685.427063,579.163025 684.136230,580.123474 683.779053,581.354858
	C683.553406,582.132751 684.722290,583.315125 685.690125,584.705933
	C685.353577,585.506897 685.017029,586.307861 683.859375,587.283081
	C683.317810,587.397034 682.776306,587.510986 682.097839,586.820190
	C681.499817,585.863953 680.901733,584.907776 679.859131,583.462891
	C678.923767,582.531250 677.988464,581.599609 676.999512,580.135803
	C676.353088,580.015747 675.706604,579.895691 674.186951,579.802124
	C672.443665,579.822205 670.700439,579.842285 668.550842,579.384705
	C665.603027,579.874268 663.098083,580.815186 663.315369,584.833191
	C663.315369,584.833191 663.080994,585.031921 662.348755,585.134521
	C661.226807,586.762390 660.104858,588.390320 659.000000,590.000000
	C659.000000,590.000000 658.981201,590.016174 659.001892,589.425659
	C658.464600,588.647278 657.927246,587.868896 657.513855,586.156982
	C657.533325,584.341492 657.728882,582.503418 657.500916,580.719604
	C657.380066,579.774414 656.503357,578.139221 656.002014,578.151978
	C651.325073,578.271362 646.655518,578.680969 641.224243,579.161133
	C641.127258,582.730896 641.030273,586.300720 640.933899,589.954346
	C640.933899,589.954346 640.854126,589.928467 640.213379,589.910278
	C638.996277,590.273743 637.779236,590.637268 635.949402,590.259766
	C636.028748,588.819885 636.108032,587.379944 636.706787,585.472107
	C636.749023,584.550415 636.791321,583.628784 636.752930,582.233948
	C636.745789,581.912476 636.775208,581.594482 636.920471,580.493469
	C634.968262,575.666016 633.872253,575.225342 630.203613,577.814758
	C629.819946,577.603027 629.436340,577.391357 628.694641,576.572021
	C625.659546,576.193726 622.382874,574.368896 620.001953,578.003540
	C620.001953,578.003540 620.020386,578.021057 619.297546,578.092957
	C617.548889,578.461304 615.694641,579.384277 614.074768,579.075989
	C611.191101,578.527222 608.511536,576.705933 605.634583,576.366821
	C600.471558,575.758423 595.419128,576.405579 591.404480,580.554138
	C588.732910,576.130005 579.413208,574.989929 575.262268,578.844299
	C574.062561,579.958252 573.143494,582.011963 573.131653,583.642395
	C573.101746,587.754700 573.661438,591.871338 573.698608,596.461670
	C573.706970,596.646484 573.715393,596.831299 573.374939,597.412720
	C575.332703,597.050415 577.290527,596.688110 579.786987,596.098267
	C580.167480,595.674316 580.547974,595.250366 581.827637,594.794800
	C582.391479,594.613281 582.955322,594.431763 583.756897,594.788635
	C584.176880,595.185303 584.596863,595.581909 585.267456,596.550171
	C587.301147,596.962585 589.334778,597.374939 590.410522,597.593079
	C590.818298,592.665039 591.157776,588.563293 592.235535,584.797363
	C593.124573,586.186523 594.013611,587.575623 594.794189,589.671021
	C595.524841,590.513916 596.255554,591.356750 597.133484,592.562561
	C597.278625,592.797546 597.485291,592.948120 597.877258,593.757141
	C598.274109,595.130920 598.670959,596.504761 599.068848,598.503113
	C599.489502,598.826416 599.910156,599.149719 600.330811,599.473022
	C600.506348,598.920471 600.681824,598.367981 600.961975,597.963867
	C600.961975,597.963867 600.824097,597.845764 601.519226,597.964172
	C602.502014,596.995483 603.484741,596.026733 604.411072,596.064331
	C604.966003,596.422058 605.520874,596.779785 606.382263,597.621948
	C607.129944,597.630859 607.877563,597.639709 609.340698,597.701294
	C614.611389,598.223755 613.621704,593.973389 615.013367,591.207642
	C615.328796,592.512634 615.487610,593.885925 616.016479,595.097778
	C616.350952,595.864319 617.237549,596.390015 618.508362,597.411316
	C621.521179,598.021057 624.536011,594.929138 627.806519,597.885742
	C628.814392,598.796936 631.895752,597.414612 634.843323,597.418335
	C635.405884,596.603271 635.968445,595.788208 637.130798,594.836121
	C637.832764,594.305908 638.534790,593.775696 638.426575,593.857422
	C640.138306,595.466492 641.408020,596.659973 643.457397,597.884827
	C644.865967,596.863892 646.274536,595.842957 648.316895,594.968872
	C649.325989,595.675842 650.335144,596.382812 651.770935,597.434509
	C651.865417,597.591064 651.959839,597.747681 652.073853,598.515442
	C652.484619,598.838745 652.895386,599.162048 653.306152,599.485352
	C653.518250,598.955872 653.730347,598.426453 654.243591,597.227051
	C654.455688,595.789917 654.667786,594.352844 655.570435,593.211426
	C658.010925,593.145996 660.451477,593.080627 663.303955,593.469727
	C663.855042,594.070190 664.406189,594.670654 665.155273,596.021606
	C667.550842,596.285278 669.946472,596.548950 673.009399,596.923218
	C674.109680,596.769958 675.209961,596.616638 677.056213,596.736633
	C677.646057,596.090698 678.235901,595.444763 678.969116,594.988953
M717.598022,578.797424
	C717.395691,578.534485 717.193359,578.271545 716.882507,577.418396
	C714.921997,577.620239 712.961548,577.822021 710.294067,577.976746
	C709.238831,579.192017 707.739746,580.247253 707.230774,581.659363
	C706.437866,583.859619 706.706848,585.970154 710.439697,585.222656
	C710.439697,585.222656 710.775696,585.041138 710.919800,585.797241
	C711.064026,586.806702 711.208191,587.816223 711.408386,589.492188
	C711.340454,589.704529 711.272461,589.916931 710.647461,590.707458
	C709.860901,592.676514 709.074341,594.645630 707.846680,597.718750
	C712.655884,597.718750 715.930542,597.485901 719.158264,597.775940
	C723.454895,598.162170 725.453857,596.719604 724.761475,591.481018
	C724.608459,589.526611 724.455383,587.572266 725.061523,585.401306
	C725.289185,583.994995 725.516907,582.588684 725.754639,580.577271
	C725.268433,579.977722 724.782227,579.378113 723.864563,578.244751
	C722.878296,578.462158 721.892029,578.679626 720.128052,578.989136
	C719.355774,579.076172 718.583557,579.163269 717.598022,578.797424
M277.118927,432.694855
	C244.488708,450.239716 222.461227,476.777771 211.344055,511.974091
	C205.333862,531.002075 203.142258,550.607056 206.694427,568.714355
	C256.746735,518.644653 307.098907,468.274963 357.110016,418.246490
	C330.088806,414.870575 303.147156,418.928101 277.118927,432.694855
M363.010986,582.642151
	C363.011139,613.443909 363.010895,644.245667 363.012787,675.047424
	C363.012848,676.379211 362.939514,677.719666 363.062286,679.041016
	C363.380646,682.467346 365.231750,683.699707 368.537659,682.658325
	C374.366333,680.822083 380.233002,679.096619 386.013641,677.119690
	C401.740326,671.741089 415.772003,663.393005 428.140137,652.332397
	C444.493500,637.707825 457.305115,620.487915 464.990540,599.816467
	C467.898254,591.995605 469.909363,583.841370 472.587708,574.984131
	C469.592407,574.984131 467.804077,574.984070 466.015747,574.984070
	C433.882019,574.983948 401.748260,574.981567 369.614532,574.985718
	C363.077789,574.986572 363.077789,574.998047 363.010986,582.642151
M429.500000,527.970520
	C443.439972,527.970520 457.379944,527.970520 471.915558,527.970520
	C471.688202,525.841370 471.680878,524.394348 471.365204,523.018005
	C463.138428,487.150208 443.567627,459.144287 413.116425,438.545685
	C409.760681,436.275696 407.956268,436.554474 405.209717,439.319061
	C377.390839,467.320526 349.437714,495.188599 321.538116,523.109985
	C320.344116,524.304932 319.305084,525.654724 317.291077,527.970398
	C355.336212,527.970398 391.918121,527.970398 429.500000,527.970520
M280.522400,671.924072
	C290.830475,675.559753 301.096924,679.320740 311.469116,682.763184
	C315.102264,683.968994 316.913483,682.401611 316.899384,678.226135
	C316.788818,645.441956 316.799133,612.657043 316.886505,579.872742
	C316.896149,576.261353 315.755402,574.837585 312.000946,574.884644
	C299.022308,575.047729 286.038910,574.851929 273.061310,575.051514
	C271.142303,575.080994 268.770905,576.023315 267.410583,577.359558
	C253.876724,590.653625 240.549683,604.158020 227.058487,617.496033
	C224.968658,619.562195 224.815247,621.374023 226.435669,623.575317
	C229.976288,628.385254 233.264297,633.413025 237.134689,637.942322
	C249.124893,651.973877 263.052765,663.623962 280.522400,671.924072
M825.358826,552.860474
	C833.045227,545.503479 835.099548,535.649353 837.035034,525.849976
	C837.843811,521.755249 834.174805,521.168213 831.316101,520.678528
	C829.574646,520.380249 827.695496,521.001526 825.875854,521.024475
	C817.312134,521.132446 817.319946,521.109497 817.159180,512.412720
	C817.151123,511.974609 816.799194,511.542847 816.686707,511.287903
	C813.789124,511.287903 811.074158,511.287903 808.159668,511.287903
	C808.159668,514.670471 808.159668,517.601074 808.159668,521.139771
	C801.801392,521.139771 795.767822,521.139771 789.618713,521.139771
	C789.618713,526.235901 789.661255,530.717407 789.608948,535.197876
	C789.524780,542.409729 790.376404,543.042175 798.001221,540.809509
	C798.001221,536.994507 798.001221,533.052429 798.001221,528.856567
	C807.791443,528.856567 817.155945,528.856567 826.995422,528.856567
	C825.224182,545.142761 815.145203,552.884155 800.673767,556.310181
	C804.833313,563.797241 806.111633,564.539490 812.856567,561.264648
	C817.129089,559.190186 820.869324,556.019653 825.358826,552.860474
M688.088379,560.286621
	C701.361206,553.090576 709.689270,541.929932 714.363953,527.759583
	C716.385376,521.632202 714.056946,518.854248 707.441528,519.332581
	C703.092163,519.647034 698.701660,519.392029 693.790161,519.392029
	C694.825623,516.873535 695.544189,515.125977 696.438232,512.951416
	C693.472168,512.041809 690.873718,511.244934 688.116028,510.399261
	C683.607422,521.324951 676.440552,529.413147 667.116394,535.626709
	C672.366577,541.764526 672.900330,541.861816 678.306335,537.235107
	C680.451965,535.398682 682.862488,533.658875 684.397949,531.369141
	C687.190430,527.205078 690.889832,526.128418 695.510071,526.652527
	C696.989807,526.820312 698.507385,526.748718 700.001953,526.673645
	C704.192505,526.463379 704.919678,528.337219 703.371643,531.894470
	C699.073120,541.772217 691.981201,548.970703 682.433411,553.780151
	C679.406555,555.304810 676.220459,556.513550 672.941772,557.938721
	C680.831909,565.852051 678.386597,564.589905 687.012878,560.881531
	C687.164551,560.816223 687.300720,560.714722 688.088379,560.286621
M514.251404,554.884644
	C517.733215,546.947571 521.215088,539.010559 525.166016,530.004211
	C528.100647,530.004211 532.675598,530.004211 537.196472,530.004211
	C537.196472,527.069824 537.196472,524.686707 537.196472,521.863098
	C526.712097,521.863098 516.653320,521.863098 505.861511,521.863098
	C506.937469,518.638000 507.804810,516.038330 508.800446,513.054016
	C505.800079,512.389954 502.836365,511.733978 499.607269,511.019257
	C498.018402,522.133057 492.275055,530.508728 484.803162,537.856506
	C492.405151,543.465820 492.404968,543.465698 497.514404,536.609497
	C497.713135,536.342834 497.929932,536.089417 498.124573,535.819946
	C502.661316,529.538452 505.521851,528.621643 513.554688,530.877625
	C514.289551,540.922791 508.972412,549.773499 497.294434,557.943665
	C503.434357,564.475159 504.586761,564.553467 510.777161,558.727478
	C511.862701,557.705811 512.818909,556.546631 514.251404,554.884644
M591.596985,521.074402
	C593.277161,520.304016 594.957397,519.533630 596.936829,518.626099
	C593.124023,515.062805 591.344971,513.400208 589.236389,511.429596
	C578.035828,523.809631 564.361328,531.192505 548.702759,535.180298
	C547.975586,535.365417 547.025696,537.538391 547.322144,538.385864
	C548.607422,542.061035 550.738403,544.155823 555.158142,542.111877
	C560.005615,539.870239 565.098267,538.158569 570.773804,535.947205
	C570.773804,545.467896 570.773804,554.047546 570.773804,562.742310
	C573.972656,562.742310 576.713745,562.742310 579.668579,562.742310
	C579.668579,555.689941 580.106201,548.868774 579.554321,542.128540
	C578.909546,534.254272 580.067261,527.734558 588.059326,524.097229
	C589.213196,523.572083 590.057922,522.367798 591.596985,521.074402
M652.604492,542.362183
	C654.000366,538.842773 655.396240,535.323425 657.068970,531.106018
	C654.607849,530.150330 652.399719,528.578186 650.169800,528.546631
	C638.352661,528.379700 626.529907,528.593079 614.709290,528.694519
	C613.287292,528.706726 611.866394,528.839111 610.432678,528.916504
	C610.432678,531.535645 610.432678,533.617432 610.432678,536.373962
	C622.206726,536.373962 633.705688,536.373962 645.977844,536.373962
	C641.033936,548.982605 630.861633,553.444885 619.907166,556.838684
	C624.442078,564.121765 625.168091,564.434082 631.882263,561.401245
	C640.621948,557.453491 647.635437,551.544983 652.604492,542.362183
M765.566956,552.068115
	C768.892151,546.574646 772.502197,541.228577 775.445862,535.537781
	C777.526611,531.515198 775.382996,528.414246 770.894775,528.382385
	C757.612976,528.288025 744.330139,528.348572 730.719116,528.348572
	C730.719116,531.294128 730.719116,533.613892 730.719116,536.463501
	C742.512329,536.463501 753.877441,536.463501 765.917297,536.463501
	C761.312195,549.149292 751.025146,553.393311 740.122253,556.783752
	C744.400513,564.173828 745.475037,564.770874 752.325500,561.157715
	C756.830444,558.781677 760.837891,555.462280 765.566956,552.068115
M872.281128,530.516846
	C869.494629,530.127075 868.387634,528.594116 868.523804,525.735718
	C868.712097,521.783386 868.571106,517.815308 868.571106,513.654785
	C865.684937,513.654785 862.851990,513.654785 859.970459,513.654785
	C859.970459,530.463928 859.970459,546.846375 859.970459,563.520630
	C862.943115,563.520630 865.667786,563.520630 868.932495,563.520630
	C868.932495,555.311218 868.932495,547.322754 868.932495,538.386230
	C876.538086,541.448608 883.356628,544.194031 890.319763,546.997681
	C890.812500,545.904663 891.070679,545.121033 891.489990,544.435974
	C894.154724,540.081848 893.014099,537.628906 888.053040,536.203796
	C882.964600,534.742188 878.060730,532.637756 872.281128,530.516846
M746.220947,595.608215
	C744.912476,593.980164 742.201599,591.765991 742.586304,590.845581
	C743.395996,588.908325 745.829041,587.649475 747.538696,586.161987
	C746.080933,584.166687 744.755127,582.352051 743.125061,580.120850
	C739.335999,579.129883 734.832397,577.573364 731.591919,580.684998
	C731.372192,584.138367 731.203003,586.797791 730.998901,590.005554
	C731.508240,590.470886 733.133850,591.309021 733.734192,592.617554
	C736.220520,598.036316 740.175842,599.318665 746.220947,595.608215
M781.431885,579.040588
	C779.267761,581.900940 777.103577,584.761230 774.939453,587.621582
	C775.124207,588.046448 775.309021,588.471313 775.493835,588.896179
	C779.132751,587.151733 782.771729,585.407227 786.410706,583.662781
	C786.959839,584.459900 787.508911,585.256958 788.058044,586.054077
	C784.461609,589.342224 780.865173,592.630371 776.687561,596.449829
	C778.381958,596.629456 780.031311,597.321045 781.196533,596.840027
	C786.801208,594.526611 789.834778,589.788330 791.883545,584.361694
	C792.174927,583.589966 791.911377,581.851685 791.471863,581.682068
	C788.301575,580.458252 785.019714,579.523438 781.431885,579.040588
M738.224976,522.172485
	C747.351440,522.156372 756.477905,522.111633 765.604309,522.132874
	C773.237793,522.150696 773.408752,521.976562 771.946472,513.988037
	C760.004395,513.988037 748.000977,513.988037 734.514771,513.988037
	C735.651062,517.181091 736.531982,519.656433 738.224976,522.172485
M642.412781,522.113892
	C644.734619,522.135254 647.056641,522.145813 649.378235,522.180481
	C652.859985,522.232422 652.171936,519.667358 652.244202,517.605347
	C652.316895,515.529541 652.376953,513.594421 649.313843,513.616272
	C638.240234,513.695129 627.165588,513.647278 616.210876,513.647278
	C614.342163,521.722534 614.689270,522.169617 622.034302,522.132019
	C628.502502,522.098938 634.970886,522.116943 642.412781,522.113892
M880.265686,519.936279
	C881.707886,522.278076 883.150085,524.619812 885.056885,527.715942
	C887.252869,525.611023 888.997314,523.938904 890.741760,522.266785
	C890.938477,522.632202 891.135254,522.997620 891.332031,523.362976
	C893.338379,522.312927 895.344727,521.262878 897.351074,520.212891
	C895.801086,517.706055 894.552063,514.892700 892.509705,512.887146
	C891.930054,512.317932 889.057312,514.158447 887.200134,514.787231
	C886.098755,515.160095 884.850525,515.154053 883.803894,515.621582
	C882.099243,516.383057 878.451721,515.332703 880.265686,519.936279
M797.353455,586.956360
	C797.177124,590.592285 796.829041,594.269226 799.637512,598.203491
	C800.837891,596.017151 801.561890,594.698486 801.876648,594.125183
	C805.347229,594.990234 808.326477,596.002930 811.381897,596.355591
	C812.531006,596.488159 813.856812,595.089783 815.102051,594.389465
	C813.874756,593.925049 812.623291,593.515320 811.424866,592.985718
	C808.137817,591.533203 804.465027,590.525574 801.787659,588.319214
	C800.611328,587.349854 801.540039,583.893921 801.390564,581.574890
	C801.336060,580.729004 800.926636,579.906067 800.679138,579.072693
	C799.832947,579.625977 798.483643,580.017090 798.242432,580.765381
	C797.694336,582.466064 797.690796,584.342285 797.353455,586.956360
M808.877563,584.086365
	C810.914001,583.638794 814.149048,585.270447 814.679504,581.102356
	C811.030579,581.102356 808.026123,581.102356 805.021667,581.102356
	C804.881958,581.525940 804.742310,581.949524 804.602661,582.373108
	C805.778931,582.942566 806.955200,583.511963 808.877563,584.086365
z"/>
<path fill="#6E9CD3" opacity="1.000000" stroke="none"
	d="
M277.444641,432.513062
	C303.147156,418.928101 330.088806,414.870575 357.110016,418.246490
	C307.098907,468.274963 256.746735,518.644653 206.694427,568.714355
	C203.142258,550.607056 205.333862,531.002075 211.344055,511.974091
	C222.461227,476.777771 244.488708,450.239716 277.444641,432.513062
z"/>
<path fill="#DBDAEB" opacity="1.000000" stroke="none"
	d="
M363.010986,582.164673
	C363.077789,574.998047 363.077789,574.986572 369.614532,574.985718
	C401.748260,574.981567 433.882019,574.983948 466.015747,574.984070
	C467.804077,574.984070 469.592407,574.984131 472.587708,574.984131
	C469.909363,583.841370 467.898254,591.995605 464.990540,599.816467
	C457.305115,620.487915 444.493500,637.707825 428.140137,652.332397
	C415.772003,663.393005 401.740326,671.741089 386.013641,677.119690
	C380.233002,679.096619 374.366333,680.822083 368.537659,682.658325
	C365.231750,683.699707 363.380646,682.467346 363.062286,679.041016
	C362.939514,677.719666 363.012848,676.379211 363.012787,675.047424
	C363.010895,644.245667 363.011139,613.443909 363.010986,582.164673
z"/>
<path fill="#81CDE8" opacity="1.000000" stroke="none"
	d="
M429.000000,527.970459
	C391.918121,527.970398 355.336212,527.970398 317.291077,527.970398
	C319.305084,525.654724 320.344116,524.304932 321.538116,523.109985
	C349.437714,495.188599 377.390839,467.320526 405.209717,439.319061
	C407.956268,436.554474 409.760681,436.275696 413.116425,438.545685
	C443.567627,459.144287 463.138428,487.150208 471.365204,523.018005
	C471.680878,524.394348 471.688202,525.841370 471.915558,527.970520
	C457.379944,527.970520 443.439972,527.970520 429.000000,527.970459
z"/>
<path fill="#81CDE8" opacity="1.000000" stroke="none"
	d="
M280.216156,671.708740
	C263.052765,663.623962 249.124893,651.973877 237.134689,637.942322
	C233.264297,633.413025 229.976288,628.385254 226.435669,623.575317
	C224.815247,621.374023 224.968658,619.562195 227.058487,617.496033
	C240.549683,604.158020 253.876724,590.653625 267.410583,577.359558
	C268.770905,576.023315 271.142303,575.080994 273.061310,575.051514
	C286.038910,574.851929 299.022308,575.047729 312.000946,574.884644
	C315.755402,574.837585 316.896149,576.261353 316.886505,579.872742
	C316.799133,612.657043 316.788818,645.441956 316.899384,678.226135
	C316.913483,682.401611 315.102264,683.968994 311.469116,682.763184
	C301.096924,679.320740 290.830475,675.559753 280.216156,671.708740
z"/>
<path fill="#161616" opacity="1.000000" stroke="none"
	d="
M825.103516,553.100586
	C820.869324,556.019653 817.129089,559.190186 812.856567,561.264648
	C806.111633,564.539490 804.833313,563.797241 800.673767,556.310181
	C815.145203,552.884155 825.224182,545.142761 826.995422,528.856567
	C817.155945,528.856567 807.791443,528.856567 798.001221,528.856567
	C798.001221,533.052429 798.001221,536.994507 798.001221,540.809509
	C790.376404,543.042175 789.524780,542.409729 789.608948,535.197876
	C789.661255,530.717407 789.618713,526.235901 789.618713,521.139771
	C795.767822,521.139771 801.801392,521.139771 808.159668,521.139771
	C808.159668,517.601074 808.159668,514.670471 808.159668,511.287903
	C811.074158,511.287903 813.789124,511.287903 816.686707,511.287903
	C816.799194,511.542847 817.151123,511.974609 817.159180,512.412720
	C817.319946,521.109497 817.312134,521.132446 825.875854,521.024475
	C827.695496,521.001526 829.574646,520.380249 831.316101,520.678528
	C834.174805,521.168213 837.843811,521.755249 837.035034,525.849976
	C835.099548,535.649353 833.045227,545.503479 825.103516,553.100586
z"/>
<path fill="#161616" opacity="1.000000" stroke="none"
	d="
M687.766235,560.458374
	C687.300720,560.714722 687.164551,560.816223 687.012878,560.881531
	C678.386597,564.589905 680.831909,565.852051 672.941772,557.938721
	C676.220459,556.513550 679.406555,555.304810 682.433411,553.780151
	C691.981201,548.970703 699.073120,541.772217 703.371643,531.894470
	C704.919678,528.337219 704.192505,526.463379 700.001953,526.673645
	C698.507385,526.748718 696.989807,526.820312 695.510071,526.652527
	C690.889832,526.128418 687.190430,527.205078 684.397949,531.369141
	C682.862488,533.658875 680.451965,535.398682 678.306335,537.235107
	C672.900330,541.861816 672.366577,541.764526 667.116394,535.626709
	C676.440552,529.413147 683.607422,521.324951 688.116028,510.399261
	C690.873718,511.244934 693.472168,512.041809 696.438232,512.951416
	C695.544189,515.125977 694.825623,516.873535 693.790161,519.392029
	C698.701660,519.392029 703.092163,519.647034 707.441528,519.332581
	C714.056946,518.854248 716.385376,521.632202 714.363953,527.759583
	C709.689270,541.929932 701.361206,553.090576 687.766235,560.458374
z"/>
<path fill="#161616" opacity="1.000000" stroke="none"
	d="
M514.043091,555.167847
	C512.818909,556.546631 511.862701,557.705811 510.777161,558.727478
	C504.586761,564.553467 503.434357,564.475159 497.294434,557.943665
	C508.972412,549.773499 514.289551,540.922791 513.554688,530.877625
	C505.521851,528.621643 502.661316,529.538452 498.124573,535.819946
	C497.929932,536.089417 497.713135,536.342834 497.514404,536.609497
	C492.404968,543.465698 492.405151,543.465820 484.803162,537.856506
	C492.275055,530.508728 498.018402,522.133057 499.607269,511.019257
	C502.836365,511.733978 505.800079,512.389954 508.800446,513.054016
	C507.804810,516.038330 506.937469,518.638000 505.861511,521.863098
	C516.653320,521.863098 526.712097,521.863098 537.196472,521.863098
	C537.196472,524.686707 537.196472,527.069824 537.196472,530.004211
	C532.675598,530.004211 528.100647,530.004211 525.166016,530.004211
	C521.215088,539.010559 517.733215,546.947571 514.043091,555.167847
z"/>
<path fill="#161616" opacity="1.000000" stroke="none"
	d="
M591.321411,521.276123
	C590.057922,522.367798 589.213196,523.572083 588.059326,524.097229
	C580.067261,527.734558 578.909546,534.254272 579.554321,542.128540
	C580.106201,548.868774 579.668579,555.689941 579.668579,562.742310
	C576.713745,562.742310 573.972656,562.742310 570.773804,562.742310
	C570.773804,554.047546 570.773804,545.467896 570.773804,535.947205
	C565.098267,538.158569 560.005615,539.870239 555.158142,542.111877
	C550.738403,544.155823 548.607422,542.061035 547.322144,538.385864
	C547.025696,537.538391 547.975586,535.365417 548.702759,535.180298
	C564.361328,531.192505 578.035828,523.809631 589.236389,511.429596
	C591.344971,513.400208 593.124023,515.062805 596.936829,518.626099
	C594.957397,519.533630 593.277161,520.304016 591.321411,521.276123
z"/>
<path fill="#161616" opacity="1.000000" stroke="none"
	d="
M652.405884,542.667358
	C647.635437,551.544983 640.621948,557.453491 631.882263,561.401245
	C625.168091,564.434082 624.442078,564.121765 619.907166,556.838684
	C630.861633,553.444885 641.033936,548.982605 645.977844,536.373962
	C633.705688,536.373962 622.206726,536.373962 610.432678,536.373962
	C610.432678,533.617432 610.432678,531.535645 610.432678,528.916504
	C611.866394,528.839111 613.287292,528.706726 614.709290,528.694519
	C626.529907,528.593079 638.352661,528.379700 650.169800,528.546631
	C652.399719,528.578186 654.607849,530.150330 657.068970,531.106018
	C655.396240,535.323425 654.000366,538.842773 652.405884,542.667358
z"/>
<path fill="#161616" opacity="1.000000" stroke="none"
	d="
M765.317505,552.316711
	C760.837891,555.462280 756.830444,558.781677 752.325500,561.157715
	C745.475037,564.770874 744.400513,564.173828 740.122253,556.783752
	C751.025146,553.393311 761.312195,549.149292 765.917297,536.463501
	C753.877441,536.463501 742.512329,536.463501 730.719116,536.463501
	C730.719116,533.613892 730.719116,531.294128 730.719116,528.348572
	C744.330139,528.348572 757.612976,528.288025 770.894775,528.382385
	C775.382996,528.414246 777.526611,531.515198 775.445862,535.537781
	C772.502197,541.228577 768.892151,546.574646 765.317505,552.316711
z"/>
<path fill="#161616" opacity="1.000000" stroke="none"
	d="
M872.678589,530.665771
	C878.060730,532.637756 882.964600,534.742188 888.053040,536.203796
	C893.014099,537.628906 894.154724,540.081848 891.489990,544.435974
	C891.070679,545.121033 890.812500,545.904663 890.319763,546.997681
	C883.356628,544.194031 876.538086,541.448608 868.932495,538.386230
	C868.932495,547.322754 868.932495,555.311218 868.932495,563.520630
	C865.667786,563.520630 862.943115,563.520630 859.970459,563.520630
	C859.970459,546.846375 859.970459,530.463928 859.970459,513.654785
	C862.851990,513.654785 865.684937,513.654785 868.571106,513.654785
	C868.571106,517.815308 868.712097,521.783386 868.523804,525.735718
	C868.387634,528.594116 869.494629,530.127075 872.678589,530.665771
z"/>
<path fill="#404040" opacity="1.000000" stroke="none"
	d="
M746.159302,595.950256
	C740.175842,599.318665 736.220520,598.036316 733.734192,592.617554
	C733.133850,591.309021 731.508240,590.470886 730.998901,590.005554
	C731.203003,586.797791 731.372192,584.138367 731.591919,580.684998
	C734.832397,577.573364 739.335999,579.129883 743.125061,580.120850
	C744.755127,582.352051 746.080933,584.166687 747.538696,586.161987
	C745.829041,587.649475 743.395996,588.908325 742.586304,590.845581
	C742.201599,591.765991 744.912476,593.980164 746.159302,595.950256
z"/>
<path fill="#989898" opacity="1.000000" stroke="none"
	d="
M591.497192,584.461609
	C591.157776,588.563293 590.818298,592.665039 590.410522,597.593079
	C589.334778,597.374939 587.301147,596.962585 585.433960,596.177307
	C586.006226,595.802917 586.411987,595.801331 587.148010,595.728271
	C587.665527,594.780334 587.852783,593.903870 588.320068,592.824463
	C588.643738,591.716064 588.687378,590.810547 588.751343,589.523560
	C588.549927,588.111267 588.328064,587.080505 588.106201,586.049805
	C587.780945,586.098938 587.455688,586.148071 587.130432,586.197205
	C586.911316,587.448792 586.692200,588.700317 586.058228,589.913330
	C582.289734,589.779968 578.133789,591.450928 576.905762,585.637329
	C576.109680,588.029114 576.133606,590.171204 575.731812,592.230225
	C575.475098,593.545776 574.588867,594.738464 573.984863,595.986206
	C573.661438,591.871338 573.101746,587.754700 573.131653,583.642395
	C573.143494,582.011963 574.062561,579.958252 575.262268,578.844299
	C579.413208,574.989929 588.732910,576.130005 591.681152,581.160706
	C591.804321,582.665405 591.650757,583.563477 591.497192,584.461609
z"/>
<path fill="#404040" opacity="1.000000" stroke="none"
	d="
M641.983887,579.006470
	C646.655518,578.680969 651.325073,578.271362 656.002014,578.151978
	C656.503357,578.139221 657.380066,579.774414 657.500916,580.719604
	C657.728882,582.503418 657.533325,584.341492 657.149048,586.708984
	C657.516602,588.179321 658.248901,589.097778 658.981201,590.016174
	C658.981201,590.016174 659.000000,590.000000 658.963135,590.398438
	C657.577454,591.503174 656.228699,592.209412 654.879883,592.915710
	C654.667786,594.352844 654.455688,595.789917 653.779907,597.504883
	C652.895508,597.823242 652.474854,597.863770 652.054199,597.904236
	C651.959839,597.747681 651.865417,597.591064 651.630798,596.806763
	C651.532349,594.551880 651.824585,592.878723 651.536560,591.312317
	C651.304932,590.052856 650.370789,588.922668 649.748352,587.735168
	C649.202637,588.813904 648.484436,589.843262 648.157837,590.984741
	C647.807617,592.208923 647.825745,593.538452 647.683105,594.822021
	C646.274536,595.842957 644.865967,596.863892 643.022888,597.427856
	C643.308228,595.467834 644.028015,593.964783 644.358032,593.275635
	C643.015259,591.992920 641.934692,590.960693 640.854126,589.928467
	C640.854126,589.928467 640.933899,589.954346 641.309021,589.842285
	C641.784058,586.155701 641.883972,582.581116 641.983887,579.006470
z"/>
<path fill="#404040" opacity="1.000000" stroke="none"
	d="
M781.602539,578.768799
	C785.019714,579.523438 788.301575,580.458252 791.471863,581.682068
	C791.911377,581.851685 792.174927,583.589966 791.883545,584.361694
	C789.834778,589.788330 786.801208,594.526611 781.196533,596.840027
	C780.031311,597.321045 778.381958,596.629456 776.687561,596.449829
	C780.865173,592.630371 784.461609,589.342224 788.058044,586.054077
	C787.508911,585.256958 786.959839,584.459900 786.410706,583.662781
	C782.771729,585.407227 779.132751,587.151733 775.493835,588.896179
	C775.309021,588.471313 775.124207,588.046448 774.939453,587.621582
	C777.103577,584.761230 779.267761,581.900940 781.602539,578.768799
z"/>
<path fill="#5C5C5C" opacity="1.000000" stroke="none"
	d="
M737.818909,522.152100
	C736.531982,519.656433 735.651062,517.181091 734.514771,513.988037
	C748.000977,513.988037 760.004395,513.988037 771.946472,513.988037
	C773.408752,521.976562 773.237793,522.150696 765.604309,522.132874
	C756.477905,522.111633 747.351440,522.156372 737.818909,522.152100
M765.259766,520.868347
	C765.757385,520.869629 766.360840,521.054504 766.733948,520.839661
	C768.183899,520.004456 769.560730,519.042358 770.964783,518.127502
	C769.512268,517.290161 768.078552,515.768738 766.604187,515.728455
	C758.150513,515.497253 749.683655,515.494385 741.230652,515.738586
	C739.804138,515.779846 738.423340,517.401306 737.021423,518.292603
	C738.319397,519.152344 739.596313,520.716370 740.918884,520.756042
	C748.708313,520.989502 756.508484,520.867981 765.259766,520.868347
z"/>
<path fill="#5C5C5C" opacity="1.000000" stroke="none"
	d="
M641.926025,522.113159
	C634.970886,522.116943 628.502502,522.098938 622.034302,522.132019
	C614.689270,522.169617 614.342163,521.722534 616.210876,513.647278
	C627.165588,513.647278 638.240234,513.695129 649.313843,513.616272
	C652.376953,513.594421 652.316895,515.529541 652.244202,517.605347
	C652.171936,519.667358 652.859985,522.232422 649.378235,522.180481
	C647.056641,522.145813 644.734619,522.135254 641.926025,522.113159
M638.487549,515.625671
	C632.334778,515.624390 626.178223,515.514648 620.032715,515.725220
	C618.969238,515.761597 617.952209,517.154907 616.913757,517.921509
	C617.770996,518.890869 618.610718,520.684387 619.488159,520.703003
	C629.128174,520.908203 638.775513,520.909973 648.415833,520.716003
	C649.278992,520.698669 650.481018,519.030823 650.785400,517.925659
	C650.926636,517.412903 649.346558,515.824036 648.448792,515.737244
	C645.483154,515.450623 642.472900,515.626465 638.487549,515.625671
z"/>
<path fill="#404040" opacity="1.000000" stroke="none"
	d="
M880.113281,519.666626
	C878.451721,515.332703 882.099243,516.383057 883.803894,515.621582
	C884.850525,515.154053 886.098755,515.160095 887.200134,514.787231
	C889.057312,514.158447 891.930054,512.317932 892.509705,512.887146
	C894.552063,514.892700 895.801086,517.706055 897.351074,520.212891
	C895.344727,521.262878 893.338379,522.312927 891.332031,523.362976
	C891.135254,522.997620 890.938477,522.632202 890.741760,522.266785
	C888.997314,523.938904 887.252869,525.611023 885.056885,527.715942
	C883.150085,524.619812 881.707886,522.278076 880.113281,519.666626
z"/>
<path fill="#404040" opacity="1.000000" stroke="none"
	d="
M797.409668,586.551758
	C797.690796,584.342285 797.694336,582.466064 798.242432,580.765381
	C798.483643,580.017090 799.832947,579.625977 800.679138,579.072632
	C800.926636,579.906067 801.336060,580.729004 801.390564,581.574890
	C801.540039,583.893921 800.611328,587.349854 801.787659,588.319214
	C804.465027,590.525574 808.137817,591.533203 811.424866,592.985718
	C812.623291,593.515320 813.874756,593.925049 815.102051,594.389404
	C813.856812,595.089783 812.531006,596.488159 811.381897,596.355591
	C808.326477,596.002930 805.347229,594.990234 801.876648,594.125183
	C801.561890,594.698486 800.837891,596.017151 799.637512,598.203491
	C796.829041,594.269226 797.177124,590.592285 797.409668,586.551758
z"/>
<path fill="#404040" opacity="1.000000" stroke="none"
	d="
M724.577576,592.243408
	C725.453857,596.719604 723.454895,598.162170 719.158264,597.775940
	C715.930542,597.485901 712.655884,597.718750 707.846680,597.718750
	C709.074341,594.645630 709.860901,592.676514 711.181763,590.352661
	C711.594910,589.607117 711.473694,589.216431 711.352417,588.825684
	C711.208191,587.816223 711.064026,586.806702 711.226807,585.211792
	C713.312988,584.386780 715.124573,583.824402 716.862122,583.998901
	C718.586121,584.172119 720.235596,585.087402 721.917725,585.677185
	C721.031799,587.277222 720.145874,588.877319 719.286194,590.430115
	C720.633972,590.891968 722.605774,591.567688 724.577576,592.243408
z"/>
<path fill="#404040" opacity="1.000000" stroke="none"
	d="
M596.986206,592.199707
	C596.255554,591.356750 595.524841,590.513916 595.208313,589.268921
	C596.772095,588.040466 597.921753,587.214111 599.071411,586.387756
	C598.816772,586.050537 598.562195,585.713318 598.307556,585.376099
	C597.180176,585.376099 596.052795,585.376099 594.925415,585.376099
	C594.633240,584.998779 594.341003,584.621460 594.048767,584.244141
	C595.382690,582.733459 596.716675,581.222839 598.098755,579.955322
	C598.325928,579.959045 598.504944,579.719727 598.739990,579.132690
	C600.174316,579.611755 601.552551,580.438538 603.131775,581.385864
	C603.938293,580.425232 604.924133,579.251038 605.540833,578.516418
	C607.395691,579.421936 608.809082,580.735840 610.091797,580.618713
	C613.633789,580.295044 614.827942,581.984741 614.873474,585.363831
	C614.762451,586.093689 614.805481,586.527832 614.633423,587.328491
	C614.411316,588.819641 614.404297,589.944214 614.397278,591.068787
	C613.621704,593.973389 614.611389,598.223755 608.999451,597.425781
	C608.125305,596.632507 607.592407,596.114685 607.076599,595.446777
	C607.093689,595.296570 606.994934,595.010864 606.997437,595.005432
	C607.000000,595.000000 607.010559,594.994995 607.107483,595.050659
	C607.204407,595.106262 607.424988,595.142517 607.850952,595.178833
	C608.841431,595.138733 609.405945,595.062439 610.326416,594.844604
	C611.278381,592.148804 611.874390,589.594482 612.734497,585.908447
	C611.010864,587.231079 610.507874,587.617065 610.002441,588.001465
	C610.000000,588.000000 609.994568,587.995117 609.976318,587.629028
	C609.096558,583.262268 607.778503,583.091919 601.985596,586.123901
	C601.685669,587.925659 601.405762,589.607483 601.154785,591.700073
	C601.063965,594.022583 600.944031,595.934143 600.824097,597.845764
	C600.824097,597.845764 600.961975,597.963867 600.612244,597.838745
	C599.864258,597.768555 599.466064,597.823547 599.067810,597.878540
	C598.670959,596.504761 598.274109,595.130920 597.869324,593.130981
	C597.569641,592.403137 597.277893,592.301392 596.986206,592.199707
z"/>
<path fill="#404040" opacity="1.000000" stroke="none"
	d="
M568.014648,582.030640
	C568.092346,583.233948 568.170105,584.437195 568.557495,586.189209
	C568.836670,587.370239 568.806152,588.002563 568.775635,588.634888
	C568.775635,588.634888 568.749634,588.700378 568.452515,588.529785
	C567.311829,588.204285 566.468384,588.049377 565.431885,587.742310
	C564.494080,587.548218 563.749207,587.506348 562.618286,587.545959
	C557.195740,588.315430 557.848450,591.539734 558.992798,594.983887
	C559.026062,594.999390 559.069275,594.940063 559.069275,594.940063
	C558.484497,594.897583 557.899719,594.855042 556.620056,594.921753
	C555.272339,595.154724 554.091980,595.491699 554.043152,595.371155
	C552.480652,591.507385 549.466614,587.862061 552.150208,583.295166
	C552.968323,581.902893 551.765381,578.658508 554.631836,579.381287
	C556.347595,579.813965 557.584717,582.254456 558.964783,583.854736
	C559.514526,584.492310 559.869629,585.297668 560.313416,586.026672
	C560.644714,585.958984 560.976074,585.891296 561.307373,585.823608
	C561.307373,583.774536 561.307373,581.725464 561.307373,579.701843
	C566.845215,578.496460 566.866760,578.504211 568.014648,582.030640
M565.336975,581.481323
	C564.905029,581.104553 564.481628,580.716003 564.019348,580.381042
	C563.992126,580.361328 563.651550,580.774048 563.456787,580.985535
	C563.940430,581.264526 564.424133,581.543457 565.336975,581.481323
z"/>
<path fill="#404040" opacity="1.000000" stroke="none"
	d="
M677.053162,580.667847
	C677.988464,581.599609 678.923767,582.531250 680.069214,584.082397
	C680.668640,586.157104 681.058044,587.612305 681.447388,589.067444
	C681.323486,589.497620 681.199646,589.927734 680.823486,590.877686
	C679.982117,592.537537 679.392944,593.677551 678.803711,594.817566
	C678.803711,594.817566 678.969116,594.988953 678.593872,594.950012
	C677.582520,595.428528 676.946350,595.945923 676.310242,596.463379
	C675.209961,596.616638 674.109680,596.769958 672.593018,596.513367
	C673.220459,595.064819 674.173523,593.910339 675.324585,593.008667
	C679.067871,590.076660 678.626648,585.784790 674.015259,583.317749
	C673.106689,585.963135 672.217224,588.569824 671.315796,591.172363
	C670.268555,594.196045 668.327881,595.845825 664.957275,595.271118
	C664.406189,594.670654 663.855042,594.070190 663.113159,592.878540
	C662.975281,589.868896 663.028137,587.450378 663.080994,585.031921
	C663.080994,585.031921 663.315369,584.833191 663.608032,584.510925
	C665.586121,582.746582 667.271667,581.304504 668.957153,579.862427
	C670.700439,579.842285 672.443665,579.822205 674.789001,580.030212
	C675.945068,580.394836 676.499146,580.531372 677.053162,580.667847
M668.899170,590.046692
	C669.399780,587.924194 669.900452,585.801697 670.401062,583.679260
	C669.747925,583.382874 669.094788,583.086487 668.441650,582.790100
	C667.313660,584.921570 665.642334,586.952881 665.225586,589.215332
	C664.877869,591.103210 666.199280,592.808167 668.899170,590.046692
z"/>
<path fill="#5C5C5C" opacity="1.000000" stroke="none"
	d="
M568.276245,581.878479
	C566.866760,578.504211 566.845215,578.496460 561.307373,579.701843
	C561.307373,581.725464 561.307373,583.774536 561.307373,585.823608
	C560.976074,585.891296 560.644714,585.958984 560.313416,586.026672
	C559.869629,585.297668 559.514526,584.492310 558.964783,583.854736
	C557.584717,582.254456 556.347595,579.813965 554.631836,579.381287
	C551.765381,578.658508 552.968323,581.902893 552.150208,583.295166
	C549.466614,587.862061 552.480652,591.507385 554.043152,595.371155
	C554.091980,595.491699 555.272339,595.154724 556.180115,594.931152
	C556.115417,595.977356 555.795837,597.123535 555.370605,598.648254
	C551.101562,595.595886 549.198792,592.351868 549.730103,587.555420
	C550.185059,583.447815 549.147644,578.926392 554.464722,577.873474
	C558.339600,577.873474 562.215027,577.912231 566.089233,577.861023
	C569.087769,577.821472 570.186096,578.875977 568.276245,581.878479
z"/>
<path fill="#DBDAEB" opacity="1.000000" stroke="none"
	d="
M615.027527,585.068115
	C614.827942,581.984741 613.633789,580.295044 610.091797,580.618713
	C608.809082,580.735840 607.395691,579.421936 605.540833,578.516418
	C604.924133,579.251038 603.938293,580.425232 603.131775,581.385864
	C601.552551,580.438538 600.174316,579.611755 598.566772,579.149414
	C598.337585,579.513855 598.050598,579.712158 598.050598,579.712158
	C596.716675,581.222839 595.382690,582.733459 594.048767,584.244141
	C594.341003,584.621460 594.633240,584.998779 594.925415,585.376099
	C596.052795,585.376099 597.180176,585.376099 598.307556,585.376099
	C598.562195,585.713318 598.816772,586.050537 599.071411,586.387756
	C597.921753,587.214111 596.772095,588.040466 595.262512,588.915771
	C594.013611,587.575623 593.124573,586.186523 591.866333,584.629517
	C591.650757,583.563477 591.804321,582.665405 591.935120,581.417542
	C595.419128,576.405579 600.471558,575.758423 605.634583,576.366821
	C608.511536,576.705933 611.191101,578.527222 614.074768,579.075989
	C615.694641,579.384277 617.548889,578.461304 619.648743,578.409790
	C621.761292,579.994629 614.603821,582.512695 620.528625,583.440369
	C619.849792,584.114319 619.266968,584.531494 618.380127,584.982483
	C617.059937,585.033630 616.043762,585.050903 615.027527,585.068115
z"/>
<path fill="#989898" opacity="1.000000" stroke="none"
	d="
M753.652588,585.304810
	C754.720093,582.510925 753.315857,578.293213 758.864990,578.348938
	C768.123291,578.441956 768.126038,578.171082 769.819824,585.524292
	C764.069031,585.496399 758.860840,585.400635 753.652588,585.304810
z"/>
<path fill="#404040" opacity="1.000000" stroke="none"
	d="
M620.624634,583.183594
	C614.603821,582.512695 621.761292,579.994629 620.010132,578.373901
	C620.020386,578.021057 620.001953,578.003540 620.345703,578.017090
	C621.446472,578.401917 622.203552,578.773315 622.961670,579.395996
	C623.141724,579.906799 623.320679,580.166382 623.499634,580.425964
	C623.693909,580.014160 623.888184,579.602417 624.116821,578.947388
	C624.750244,578.507019 625.349243,578.309937 625.953064,578.446899
	C626.292725,579.375549 626.627625,579.970154 626.962463,580.564758
	C627.295471,580.013245 627.628540,579.461731 628.102356,578.595520
	C628.512939,577.913696 628.782837,577.546692 629.052673,577.179626
	C629.436340,577.391357 629.819946,577.603027 630.371704,578.154907
	C630.686218,579.019348 630.832642,579.543762 631.076294,580.261108
	C631.415405,580.236572 631.657166,580.019043 632.047729,579.401978
	C633.744873,579.761658 635.293030,580.520752 636.841248,581.279846
	C636.775208,581.594482 636.745789,581.912476 636.518799,582.533264
	C635.929138,582.932373 635.573486,583.032166 634.850830,583.055786
	C633.668457,584.015137 632.853149,585.050659 632.037842,586.086182
	C632.306763,586.390076 632.575684,586.693970 632.844604,586.997864
	C631.555908,586.997864 630.267151,586.997864 628.732910,586.809326
	C627.285828,584.857300 626.352478,584.648193 625.513184,587.046021
	C624.046875,586.958557 622.940674,586.896851 621.834473,586.835083
	C622.119080,586.557556 622.403748,586.279968 622.688354,586.002441
	C622.000427,585.062805 621.312561,584.123230 620.624634,583.183594
z"/>
<path fill="#5C5C5C" opacity="1.000000" stroke="none"
	d="
M620.528625,583.440369
	C621.312561,584.123230 622.000427,585.062805 622.688354,586.002441
	C622.403748,586.279968 622.119080,586.557556 621.834473,586.835083
	C622.940674,586.896851 624.046875,586.958557 625.557495,587.436523
	C625.201782,589.752380 624.441650,591.652100 623.384460,594.294250
	C626.030579,594.294250 628.513611,594.294250 631.072510,594.598145
	C632.108093,595.628845 633.067871,596.355652 634.027649,597.082458
	C631.895752,597.414612 628.814392,598.796936 627.806519,597.885742
	C624.536011,594.929138 621.521179,598.021057 618.262817,596.893494
	C618.746155,595.420837 619.475037,594.466003 620.203857,593.511169
	C619.759399,593.367737 619.314880,593.224243 618.870361,593.080750
	C619.164734,591.705017 619.459045,590.329346 619.835693,588.604492
	C619.506714,587.153137 619.095459,586.050842 618.684143,584.948608
	C619.266968,584.531494 619.849792,584.114319 620.528625,583.440369
z"/>
<path fill="#404040" opacity="1.000000" stroke="none"
	d="
M716.990967,578.008667
	C717.193359,578.271545 717.395691,578.534485 717.719604,579.341187
	C718.862732,579.555664 719.884216,579.226318 720.905762,578.896973
	C721.892029,578.679626 722.878296,578.462158 723.930908,578.842041
	C724.579712,580.020264 725.162170,580.601318 725.744568,581.182373
	C725.516907,582.588684 725.289185,583.994995 724.418701,585.150513
	C720.064636,580.956482 715.415161,583.784302 711.232849,583.253052
	C710.931763,583.214844 710.469238,584.447754 710.081787,585.089661
	C706.706848,585.970154 706.437866,583.859619 707.230774,581.659363
	C707.739746,580.247253 709.238831,579.192017 710.834106,578.264221
	C712.197266,579.283264 713.020264,580.014893 713.770447,580.681702
	C714.965454,579.689880 715.978210,578.849243 716.990967,578.008667
z"/>
<path fill="#5C5C5C" opacity="1.000000" stroke="none"
	d="
M703.266357,581.048584
	C703.017273,581.429321 702.768188,581.810059 702.040588,582.625549
	C701.824341,584.564270 702.086731,586.068237 702.366882,587.674377
	C701.370972,587.778015 700.239929,587.895691 698.813599,588.001099
	C698.129089,588.033508 697.739868,588.078125 697.099121,587.894897
	C695.283020,587.843506 693.718506,588.020020 692.139526,587.800781
	C692.111633,586.878357 692.098206,586.351746 692.421509,585.761475
	C693.208923,584.500793 693.981445,583.315063 694.023682,582.103882
	C694.070068,580.771667 693.444702,579.416138 693.112000,578.070679
	C695.786987,578.024048 698.461975,577.977356 701.799561,578.183472
	C702.730225,579.307068 702.998291,580.177795 703.266357,581.048584
z"/>
<path fill="#404040" opacity="1.000000" stroke="none"
	d="
M753.591309,585.528503
	C758.860840,585.400635 764.069031,585.496399 769.647461,585.797119
	C769.993408,586.454041 769.969238,586.906067 769.599060,587.808472
	C769.111084,588.765198 768.969116,589.271545 768.827148,589.777832
	C768.739380,589.927307 768.651611,590.076721 768.182251,590.565308
	C767.482178,591.531128 767.163818,592.157959 766.845459,592.784729
	C766.845459,592.784729 766.844849,592.842041 766.529541,592.884216
	C765.729370,593.484070 765.244446,594.041748 764.759521,594.599426
	C763.080200,595.435852 761.400940,596.272217 759.229858,596.787109
	C760.250854,594.807434 761.763550,593.149170 763.276245,591.490967
	C763.276245,591.490967 763.595581,591.207336 764.103699,590.973145
	C766.627747,587.863831 766.587402,587.707458 763.741394,587.364075
	C761.847290,587.364990 759.953125,587.365967 757.270508,587.219360
	C755.669678,587.034180 754.857361,586.996521 754.045044,586.958862
	C753.873352,586.556641 753.701721,586.154419 753.591309,585.528503
z"/>
<path fill="#DBDAEB" opacity="1.000000" stroke="none"
	d="
M665.056274,595.646362
	C668.327881,595.845825 670.268555,594.196045 671.315796,591.172363
	C672.217224,588.569824 673.106689,585.963135 674.015259,583.317749
	C678.626648,585.784790 679.067871,590.076660 675.324585,593.008667
	C674.173523,593.910339 673.220459,595.064819 672.259399,596.458069
	C669.946472,596.548950 667.550842,596.285278 665.056274,595.646362
z"/>
<path fill="#5C5C5C" opacity="1.000000" stroke="none"
	d="
M563.004272,587.464539
	C563.749207,587.506348 564.494080,587.548218 565.536011,588.095337
	C566.783752,589.122986 567.734375,589.645264 568.684937,590.167542
	C568.803345,590.556335 568.921753,590.945190 568.603149,591.668701
	C566.414124,592.687256 564.994019,593.349365 567.428406,595.140198
	C568.135193,595.660095 568.382629,596.804382 568.840637,597.662415
	C565.519531,596.977722 561.487854,600.106262 558.955566,595.369568
	C559.069275,594.940063 559.026062,594.999390 559.364746,595.025024
	C560.711121,594.840149 561.718689,594.629517 563.360657,594.286316
	C562.042664,592.887085 561.225098,592.019043 560.706909,591.468872
	C561.563232,589.976257 562.283752,588.720398 563.004272,587.464539
z"/>
<path fill="#989898" opacity="1.000000" stroke="none"
	d="
M692.153931,588.196533
	C693.718506,588.020020 695.283020,587.843506 696.965210,588.226501
	C696.137756,589.551392 695.192810,590.316833 694.254211,591.077026
	C695.164185,592.084290 696.022705,593.034607 696.442078,593.498779
	C695.094604,595.195190 694.172729,596.355774 693.250916,597.516357
	C691.300598,596.814819 688.704468,600.980957 687.338379,596.315063
	C687.636719,595.936829 687.823364,595.960632 688.210083,596.200684
	C689.658020,593.676697 690.905945,590.936646 692.153931,588.196533
z"/>
<path fill="#404040" opacity="1.000000" stroke="none"
	d="
M693.679749,597.562195
	C694.172729,596.355774 695.094604,595.195190 696.442078,593.498779
	C696.022705,593.034607 695.164185,592.084290 694.254211,591.077026
	C695.192810,590.316833 696.137756,589.551392 697.216675,588.454346
	C697.739868,588.078125 698.129089,588.033508 698.841980,588.292236
	C700.196533,589.456665 701.227417,590.317688 702.275696,591.193237
	C701.471558,591.944580 700.520203,592.833435 699.938599,593.376892
	C701.064087,595.051147 701.905945,596.303467 702.747803,597.555725
	C699.868042,597.573120 696.988342,597.590576 693.679749,597.562195
z"/>
<path fill="#404040" opacity="1.000000" stroke="none"
	d="
M588.730957,589.905029
	C588.687378,590.810547 588.643738,591.716064 588.042603,592.847839
	C587.300415,593.056458 587.115723,593.038757 586.964478,593.013306
	C586.997925,593.005615 586.997375,593.074280 586.906616,592.830872
	C586.542786,592.392090 586.269714,592.196777 585.587402,591.970093
	C583.543335,591.948547 581.908447,591.958252 580.273621,591.968018
	C580.484680,592.419250 580.695740,592.870483 580.890381,593.572754
	C580.892151,594.157898 580.910278,594.492126 580.928467,594.826355
	C580.547974,595.250366 580.167480,595.674316 579.118164,596.177795
	C576.874207,596.510254 575.299011,596.763184 573.723816,597.016113
	C573.715393,596.831299 573.706970,596.646484 573.841797,596.223938
	C574.588867,594.738464 575.475098,593.545776 575.731812,592.230225
	C576.133606,590.171204 576.109680,588.029114 576.905762,585.637329
	C578.133789,591.450928 582.289734,589.779968 586.436401,589.942749
	C587.729858,589.975464 588.230408,589.940247 588.730957,589.905029
z"/>
<path fill="#404040" opacity="1.000000" stroke="none"
	d="
M692.139526,587.800781
	C690.905945,590.936646 689.658020,593.676697 688.192078,595.812744
	C687.566589,593.717712 687.159119,592.226685 686.794495,590.454712
	C686.118408,589.152161 685.399475,588.130493 684.680542,587.108887
	C685.017029,586.307861 685.353577,585.506897 685.376587,584.056763
	C685.304199,582.576843 685.545349,581.746033 686.090210,581.069824
	C688.009949,581.447632 689.625916,581.670776 691.193726,582.254761
	C691.458740,583.685547 691.771729,584.755310 692.084717,585.825134
	C692.098206,586.351746 692.111633,586.878357 692.139526,587.800781
M689.615295,586.489807
	C689.615295,586.489807 689.476990,586.576721 689.615295,586.489807
z"/>
<path fill="#404040" opacity="1.000000" stroke="none"
	d="
M808.504517,584.083862
	C806.955200,583.511963 805.778931,582.942566 804.602661,582.373108
	C804.742310,581.949524 804.881958,581.525940 805.021667,581.102356
	C808.026123,581.102356 811.030579,581.102356 814.679504,581.102356
	C814.149048,585.270447 810.914001,583.638794 808.504517,584.083862
z"/>
<path fill="#989898" opacity="1.000000" stroke="none"
	d="
M703.053589,597.665710
	C701.905945,596.303467 701.064087,595.051147 699.938599,593.376892
	C700.520203,592.833435 701.471558,591.944580 702.275696,591.193237
	C701.227417,590.317688 700.196533,589.456665 699.137329,588.304504
	C700.239929,587.895691 701.370972,587.778015 702.366882,587.674377
	C702.086731,586.068237 701.824341,584.564270 701.838623,582.900696
	C703.060913,587.413635 704.031738,592.081726 704.878601,596.772156
	C704.921082,597.007568 703.890320,597.436768 703.053589,597.665710
z"/>
<path fill="#DBDAEB" opacity="1.000000" stroke="none"
	d="
M640.533752,589.919373
	C641.934692,590.960693 643.015259,591.992920 644.358032,593.275635
	C644.028015,593.964783 643.308228,595.467834 642.633057,597.412109
	C641.408020,596.659973 640.138306,595.466492 638.426575,593.857422
	C638.534790,593.775696 637.832764,594.305908 636.466797,594.823730
	C635.101257,594.562866 634.399780,594.314331 633.817749,593.821777
	C633.998779,593.407471 634.060303,593.237183 634.503540,593.067017
	C635.180603,592.361450 635.475891,591.655701 635.963013,591.054443
	C636.154907,591.158875 636.562134,591.000732 636.562134,591.000732
	C637.779236,590.637268 638.996277,590.273743 640.533752,589.919373
z"/>
<path fill="#989898" opacity="1.000000" stroke="none"
	d="
M710.260742,585.156128
	C710.469238,584.447754 710.931763,583.214844 711.232849,583.253052
	C715.415161,583.784302 720.064636,580.956482 724.039062,585.258789
	C724.455383,587.572266 724.608459,589.526611 724.669556,591.862183
	C722.605774,591.567688 720.633972,590.891968 719.286194,590.430115
	C720.145874,588.877319 721.031799,587.277222 721.917725,585.677185
	C720.235596,585.087402 718.586121,584.172119 716.862122,583.998901
	C715.124573,583.824402 713.312988,584.386780 711.154785,584.833740
	C710.775696,585.041138 710.439697,585.222656 710.260742,585.156128
z"/>
<path fill="#5C5C5C" opacity="1.000000" stroke="none"
	d="
M628.978394,586.997864
	C630.267151,586.997864 631.555908,586.997864 632.844604,586.997864
	C632.575684,586.693970 632.306763,586.390076 632.037842,586.086182
	C632.853149,585.050659 633.668457,584.015137 634.774109,583.374268
	C635.438721,584.492676 635.813049,585.216370 636.187378,585.940063
	C636.108032,587.379944 636.028748,588.819885 636.255737,590.630249
	C636.562134,591.000732 636.154907,591.158875 635.541382,591.101929
	C633.519958,591.169861 632.112061,591.294739 630.476929,591.338379
	C630.249695,591.257141 629.785400,591.125305 629.978882,590.866821
	C630.808594,590.232117 631.444885,589.855774 632.553406,589.200134
	C630.999695,589.118103 629.961121,589.063293 628.898071,588.672974
	C628.908508,587.890930 628.943420,587.444397 628.978394,586.997864
z"/>
<path fill="#DBDAEB" opacity="1.000000" stroke="none"
	d="
M619.753418,588.953613
	C619.459045,590.329346 619.164734,591.705017 618.870361,593.080750
	C619.314880,593.224243 619.759399,593.367737 620.203857,593.511169
	C619.475037,594.466003 618.746155,595.420837 617.946899,596.699707
	C617.237549,596.390015 616.350952,595.864319 616.016479,595.097778
	C615.487610,593.885925 615.328796,592.512634 614.705322,591.138184
	C614.404297,589.944214 614.411316,588.819641 614.909302,587.453369
	C616.851318,587.792358 618.302368,588.372986 619.753418,588.953613
z"/>
<path fill="#DBDAEB" opacity="1.000000" stroke="none"
	d="
M648.000000,594.895447
	C647.825745,593.538452 647.807617,592.208923 648.157837,590.984741
	C648.484436,589.843262 649.202637,588.813904 649.748352,587.735168
	C650.370789,588.922668 651.304932,590.052856 651.536560,591.312317
	C651.824585,592.878723 651.532349,594.551880 651.417480,596.634399
	C650.335144,596.382812 649.325989,595.675842 648.000000,594.895447
z"/>
<path fill="#DBDAEB" opacity="1.000000" stroke="none"
	d="
M662.714844,585.083252
	C663.028137,587.450378 662.975281,589.868896 662.907227,592.651306
	C660.451477,593.080627 658.010925,593.145996 655.225159,593.063599
	C656.228699,592.209412 657.577454,591.503174 658.954590,590.407593
	C660.104858,588.390320 661.226807,586.762390 662.714844,585.083252
z"/>
<path fill="#DBDAEB" opacity="1.000000" stroke="none"
	d="
M601.171631,597.904968
	C600.944031,595.934143 601.063965,594.022583 601.492798,591.706909
	C603.466187,591.234802 605.130615,591.166870 606.638977,591.385376
	C605.811157,592.800537 605.139343,593.929321 604.467529,595.058044
	C603.484741,596.026733 602.502014,596.995483 601.171631,597.904968
z"/>
<path fill="#DBDAEB" opacity="1.000000" stroke="none"
	d="
M692.421509,585.761475
	C691.771729,584.755310 691.458740,583.685547 691.197021,581.901611
	C690.724915,580.193848 690.201477,579.200195 689.678101,578.206543
	C690.536438,578.135681 691.394897,578.064819 692.682617,578.032349
	C693.444702,579.416138 694.070068,580.771667 694.023682,582.103882
	C693.981445,583.315063 693.208923,584.500793 692.421509,585.761475
z"/>
<path fill="#DBDAEB" opacity="1.000000" stroke="none"
	d="
M630.979004,580.068115
	C630.832642,579.543762 630.686218,579.019348 630.579102,578.227295
	C633.872253,575.225342 634.968262,575.666016 636.880859,580.886658
	C635.293030,580.520752 633.744873,579.761658 631.819702,579.475098
	C631.442688,579.947754 630.979004,580.068115 630.979004,580.068115
z"/>
<path fill="#404040" opacity="1.000000" stroke="none"
	d="
M630.704224,591.419617
	C632.112061,591.294739 633.519958,591.169861 635.349487,590.997437
	C635.475891,591.655701 635.180603,592.361450 634.245972,593.024658
	C633.310730,593.168030 633.014709,593.354065 632.718689,593.540039
	C633.045166,593.715332 633.371704,593.890564 633.698242,594.065796
	C634.399780,594.314331 635.101257,594.562866 636.166870,594.892273
	C635.968445,595.788208 635.405884,596.603271 634.435486,597.250366
	C633.067871,596.355652 632.108093,595.628845 631.091064,594.226440
	C630.923950,592.840454 630.814087,592.130005 630.704224,591.419617
z"/>
<path fill="#DBDAEB" opacity="1.000000" stroke="none"
	d="
M641.604065,579.083862
	C641.883972,582.581116 641.784058,586.155701 641.308716,589.800415
	C641.030273,586.300720 641.127258,582.730896 641.604065,579.083862
z"/>
<path fill="#989898" opacity="1.000000" stroke="none"
	d="
M762.920898,591.458862
	C761.763550,593.149170 760.250854,594.807434 758.869873,596.766479
	C756.063049,595.875183 755.743286,595.192017 757.711609,593.792969
	C759.159058,592.764160 760.935669,592.198669 762.920898,591.458862
z"/>
<path fill="#DBDAEB" opacity="1.000000" stroke="none"
	d="
M622.960571,579.144714
	C622.203552,578.773315 621.446472,578.401917 620.355164,578.025635
	C622.382874,574.368896 625.659546,576.193726 628.873657,576.875854
	C628.782837,577.546692 628.512939,577.913696 627.862549,578.468018
	C626.970764,578.474487 626.459473,578.293640 625.948242,578.112793
	C625.349243,578.309937 624.750244,578.507019 623.836792,578.923584
	C623.335144,579.143555 623.147888,579.144165 622.960571,579.144714
z"/>
<path fill="#5C5C5C" opacity="1.000000" stroke="none"
	d="
M686.751648,590.735718
	C687.159119,592.226685 687.566589,593.717712 687.992065,595.596558
	C687.823364,595.960632 687.636719,595.936829 687.180786,595.997986
	C683.216431,596.484253 684.064026,594.053833 684.746399,591.545044
	C685.679077,590.989685 686.215393,590.862732 686.751648,590.735718
z"/>
<path fill="#989898" opacity="1.000000" stroke="none"
	d="
M569.169434,597.696899
	C568.382629,596.804382 568.135193,595.660095 567.428406,595.140198
	C564.994019,593.349365 566.414124,592.687256 568.515686,591.967407
	C569.076172,593.864685 569.287170,595.798096 569.169434,597.696899
z"/>
<path fill="#5C5C5C" opacity="1.000000" stroke="none"
	d="
M689.493286,578.113892
	C690.201477,579.200195 690.724915,580.193848 691.245117,581.540649
	C689.625916,581.670776 688.009949,581.447632 686.210632,580.774780
	C686.353821,579.554260 686.680481,578.783447 687.007141,578.012695
	C687.007141,578.012695 687.000000,578.000000 687.348938,577.962646
	C688.151245,577.847656 688.604675,577.769897 689.058044,577.692200
	C689.058044,577.692200 689.308533,578.021118 689.493286,578.113892
z"/>
<path fill="#989898" opacity="1.000000" stroke="none"
	d="
M716.936768,577.713501
	C715.978210,578.849243 714.965454,579.689880 713.770447,580.681702
	C713.020264,580.014893 712.197266,579.283264 711.187622,578.287720
	C712.961548,577.822021 714.921997,577.620239 716.936768,577.713501
z"/>
<path fill="#DBDAEB" opacity="1.000000" stroke="none"
	d="
M686.665039,578.050293
	C686.680481,578.783447 686.353821,579.554260 685.906860,580.620117
	C685.545349,581.746033 685.304199,582.576843 685.164429,583.861816
	C684.722290,583.315125 683.553406,582.132751 683.779053,581.354858
	C684.136230,580.123474 685.427063,579.163025 686.665039,578.050293
z"/>
<path fill="#DBDAEB" opacity="1.000000" stroke="none"
	d="
M668.754028,579.623535
	C667.271667,581.304504 665.586121,582.746582 663.605530,584.357300
	C663.098083,580.815186 665.603027,579.874268 668.754028,579.623535
z"/>
<path fill="#404040" opacity="1.000000" stroke="none"
	d="
M604.439331,595.561157
	C605.139343,593.929321 605.811157,592.800537 606.948975,591.221558
	C608.274902,589.845947 609.134766,588.920532 609.994568,587.995117
	C609.994568,587.995117 610.000000,588.000000 609.958130,588.356018
	C609.362671,590.264526 608.809204,591.817078 608.253418,593.542725
	C608.251160,593.715881 608.068970,594.010437 607.833374,594.101807
	C607.402039,594.460449 607.206299,594.727722 607.010559,594.994995
	C607.010559,594.994995 607.000000,595.000000 606.778137,595.148682
	C606.445068,595.617188 606.333862,595.937012 606.139465,596.469238
	C606.056213,596.681641 606.075806,597.137512 606.075806,597.137512
	C605.520874,596.779785 604.966003,596.422058 604.439331,595.561157
z"/>
<path fill="#989898" opacity="1.000000" stroke="none"
	d="
M686.794495,590.454773
	C686.215393,590.862732 685.679077,590.989685 684.872437,591.176392
	C684.138672,590.359802 683.675232,589.483521 682.827271,588.375793
	C682.458923,587.937378 682.389648,587.764221 682.234741,587.624939
	C682.776306,587.510986 683.317810,587.397034 684.269958,587.195984
	C685.399475,588.130493 686.118408,589.152161 686.794495,590.454773
z"/>
<path fill="#989898" opacity="1.000000" stroke="none"
	d="
M573.549377,597.214417
	C575.299011,596.763184 576.874207,596.510254 578.848877,596.291565
	C577.290527,596.688110 575.332703,597.050415 573.549377,597.214417
z"/>
<path fill="#161616" opacity="1.000000" stroke="none"
	d="
M586.817749,595.799805
	C586.411987,595.801331 586.006226,595.802917 585.308655,595.891479
	C584.596863,595.581909 584.176880,595.185303 583.795654,594.523376
	C584.124023,594.061462 584.247803,593.792480 584.528748,593.398193
	C585.282959,593.278625 585.714111,593.211914 586.362427,593.176025
	C586.579468,593.206848 586.997375,593.074280 586.997375,593.074280
	C586.997375,593.074280 586.997925,593.005615 586.985596,593.364014
	C586.921387,594.414856 586.869568,595.107300 586.817749,595.799805
z"/>
<path fill="#DBDAEB" opacity="1.000000" stroke="none"
	d="
M703.577271,580.982422
	C702.998291,580.177795 702.730225,579.307068 702.247314,578.161743
	C702.813965,577.957947 703.595398,578.028809 704.376892,578.099609
	C704.213928,579.038513 704.051025,579.977417 703.577271,580.982422
z"/>
<path fill="#DBDAEB" opacity="1.000000" stroke="none"
	d="
M679.138428,594.850952
	C679.392944,593.677551 679.982117,592.537537 680.834412,591.214539
	C680.556030,592.315857 680.014587,593.600098 679.138428,594.850952
z"/>
<path fill="#989898" opacity="1.000000" stroke="none"
	d="
M763.895142,587.706238
	C766.587402,587.707458 766.627747,587.863831 764.269775,590.838867
	C763.968140,589.975342 764.008484,589.011902 763.895142,587.706238
z"/>
<path fill="#DBDAEB" opacity="1.000000" stroke="none"
	d="
M682.166260,587.222534
	C682.389648,587.764221 682.458923,587.937378 682.458923,588.274902
	C682.332153,588.559753 682.189087,588.713928 681.746765,588.967773
	C681.058044,587.612305 680.668640,586.157104 680.291443,584.326782
	C680.901733,584.907776 681.499817,585.863953 682.166260,587.222534
z"/>
<path fill="#DBDAEB" opacity="1.000000" stroke="none"
	d="
M658.991577,589.720947
	C658.248901,589.097778 657.516602,588.179321 657.087097,587.175720
	C657.927246,587.868896 658.464600,588.647278 658.991577,589.720947
z"/>
<path fill="#989898" opacity="1.000000" stroke="none"
	d="
M569.063171,588.650818
	C568.806152,588.002563 568.836670,587.370239 568.890259,586.420532
	C569.059082,586.957703 569.204895,587.812195 569.063171,588.650818
z"/>
<path fill="#989898" opacity="1.000000" stroke="none"
	d="
M754.088135,587.227966
	C754.857361,586.996521 755.669678,587.034180 756.864563,587.213989
	C756.208496,587.403137 755.169800,587.450073 754.088135,587.227966
z"/>
<path fill="#DBDAEB" opacity="1.000000" stroke="none"
	d="
M636.447083,585.706055
	C635.813049,585.216370 635.438721,584.492676 635.141174,583.450500
	C635.573486,583.032166 635.929138,582.932373 636.559204,582.769836
	C636.791321,583.628784 636.749023,584.550415 636.447083,585.706055
z"/>
<path fill="#5C5C5C" opacity="1.000000" stroke="none"
	d="
M584.205750,593.451172
	C584.247803,593.792480 584.124023,594.061462 583.676819,594.254150
	C582.955322,594.431763 582.391479,594.613281 581.378052,594.810547
	C580.910278,594.492126 580.892151,594.157898 581.301147,593.475098
	C582.554077,593.234741 583.379944,593.342957 584.205750,593.451172
z"/>
<path fill="#989898" opacity="1.000000" stroke="none"
	d="
M568.669495,589.804688
	C567.734375,589.645264 566.783752,589.122986 565.729004,588.247620
	C566.468384,588.049377 567.311829,588.204285 568.418152,588.537598
	C568.672058,588.957947 568.663086,589.199890 568.669495,589.804688
z"/>
<path fill="#989898" opacity="1.000000" stroke="none"
	d="
M720.516907,578.943054
	C719.884216,579.226318 718.862732,579.555664 717.826233,579.567688
	C718.583557,579.163269 719.355774,579.076172 720.516907,578.943054
z"/>
<path fill="#DBDAEB" opacity="1.000000" stroke="none"
	d="
M607.059509,595.596924
	C607.592407,596.114685 608.125305,596.632507 608.641724,597.399414
	C607.877563,597.639709 607.129944,597.630859 606.229004,597.379761
	C606.075806,597.137512 606.056213,596.681641 606.414307,596.387695
	C606.868103,595.928162 606.963806,595.762512 607.059509,595.596924
z"/>
<path fill="#DBDAEB" opacity="1.000000" stroke="none"
	d="
M689.008057,577.411255
	C688.604675,577.769897 688.151245,577.847656 687.355164,577.966125
	C687.660950,577.714722 688.309448,577.422546 689.008057,577.411255
z"/>
<path fill="#DBDAEB" opacity="1.000000" stroke="none"
	d="
M676.683228,596.599976
	C676.946350,595.945923 677.582520,595.428528 678.522217,594.854980
	C678.235901,595.444763 677.646057,596.090698 676.683228,596.599976
z"/>
<path fill="#989898" opacity="1.000000" stroke="none"
	d="
M765.069946,594.623169
	C765.244446,594.041748 765.729370,593.484070 766.501099,592.887695
	C766.318787,593.448242 765.849548,594.047607 765.069946,594.623169
z"/>
<path fill="#DBDAEB" opacity="1.000000" stroke="none"
	d="
M599.068359,598.190796
	C599.466064,597.823547 599.864258,597.768555 600.559937,597.764526
	C600.681824,598.367981 600.506348,598.920471 600.330811,599.473022
	C599.910156,599.149719 599.489502,598.826416 599.068359,598.190796
z"/>
<path fill="#DBDAEB" opacity="1.000000" stroke="none"
	d="
M652.064026,598.209839
	C652.474854,597.863770 652.895508,597.823242 653.629272,597.839844
	C653.730347,598.426453 653.518250,598.955872 653.306152,599.485352
	C652.895386,599.162048 652.484619,598.838745 652.064026,598.209839
z"/>
<path fill="#989898" opacity="1.000000" stroke="none"
	d="
M767.151184,592.729004
	C767.163818,592.157959 767.482178,591.531128 768.047302,590.787537
	C768.015015,591.338257 767.735962,592.005737 767.151184,592.729004
z"/>
<path fill="#989898" opacity="1.000000" stroke="none"
	d="
M769.076294,589.777832
	C768.969116,589.271545 769.111084,588.765198 769.497009,588.135193
	C769.602478,588.600281 769.463989,589.189026 769.076294,589.777832
z"/>
<path fill="#DBDAEB" opacity="1.000000" stroke="none"
	d="
M677.026367,580.401855
	C676.499146,580.531372 675.945068,580.394836 675.225586,580.016968
	C675.706604,579.895691 676.353088,580.015747 677.026367,580.401855
z"/>
<path fill="#989898" opacity="1.000000" stroke="none"
	d="
M725.749634,580.879822
	C725.162170,580.601318 724.579712,580.020264 724.146606,579.108887
	C724.782227,579.378113 725.268433,579.977722 725.749634,580.879822
z"/>
<path fill="#DBDAEB" opacity="1.000000" stroke="none"
	d="
M597.059814,592.381104
	C597.277893,592.301392 597.569641,592.403137 597.807373,592.759644
	C597.485291,592.948120 597.278625,592.797546 597.059814,592.381104
z"/>
<path fill="#989898" opacity="1.000000" stroke="none"
	d="
M711.380371,589.158936
	C711.473694,589.216431 711.594910,589.607117 711.460327,590.063599
	C711.272461,589.916931 711.340454,589.704529 711.380371,589.158936
z"/>
<path fill="#161616" opacity="1.000000" stroke="none"
	d="
M588.751343,589.523560
	C588.230408,589.940247 587.729858,589.975464 586.851196,589.981262
	C586.692200,588.700317 586.911316,587.448792 587.130432,586.197205
	C587.455688,586.148071 587.780945,586.098938 588.106201,586.049805
	C588.328064,587.080505 588.549927,588.111267 588.751343,589.523560
z"/>
<path fill="#5C5C5C" opacity="1.000000" stroke="none"
	d="
M587.147949,595.728271
	C586.869568,595.107300 586.921387,594.414856 586.952087,593.371704
	C587.115723,593.038757 587.300415,593.056458 587.762573,593.050781
	C587.852783,593.903870 587.665527,594.780334 587.147949,595.728271
z"/>
<path fill="#161616" opacity="1.000000" stroke="none"
	d="
M764.782349,520.867188
	C756.508484,520.867981 748.708313,520.989502 740.918884,520.756042
	C739.596313,520.716370 738.319397,519.152344 737.021423,518.292603
	C738.423340,517.401306 739.804138,515.779846 741.230652,515.738586
	C749.683655,515.494385 758.150513,515.497253 766.604187,515.728455
	C768.078552,515.768738 769.512268,517.290161 770.964783,518.127502
	C769.560730,519.042358 768.183899,520.004456 766.733948,520.839661
	C766.360840,521.054504 765.757385,520.869629 764.782349,520.867188
z"/>
<path fill="#161616" opacity="1.000000" stroke="none"
	d="
M638.983643,515.625244
	C642.472900,515.626465 645.483154,515.450623 648.448792,515.737244
	C649.346558,515.824036 650.926636,517.412903 650.785400,517.925659
	C650.481018,519.030823 649.278992,520.698669 648.415833,520.716003
	C638.775513,520.909973 629.128174,520.908203 619.488159,520.703003
	C618.610718,520.684387 617.770996,518.890869 616.913757,517.921509
	C617.952209,517.154907 618.969238,515.761597 620.032715,515.725220
	C626.178223,515.514648 632.334778,515.624390 638.983643,515.625244
z"/>
<path fill="#5C5C5C" opacity="1.000000" stroke="none"
	d="
M609.976318,587.629028
	C609.134766,588.920532 608.274902,589.845947 607.104980,590.935181
	C605.130615,591.166870 603.466187,591.234802 601.463806,591.296021
	C601.405762,589.607483 601.685669,587.925659 601.985596,586.123901
	C607.778503,583.091919 609.096558,583.262268 609.976318,587.629028
z"/>
<path fill="#5C5C5C" opacity="1.000000" stroke="none"
	d="
M608.255737,593.369568
	C608.809204,591.817078 609.362671,590.264526 609.960571,588.357544
	C610.507874,587.617065 611.010864,587.231079 612.734497,585.908447
	C611.874390,589.594482 611.278381,592.148804 610.312073,594.561951
	C609.379761,594.070435 608.817749,593.719971 608.255737,593.369568
z"/>
<path fill="#FFFFFF" opacity="1.000000" stroke="none"
	d="
M619.835693,588.604492
	C618.302368,588.372986 616.851318,587.792358 615.124390,587.086853
	C614.805481,586.527832 614.762451,586.093689 614.873474,585.363892
	C616.043762,585.050903 617.059937,585.033630 618.380127,584.982483
	C619.095459,586.050842 619.506714,587.153137 619.835693,588.604492
z"/>
<path fill="#DBDAEB" opacity="1.000000" stroke="none"
	d="
M608.253418,593.542725
	C608.817749,593.719971 609.379761,594.070435 609.956177,594.703491
	C609.405945,595.062439 608.841431,595.138733 608.133484,594.964233
	C608.016418,594.479004 608.042664,594.244751 608.068970,594.010437
	C608.068970,594.010437 608.251160,593.715881 608.253418,593.542725
z"/>
<path fill="#5C5C5C" opacity="1.000000" stroke="none"
	d="
M607.833374,594.101807
	C608.042664,594.244751 608.016418,594.479004 607.707520,594.927917
	C607.424988,595.142517 607.204407,595.106262 607.107483,595.050659
	C607.206299,594.727722 607.402039,594.460449 607.833374,594.101807
z"/>
<path fill="#5C5C5C" opacity="1.000000" stroke="none"
	d="
M607.076599,595.446777
	C606.963806,595.762512 606.868103,595.928162 606.497559,596.175293
	C606.333862,595.937012 606.445068,595.617188 606.775635,595.154114
	C606.994934,595.010864 607.093689,595.296570 607.076599,595.446777
z"/>
<path fill="#5C5C5C" opacity="1.000000" stroke="none"
	d="
M598.098755,579.955322
	C598.050598,579.712158 598.337585,579.513855 598.510742,579.497070
	C598.504944,579.719727 598.325928,579.959045 598.098755,579.955322
z"/>
<path fill="#989898" opacity="1.000000" stroke="none"
	d="
M562.618286,587.545959
	C562.283752,588.720398 561.563232,589.976257 560.706909,591.468872
	C561.225098,592.019043 562.042664,592.887085 563.360657,594.286316
	C561.718689,594.629517 560.711121,594.840149 559.331543,595.009583
	C557.848450,591.539734 557.195740,588.315430 562.618286,587.545959
z"/>
<path fill="#5C5C5C" opacity="1.000000" stroke="none"
	d="
M565.122375,581.651855
	C564.424133,581.543457 563.940430,581.264526 563.456787,580.985535
	C563.651550,580.774048 563.992126,580.361328 564.019348,580.381042
	C564.481628,580.716003 564.905029,581.104553 565.122375,581.651855
z"/>
<path fill="#989898" opacity="1.000000" stroke="none"
	d="
M668.695923,590.368286
	C666.199280,592.808167 664.877869,591.103210 665.225586,589.215332
	C665.642334,586.952881 667.313660,584.921570 668.441650,582.790100
	C669.094788,583.086487 669.747925,583.382874 670.401062,583.679260
	C669.900452,585.801697 669.399780,587.924194 668.695923,590.368286
z"/>
<path fill="#161616" opacity="1.000000" stroke="none"
	d="
M630.476929,591.338379
	C630.814087,592.130005 630.923950,592.840454 631.015259,593.922546
	C628.513611,594.294250 626.030579,594.294250 623.384460,594.294250
	C624.441650,591.652100 625.201782,589.752380 625.917603,587.462280
	C626.352478,584.648193 627.285828,584.857300 628.732910,586.809326
	C628.943420,587.444397 628.908508,587.890930 628.698608,588.851562
	C628.944214,589.952209 629.364807,590.538757 629.785400,591.125305
	C629.785400,591.125305 630.249695,591.257141 630.476929,591.338379
z"/>
<path fill="#5C5C5C" opacity="1.000000" stroke="none"
	d="
M625.953064,578.446899
	C626.459473,578.293640 626.970764,578.474487 627.721802,578.782837
	C627.628540,579.461731 627.295471,580.013245 626.962463,580.564758
	C626.627625,579.970154 626.292725,579.375549 625.953064,578.446899
z"/>
<path fill="#5C5C5C" opacity="1.000000" stroke="none"
	d="
M622.961670,579.395996
	C623.147888,579.144165 623.335144,579.143555 623.802429,579.166809
	C623.888184,579.602417 623.693909,580.014160 623.499634,580.425964
	C623.320679,580.166382 623.141724,579.906799 622.961670,579.395996
z"/>
<path fill="#5C5C5C" opacity="1.000000" stroke="none"
	d="
M631.076294,580.261108
	C630.979004,580.068115 631.442688,579.947754 631.670776,579.874634
	C631.657166,580.019043 631.415405,580.236572 631.076294,580.261108
z"/>
<path fill="#989898" opacity="1.000000" stroke="none"
	d="
M584.528748,593.398254
	C583.379944,593.342957 582.554077,593.234741 581.317505,593.224121
	C580.695740,592.870483 580.484680,592.419250 580.273621,591.968018
	C581.908447,591.958252 583.543335,591.948547 585.616455,592.257202
	C586.084961,592.765442 586.115112,592.955383 586.145325,593.145264
	C585.714111,593.211914 585.282959,593.278625 584.528748,593.398254
z"/>
<path fill="#5C5C5C" opacity="1.000000" stroke="none"
	d="
M586.362427,593.176025
	C586.115112,592.955383 586.084961,592.765442 586.025635,592.288452
	C586.269714,592.196777 586.542786,592.392090 586.906616,592.830872
	C586.997375,593.074280 586.579468,593.206848 586.362427,593.176025
z"/>
<path fill="#5C5C5C" opacity="1.000000" stroke="none"
	d="
M689.546143,586.533264
	C689.476990,586.576721 689.615295,586.489807 689.546143,586.533264
z"/>
<path fill="#5C5C5C" opacity="1.000000" stroke="none"
	d="
M633.817749,593.821777
	C633.371704,593.890564 633.045166,593.715332 632.718689,593.540039
	C633.014709,593.354065 633.310730,593.168030 633.864258,593.024414
	C634.060303,593.237183 633.998779,593.407471 633.817749,593.821777
z"/>
<path fill="#404040" opacity="1.000000" stroke="none"
	d="
M629.978882,590.866821
	C629.364807,590.538757 628.944214,589.952209 628.723145,589.187012
	C629.961121,589.063293 630.999695,589.118103 632.553406,589.200134
	C631.444885,589.855774 630.808594,590.232117 629.978882,590.866821
z"/>
</svg>
